<?xml version="1.0" encoding="UTF-8"?>
<svg xmlns="http://www.w3.org/2000/svg" viewBox="0 0 750 500">
  <defs>
    <style>
      .cls-1 {
        fill: #5fa3fa;
      }

      .cls-1, .cls-2, .cls-3, .cls-4, .cls-5, .cls-6, .cls-7, .cls-8, .cls-9, .cls-10, .cls-11, .cls-12 {
        stroke-width: 0px;
      }

      .cls-2, .cls-4 {
        fill: #d97969;
      }

      .cls-3 {
        fill: #5982fb;
        opacity: .1;
      }

      .cls-4 {
        mix-blend-mode: multiply;
      }

      .cls-13 {
        stroke: #b0c7ff;
        stroke-width: 5px;
      }

      .cls-13, .cls-14, .cls-15, .cls-16, .cls-17 {
        fill: none;
      }

      .cls-13, .cls-15, .cls-18 {
        stroke-miterlimit: 10;
      }

      .cls-19 {
        isolation: isolate;
      }

      .cls-5 {
        fill: #b36ee1;
      }

      .cls-14, .cls-20, .cls-16, .cls-21, .cls-22, .cls-18, .cls-17 {
        stroke: #000;
      }

      .cls-14, .cls-20, .cls-16, .cls-21, .cls-22, .cls-17 {
        stroke-linecap: round;
        stroke-linejoin: round;
      }

      .cls-14, .cls-22 {
        stroke-width: .75px;
      }

      .cls-20, .cls-21, .cls-22, .cls-9, .cls-18 {
        fill: #fff;
      }

      .cls-15 {
        stroke: #5fa3fa;
      }

      .cls-15, .cls-16, .cls-21 {
        stroke-width: .5px;
      }

      .cls-7 {
        fill: #efbe2e;
      }

      .cls-8 {
        fill: #b03a36;
      }

      .cls-10 {
        fill: #b8c13e;
      }

      .cls-11 {
        fill: #441153;
      }

      .cls-12 {
        fill: #dd464d;
      }

      .cls-17 {
        stroke-width: 2px;
      }
    </style>
  </defs>
  <g class="cls-19">
    <g id="OBJECTS">
      <g>
        <polygon class="cls-3" points="373.89 143.25 373.89 313.89 203.26 143.25 373.89 143.25"/>
        <polygon class="cls-3" points="175.27 219.26 334.67 378.67 175.27 378.67 175.27 219.26"/>
        <polygon class="cls-3" points="373.89 344.53 373.89 367.24 175.27 168.62 175.27 145.9 373.89 344.53"/>
        <rect class="cls-13" x="175.26" y="143.25" width="198.63" height="235.41"/>
        <line class="cls-13" x1="274.58" y1="143.25" x2="274.58" y2="378.66"/>
        <line class="cls-13" x1="172.7" y1="388.56" x2="376.2" y2="388.56"/>
      </g>
      <g>
        <g>
          <rect class="cls-22" x="125.37" y="270.69" width="28.12" height="28.12" rx="4.79" ry="4.79"/>
          <g>
            <rect class="cls-22" x="125.37" y="314.7" width="28.12" height="28.12" rx="4.79" ry="4.79"/>
            <path class="cls-10" d="m126.81,327.31s7.51,3.66,12.94,12.56c0,0,5.28-16.64,18.07-27.16l-7.58-3.06s-8.9,7.28-11.62,22.67c0,0-5.21-5.28-11.81-5.02Z"/>
          </g>
          <g>
            <rect class="cls-22" x="125.37" y="358.54" width="28.12" height="28.12" rx="4.79" ry="4.79"/>
            <path class="cls-10" d="m126.81,371.15s7.51,3.66,12.94,12.56c0,0,5.28-16.64,18.07-27.16l-7.58-3.06s-8.9,7.28-11.62,22.67c0,0-5.21-5.28-11.81-5.02Z"/>
          </g>
        </g>
        <g>
          <circle class="cls-21" cx="435.13" cy="196.09" r="28.57"/>
          <path class="cls-21" d="m427.48,215.92c3.87,9.38,2.72,23.9-12.08,26.63,0,0,25.45,2.05,24.11-23.06"/>
          <path class="cls-10" d="m412.76,190.54s12.98,6.33,22.37,21.72c0,0,9.13-28.76,31.24-46.96l-13.11-5.28s-15.39,12.59-20.09,39.2c0,0-9-9.13-20.41-8.67Z"/>
        </g>
        <g>
          <rect class="cls-16" x="310.65" y="87.82" width="133.66" height="40.92" rx="20.46" ry="20.46"/>
          <path class="cls-6" d="m442.54,125.76l-7.75-7.75c2.01-2.73,3.21-6.09,3.21-9.73,0-9.09-7.39-16.48-16.48-16.48s-16.48,7.39-16.48,16.48,7.39,16.48,16.48,16.48c3.64,0,7-1.2,9.73-3.21l7.75,7.75c.49.49,1.13.73,1.77.73s1.28-.24,1.77-.73c.98-.98.98-2.56,0-3.54Zm-32.49-17.48c0-6.33,5.15-11.48,11.48-11.48s11.48,5.15,11.48,11.48-5.15,11.48-11.48,11.48-11.48-5.15-11.48-11.48Z"/>
          <path class="cls-17" d="m344.75,112.34c2.4,2.62,4.8,4.56,7.43,4.39,7.3-.49,8.35-11.09,13.68-11.21,5.67-.14,5.36,10.21,14.94,9.96,9.57-.26,11.74-13.53,20.68-15.08"/>
          <path class="cls-17" d="m308.54,115.12s9.57-13.4,19.53-14.97c4.67-.73,8.38,2.55,11.82,6.5"/>
        </g>
        <g>
          <rect class="cls-16" x="431.74" y="270.37" width="36" height="36"/>
          <polygon class="cls-6" points="467.74 306.37 460.52 306.37 467.74 299.16 467.74 306.37"/>
          <polygon class="cls-6" points="458.22 275.64 441.25 275.64 438.06 275.64 438.06 278.83 438.06 281.54 441.25 281.54 441.25 278.83 448.14 278.83 448.14 297.91 444.24 297.91 444.24 301.11 455.24 301.11 455.24 297.91 451.33 297.91 451.33 278.83 458.22 278.83 458.22 281.54 461.42 281.54 461.42 278.83 461.42 275.64 458.22 275.64"/>
        </g>
      </g>
      <g>
        <g>
          <path class="cls-2" d="m196.3,306.53s-5.81,23.71-11.76,21.76c-6.65-2.17-5.28-16.04-5.28-16.04,0,0-7.5.35-6.98-5.54-4.02-1.03-7.91-1.4-10.01-2.11-3.67-1.24-3.46-5.37-2.18-5.68,1.01-.4,7.88-.63,13.53-1.74l7.86-7.39c1.15.67,2.1,1.27,2.68,1.71,4.95,5.29,12.14,15.03,12.14,15.03Z"/>
          <path class="cls-2" d="m174.94,300.4l-4.03,2.22c-10.52-5.75-10.1-5.8-10.99-6.68-2.39-2.35-.4-6.01,1.13-5.62,1.49.38,13.95,6.07,13.95,6.07l-.07,4.01Z"/>
          <path class="cls-2" d="m190.16,296.67s-6.75-12.16-9.49-13.58c-1.55-.8-11.48,1.39-12.63,1.62-1.74.35-1.91,3.48,2.75,5.08,2.91,1,5.04.5,5.04.5l3.82,5.97,10.51.41Z"/>
          <g>
            <path class="cls-6" d="m155.47,288.05l63.51,28.08c.35.15,1.12-.83,1.72-2.19.6-1.36.81-2.59.46-2.75l-63.51-28.08-2.18,4.94Z"/>
            <path class="cls-8" d="m148.3,281.93c-.31.69,7.17,6.12,7.17,6.12.35.15,1.12-.83,1.72-2.19.6-1.36.81-2.59.46-2.75,0,0-9.05-1.88-9.35-1.18Z"/>
          </g>
          <path class="cls-2" d="m214.79,336.21s-9.67-15.67-10.52-17.57c-.11-1.79-.71-10.35-.93-13.28-2.6-5.31-4.06-8.04-5.99-11.41-.6-1.05-9.17-3.14-12.91-4.8-3.39-1.5-6.7,1.2-4.19,5.01,1.02,1.55,3.28,3.27,7.72,5.12,1.11,2.49,3.35,6.58,3.35,6.58,0,0-9.21,7.57-7.16,21.61l11.5,20.47,19.12-11.71Z"/>
          <path class="cls-16" d="m188.09,290.48c-1.39-.46-2.67-.92-3.64-1.34-3.39-1.5-6.7,1.2-4.19,5.01,1.02,1.55,3.28,3.27,7.72,5.12,1.11,2.49,3.35,6.58,3.35,6.58,0,0-4.08,3.35-6.2,9.73"/>
          <path class="cls-7" d="m361.5,295.92s28.37,1.59,34.83,5.36c12.43,7.25,50.69,77.44,50.69,77.44l-36.8,24.62-25.04-40.17"/>
          <path class="cls-7" d="m394.1,341c1.08-20.95-25.93-42.31-25.93-42.31l-35.56-2.77s-33.52,8.69-54.65,17.17c-11.64,4.67-28.25,58.17-28.25,58.17-5.85-7.84-13.1-19.73-19.39-24.49-2.37-1.79-5.11-1.42-6.85-1.1h0s-13.01-17.19-13.01-17.19c-7.82,3.76-15.03,8.15-21.23,13.6l9.68,20.84c-3.35,3.14,13.79,45.56,26.35,64.56,5.09,7.7,10.14,11.2,13.61,12.11h29.1c3.65-1.54,5.96-7.28,9.72-13.28,6.14-9.81,8.99-16.13,12.2-24.26,1.69,13.89,2.78,26.76,6.07,37.56h101.17s-6-41.09-3.03-98.61Z"/>
          <path class="cls-16" d="m360,325.74s3.53,15.13,3.52,33.26c0,12.52-2.34,40.43-2.34,40.43,0,0,1.58,21.39,2.35,38.35"/>
          <path class="cls-2" d="m339.27,256.87l-15.05,42.46s20.38,3.59,35.78,24.33c4.51-8.56,7.37-17.54,6.9-27.36l1.25-28.47"/>
          <path class="cls-4" d="m366.9,296.3c.17,3.49-.09,6.87-.69,10.17-19.53,3.32-26.22-22.81-27.65-29.78-.21-1.07-.31-1.69-.31-1.69,0,0,13.97-5,20.82-10.62l9.08,3.45-1.25,28.47Z"/>
          <path class="cls-11" d="m359.99,323.64l-17.73-7.55-14.87,17.35s-10.94-20.09-10.88-33.07c3.15-5.48,12.14-13.51,12.14-13.51l-3.22,9.06s21.01,10.17,34.54,27.69c.01.01.01.02.02.03Z"/>
          <path class="cls-11" d="m367.13,291.12s6.25,3.01,8.72,5.99c2.47,2.99,11.8,20.79,11.8,20.79l-16.57-5.3-11.09,11.04s6.39-13.27,7.13-32.53Z"/>
          <path class="cls-2" d="m325.68,231.23c-5.06,11.94-.11,42.77,22.12,52.9,13.09,5.97,30.04,4.22,35.62-4.66,7.69-12.23-.69-41.72-7.6-56.17-7.06-14.77-40.93-13.83-50.14,7.93Z"/>
          <path class="cls-6" d="m323.19,259.4s-11.98-17.11-14.19-24.85c-2.21-7.74,14.53-14.01,14.53-14.01,0,0-.72-5.47,5.47-12.26,2.85-3.13,17.24-11.43,24.15-15.76,3.38-2.12,4.26,6.57,2.93,10.88,0,0,8.38-6.22,12.19-8.85,6.47-4.46,11.91,11.89,8.06,22.07,0,0,2.17,1.18,3.83,3.36,2.34,3.07.08,14.2.08,14.2,0,0-1.84-6.14-6.02-11.22-.87-1.06-3.5,14.17-33.36,9.87-3.5,3.32,1.29,11.55,1.29,11.55,0,0,2.63,4.06-3.63,7.25,2.4,5.1,5.15,10.75,5.15,10.75l-20.48-2.99Z"/>
          <path class="cls-2" d="m330.99,252.1c-2.76-2.73-10.23-5.25-14.47-.47-2.43,2.74-3.18,7.51-.98,11.24,4.42,7.51,15.73,10.82,19.36,6.71,4.58-5.2-.8-14.41-3.9-17.48Z"/>
          <path class="cls-16" d="m281.22,315.43c7.76-1.5,19.15,2.33,22.57,19.43,4.69,23.48-9.81,55.83-9.81,55.83"/>
          <path class="cls-16" d="m393.27,373.87s8.05-38.35-4.2-52.3"/>
          <path class="cls-16" d="m250.37,372.69s7.11,8.48,14.02,26.74"/>
          <path class="cls-16" d="m200.14,363.01c2.15,2.54,26.56-9,23.56-16.53"/>
          <path class="cls-16" d="m172.93,295.34c3.68,2.41,6.81,4.29,10.93,6.64"/>
          <path class="cls-16" d="m172.7,306.57l8.12,1.55s-2.06,1.89-1.65,8.3"/>
          <path class="cls-16" d="m164.64,299.14s11.43,4.1,17.48,6.13"/>
          <path class="cls-6" d="m359.97,337.06c.23,1.74-.48,3.27-1.59,3.42s-2.2-1.14-2.44-2.88c-.23-1.74.48-3.27,1.59-3.42,1.11-.15,2.2,1.14,2.44,2.88Z"/>
          <path class="cls-6" d="m361.47,365.99c0,1.76-.91,3.18-2.03,3.18s-2.03-1.42-2.03-3.18.91-3.18,2.03-3.18,2.03,1.42,2.03,3.18Z"/>
          <path class="cls-6" d="m358.83,395.72c-.11,1.75-1.11,3.11-2.23,3.04s-1.94-1.55-1.82-3.3,1.11-3.11,2.23-3.04c1.12.07,1.94,1.55,1.82,3.3Z"/>
          <path class="cls-6" d="m360.9,427.38c.13,1.75-.68,3.24-1.8,3.32-1.12.08-2.13-1.27-2.25-3.03-.13-1.75.68-3.24,1.8-3.32s2.13,1.27,2.25,3.03Z"/>
        </g>
        <g>
          <path class="cls-6" d="m527.46,433.84h-143.06l32.48-90.99c1.18-3.31,4.32-5.52,7.84-5.52h130.86c3.09,0,5.24,3.06,4.21,5.97l-32.32,90.55Z"/>
          <path class="cls-5" d="m530.22,433.84h-140.08l31.8-89.09c1.16-3.24,4.23-5.41,7.67-5.41h128.13c3.02,0,5.13,3,4.12,5.84l-31.65,88.66Z"/>
          <path class="cls-11" d="m518.48,439.61h-174.26c0-3.18,2.58-5.76,5.76-5.76h168.5v5.76Z"/>
          <path class="cls-6" d="m387.65,439.61h-43.43c0-3.18,2.58-5.76,5.76-5.76h37.67v5.76Z"/>
          <ellipse class="cls-9" cx="474.53" cy="388.97" rx="13.75" ry="7.63"/>
        </g>
        <g>
          <g>
            <rect class="cls-16" x="166.11" y="87.1" width="120.21" height="148.5" rx="21.55" ry="21.55" transform="translate(387.57 -64.87) rotate(90)"/>
            <rect class="cls-1" x="158.97" y="108.24" width="134.5" height="106.21" rx="14.55" ry="14.55"/>
            <path class="cls-9" d="m241.87,189.91h16.03l-24.12-54.46h-15.17l-24.04,54.46h15.72l4.25-10.58h23.09l4.25,10.58Zm-22.78-21.94l6.99-17.41,6.99,17.41h-13.98Z"/>
          </g>
          <g>
            <rect class="cls-12" x="490.05" y="207.93" width="134.5" height="106.21" rx="14.55" ry="14.55"/>
            <path class="cls-9" d="m591.45,252.6v-12h-28.15v-7.92h-12v7.92h-28.15v12h8.57c2.21,5.52,7.01,15.33,15.92,24.34-4.76,2.84-10.33,5.19-16.86,6.59l2.52,11.73c9.6-2.07,17.51-5.78,24-10.25,6.49,4.46,14.4,8.18,24,10.25l2.52-11.73c-6.53-1.4-12.1-3.75-16.86-6.59,8.91-9.01,13.71-18.82,15.92-24.34h8.57Zm-34.15,16.99c-6.11-5.82-10.06-12.18-12.45-16.99h24.91c-2.39,4.81-6.35,11.17-12.45,16.99Z"/>
          </g>
          <path class="cls-6" d="m565.97,169.8c0-46.09-56.66-48.75-63.21-48.91v-12.42l-31.77,20.41,31.77,20.41v-12.42c56.4.24,63.21,32.93,63.21,32.93Z"/>
          <path class="cls-6" d="m185.58,227c0,46.09,56.66,48.75,63.21,48.91v12.42l31.77-20.41-31.77-20.41v12.42c-56.4-.24-63.21-32.93-63.21-32.93Z"/>
        </g>
      </g>
      <g>
        <g>
          <path class="cls-6" d="m628.26,340.12s-2.79,6.62-3.57,17.62c0,0,18.85-24.8,40.68-17.15,2.11-1.56-27.76-24.01-37.11-.48Z"/>
          <path class="cls-10" d="m585.37,366.67s-5.16-.22-10.2,5.38c-5.45-1.82-17.36-3-22.97,13.55-8.21,24.21,8.81,42.89,8.81,42.89,3.73-13.88,23.36-35.43,24.35-61.82Z"/>
          <path class="cls-14" d="m600.76,357.74s10.88,15.92,10.18,36.66"/>
          <path class="cls-14" d="m615.71,398.11s-3.06-51.45,41.62-71.36"/>
          <path class="cls-10" d="m628.26,340.12c2.97-6.84,6.15-8.08,9.44-8.14,11.73-.22,26.16,33.26,54.29,32.46-5.07-11.59-5.68-49.18-35.43-39.1-21.19-7.28-28.3,14.78-28.3,14.78Z"/>
          <path class="cls-14" d="m607.65,400.92c0-10.21-6.2-35.53-22.28-34.25-16.09,1.28-21.66,30.8-21.66,30.8"/>
          <polygon class="cls-1" points="627.28 439.61 593.19 439.61 587.64 390.69 632.83 390.69 627.28 439.61"/>
          <rect class="cls-6" x="588.22" y="434.56" width="44.04" height="5.05"/>
          <path class="cls-10" d="m610.93,390.69s4.22-13.82,12.1-12.69c12,1.72,10.21,39.1,10.21,39.1-4.85-5.97-13.97-17.65-15.83-26.41h-6.48Z"/>
          <path class="cls-14" d="m656.56,325.34s6.91.61,13.34,10.71c5.25,8.24,8.21,14.21,11.18,17.47"/>
        </g>
        <g>
          <path class="cls-5" d="m196.3,434.24v-38.78h-33.67v38.78s-.13,5.36,5.23,5.36h23.2c5.36,0,5.23-5.36,5.23-5.36Z"/>
          <path class="cls-5" d="m206.15,403.89c-3.18-2.79-9.85-2.47-9.85-2.47v6.58s4.73-2.59,8.14-.16c2.98,2.12,2.78,9.69,2.78,9.69,0,0,.2,7.57-2.78,9.69-3.41,2.43-8.14-.16-8.14-.16v6.58s6.67.32,9.85-2.47c5.27-4.62,4.87-13.65,4.87-13.65,0,0,.4-9.03-4.87-13.65Z"/>
          <line class="cls-21" x1="172.7" y1="395.46" x2="172.7" y2="415.34"/>
          <path class="cls-6" d="m178.93,417l-2.81-2.81h-6.86l-2.81,2.81c-.04,4.18-.52,7.86-1.79,10.66l1.28,1.28h13.49l1.28-1.28c-1.27-2.8-1.75-6.48-1.79-10.66Z"/>
        </g>
      </g>
      <g>
        <line class="cls-20" x1="79.7" y1="439.61" x2="670.3" y2="439.61"/>
        <line class="cls-18" x1="226.08" y1="448.92" x2="490.05" y2="448.92"/>
      </g>
      <g>
        <g>
          <g>
            <path class="cls-6" d="m642.73,227c0,1.2-.97,2.17-2.17,2.17s-2.17-.97-2.17-2.17.97-2.17,2.17-2.17,2.17.97,2.17,2.17Z"/>
            <path class="cls-6" d="m652.68,227c0,1.2-.97,2.17-2.17,2.17s-2.17-.97-2.17-2.17.97-2.17,2.17-2.17,2.17.97,2.17,2.17Z"/>
            <path class="cls-6" d="m662.64,227c0,1.2-.97,2.17-2.17,2.17s-2.17-.97-2.17-2.17.97-2.17,2.17-2.17,2.17.97,2.17,2.17Z"/>
            <path class="cls-6" d="m672.59,227c0,1.2-.97,2.17-2.17,2.17s-2.17-.97-2.17-2.17.97-2.17,2.17-2.17,2.17.97,2.17,2.17Z"/>
          </g>
          <g>
            <path class="cls-6" d="m541.85,75.32c0,1.2-.97,2.17-2.17,2.17s-2.17-.97-2.17-2.17.97-2.17,2.17-2.17,2.17.97,2.17,2.17Z"/>
            <path class="cls-6" d="m551.8,75.32c0,1.2-.97,2.17-2.17,2.17s-2.17-.97-2.17-2.17.97-2.17,2.17-2.17,2.17.97,2.17,2.17Z"/>
            <path class="cls-6" d="m561.76,75.32c0,1.2-.97,2.17-2.17,2.17s-2.17-.97-2.17-2.17.97-2.17,2.17-2.17,2.17.97,2.17,2.17Z"/>
            <path class="cls-6" d="m571.71,75.32c0,1.2-.97,2.17-2.17,2.17s-2.17-.97-2.17-2.17.97-2.17,2.17-2.17,2.17.97,2.17,2.17Z"/>
          </g>
          <g>
            <path class="cls-6" d="m356.3,66.79c0,2.18-1.77,3.95-3.95,3.95s-3.95-1.77-3.95-3.95,1.77-3.95,3.95-3.95,3.95,1.77,3.95,3.95Z"/>
            <path class="cls-6" d="m374.43,66.79c0,2.18-1.77,3.95-3.95,3.95s-3.95-1.77-3.95-3.95,1.77-3.95,3.95-3.95,3.95,1.77,3.95,3.95Z"/>
            <path class="cls-6" d="m392.56,66.79c0,2.18-1.77,3.95-3.95,3.95s-3.95-1.77-3.95-3.95,1.77-3.95,3.95-3.95,3.95,1.77,3.95,3.95Z"/>
          </g>
          <g>
            <circle class="cls-6" cx="104.12" cy="243.13" r="3.09"/>
            <circle class="cls-6" cx="118.3" cy="243.13" r="3.09"/>
            <circle class="cls-6" cx="132.48" cy="243.13" r="3.09"/>
          </g>
          <g>
            <path class="cls-6" d="m512.15,448.92c0,1.25-1.01,2.26-2.26,2.26s-2.26-1.01-2.26-2.26,1.01-2.26,2.26-2.26,2.26,1.01,2.26,2.26Z"/>
            <path class="cls-6" d="m522.5,448.92c0,1.25-1.01,2.26-2.26,2.26s-2.26-1.01-2.26-2.26,1.01-2.26,2.26-2.26,2.26,1.01,2.26,2.26Z"/>
            <circle class="cls-6" cx="530.6" cy="448.92" r="2.26"/>
          </g>
        </g>
        <g>
          <path class="cls-15" d="m71.52,353.27c0-2.98,2.42-5.4,5.4-5.4s5.4,2.42,5.4,5.4-2.42,5.4-5.4,5.4-5.4-2.42-5.4-5.4Z"/>
          <path class="cls-15" d="m512.58,177.32c0-2.98,2.42-5.4,5.4-5.4s5.4,2.42,5.4,5.4-2.42,5.4-5.4,5.4-5.4-2.42-5.4-5.4Z"/>
          <path class="cls-15" d="m617.61,130.73c0-3.38,2.74-6.13,6.13-6.13s6.13,2.74,6.13,6.13-2.74,6.13-6.13,6.13-6.13-2.74-6.13-6.13Z"/>
          <path class="cls-1" d="m228.49,75.32c0-2.53,2.05-4.58,4.58-4.58s4.58,2.05,4.58,4.58-2.05,4.58-4.58,4.58-4.58-2.05-4.58-4.58Z"/>
          <path class="cls-15" d="m653.65,267.75c0-1.02.82-1.84,1.84-1.84s1.84.82,1.84,1.84-.82,1.84-1.84,1.84-1.84-.82-1.84-1.84Z"/>
          <path class="cls-1" d="m580.38,333.44c0-1.74,1.41-3.15,3.15-3.15s3.15,1.41,3.15,3.15-1.41,3.15-3.15,3.15-3.15-1.41-3.15-3.15Z"/>
          <path class="cls-15" d="m101.03,365.99c0-1.45,1.17-2.62,2.62-2.62s2.62,1.17,2.62,2.62-1.17,2.62-2.62,2.62-2.62-1.17-2.62-2.62Z"/>
          <circle class="cls-15" cx="672.45" cy="285.75" r="6.03"/>
          <path class="cls-15" d="m238.45,85.81c0-3.33,2.7-6.03,6.03-6.03s6.03,2.7,6.03,6.03-2.7,6.03-6.03,6.03-6.03-2.7-6.03-6.03Z"/>
        </g>
      </g>
    </g>
  </g>
</svg>