<svg width="94" height="94" viewBox="0 0 94 94" fill="none" xmlns="http://www.w3.org/2000/svg">
<rect x="27" y="3" width="64" height="64" rx="32" fill="url(#paint0_linear_116_193)"/>
<g filter="url(#filter0_b_116_193)">
<path fill-rule="evenodd" clip-rule="evenodd" d="M37 90.9997C29.2669 84.051 17.5822 82.8247 8.45511 87.321C5.94289 88.5547 3 86.871 3 84.0885V41.6647C3 39.3885 4.03889 37.206 5.856 35.8185C15.2589 28.6297 28.5113 29.4847 37 38.3835C45.4887 29.4847 58.7411 28.6297 68.144 35.8222C69.9611 37.2097 71 39.3922 71 41.6647V84.0847C71 86.8672 68.0571 88.5547 65.5449 87.3172C56.4178 82.8247 44.7331 84.051 37 90.9997Z" fill="#FF9D8F" fill-opacity="0.32"/>
<path fill-rule="evenodd" clip-rule="evenodd" d="M37 90.9997C29.2669 84.051 17.5822 82.8247 8.45511 87.321C5.94289 88.5547 3 86.871 3 84.0885V41.6647C3 39.3885 4.03889 37.206 5.856 35.8185C15.2589 28.6297 28.5113 29.4847 37 38.3835C45.4887 29.4847 58.7411 28.6297 68.144 35.8222C69.9611 37.2097 71 39.3922 71 41.6647V84.0847C71 86.8672 68.0571 88.5547 65.5449 87.3172C56.4178 82.8247 44.7331 84.051 37 90.9997Z" stroke="url(#paint1_linear_116_193)" stroke-width="0.5" stroke-linecap="round" stroke-linejoin="round"/>
</g>
<g filter="url(#filter1_bdii_116_193)">
<path d="M37 77V49" stroke="url(#paint2_linear_116_193)" stroke-width="4" stroke-linecap="round" stroke-linejoin="round"/>
</g>
<defs>
<filter id="filter0_b_116_193" x="-21.25" y="6.75" width="116.5" height="108.436" filterUnits="userSpaceOnUse" color-interpolation-filters="sRGB">
<feFlood flood-opacity="0" result="BackgroundImageFix"/>
<feGaussianBlur in="BackgroundImageFix" stdDeviation="12"/>
<feComposite in2="SourceAlpha" operator="in" result="effect1_backgroundBlur_116_193"/>
<feBlend mode="normal" in="SourceGraphic" in2="effect1_backgroundBlur_116_193" result="shape"/>
</filter>
<filter id="filter1_bdii_116_193" x="21" y="33" width="33" height="61" filterUnits="userSpaceOnUse" color-interpolation-filters="sRGB">
<feFlood flood-opacity="0" result="BackgroundImageFix"/>
<feGaussianBlur in="BackgroundImageFix" stdDeviation="7"/>
<feComposite in2="SourceAlpha" operator="in" result="effect1_backgroundBlur_116_193"/>
<feColorMatrix in="SourceAlpha" type="matrix" values="0 0 0 0 0 0 0 0 0 0 0 0 0 0 0 0 0 0 127 0" result="hardAlpha"/>
<feOffset dx="5" dy="5"/>
<feGaussianBlur stdDeviation="5"/>
<feColorMatrix type="matrix" values="0 0 0 0 0.7375 0 0 0 0 0.398711 0 0 0 0 0.350313 0 0 0 0.5 0"/>
<feBlend mode="normal" in2="effect1_backgroundBlur_116_193" result="effect2_dropShadow_116_193"/>
<feBlend mode="normal" in="SourceGraphic" in2="effect2_dropShadow_116_193" result="shape"/>
<feColorMatrix in="SourceAlpha" type="matrix" values="0 0 0 0 0 0 0 0 0 0 0 0 0 0 0 0 0 0 127 0" result="hardAlpha"/>
<feOffset dy="0.2"/>
<feComposite in2="hardAlpha" operator="arithmetic" k2="-1" k3="1"/>
<feColorMatrix type="matrix" values="0 0 0 0 1 0 0 0 0 1 0 0 0 0 1 0 0 0 0.25 0"/>
<feBlend mode="normal" in2="shape" result="effect3_innerShadow_116_193"/>
<feColorMatrix in="SourceAlpha" type="matrix" values="0 0 0 0 0 0 0 0 0 0 0 0 0 0 0 0 0 0 127 0" result="hardAlpha"/>
<feOffset dy="-0.2"/>
<feComposite in2="hardAlpha" operator="arithmetic" k2="-1" k3="1"/>
<feColorMatrix type="matrix" values="0 0 0 0 0.984314 0 0 0 0 0.484706 0 0 0 0 0.270588 0 0 0 0.35 0"/>
<feBlend mode="normal" in2="effect3_innerShadow_116_193" result="effect4_innerShadow_116_193"/>
</filter>
<linearGradient id="paint0_linear_116_193" x1="91" y1="3" x2="-2.49947" y2="23.3397" gradientUnits="userSpaceOnUse">
<stop stop-color="#FF9D8F"/>
<stop offset="0.0666667" stop-color="#FF9C8F"/>
<stop offset="0.133333" stop-color="#FF9B8C"/>
<stop offset="0.2" stop-color="#FE9887"/>
<stop offset="0.266667" stop-color="#FD9381"/>
<stop offset="0.333333" stop-color="#FC8E78"/>
<stop offset="0.4" stop-color="#FB876F"/>
<stop offset="0.466667" stop-color="#F98064"/>
<stop offset="0.533333" stop-color="#F87958"/>
<stop offset="0.6" stop-color="#F6714D"/>
<stop offset="0.666667" stop-color="#F56B43"/>
<stop offset="0.733333" stop-color="#F4653B"/>
<stop offset="0.8" stop-color="#F36134"/>
<stop offset="0.866667" stop-color="#F35E30"/>
<stop offset="0.933333" stop-color="#F25C2D"/>
<stop offset="1" stop-color="#F25C2C"/>
</linearGradient>
<linearGradient id="paint1_linear_116_193" x1="13.8245" y1="37.99" x2="50.8291" y2="89.9323" gradientUnits="userSpaceOnUse">
<stop stop-color="white" stop-opacity="0.25"/>
<stop offset="1" stop-color="white" stop-opacity="0"/>
</linearGradient>
<linearGradient id="paint2_linear_116_193" x1="37.6" y1="32.6667" x2="-7.62964" y2="62.5078" gradientUnits="userSpaceOnUse">
<stop stop-color="white" stop-opacity="0.88"/>
<stop offset="1" stop-color="white" stop-opacity="0"/>
</linearGradient>
</defs>
</svg>
