<?xml version="1.0" encoding="UTF-8"?>
<svg id="Layer_1" xmlns="http://www.w3.org/2000/svg" xmlns:xlink="http://www.w3.org/1999/xlink" viewBox="0 0 639.87 358.85">
    <path d="M0,97.9v-2.55H2.55v2.55H0Zm7.57,0v-2.55h-2.55v2.55h2.55Zm0,90.33v-2.55h-2.55v2.55h2.55Zm5.02-90.33v-2.55h-2.55v2.55h2.55Zm0,95.35v-2.55h-2.55v2.55h2.55Zm5.02-95.35v-2.55h-2.55v2.55h2.55Zm0,95.35v-2.55h-2.55v2.55h2.55Zm5.02-100.37v-2.55h-2.55v2.55h2.55Zm0,5.02v-2.55h-2.55v2.55h2.55Zm5.02-5.02v-2.55h-2.55v2.55h2.55Zm5.02-35.13v-2.55h-2.55v2.55h2.55Zm0,15.05v-2.55h-2.55v2.55h2.55Zm0,15.06v-2.55h-2.55v2.55h2.55Zm0,5.02v-2.55h-2.55v2.55h2.55Zm5.02-35.13v-2.55h-2.55v2.55h2.55Zm0,10.04v-2.55h-2.55v2.55h2.55Zm0,5.02v-2.55h-2.55v2.55h2.55Zm0,5.02v-2.55h-2.55v2.55h2.55Zm0,10.04v-2.55h-2.55v2.55h2.55Zm5.02-25.09v-2.55h-2.55v2.55h2.55Zm0,5.02v-2.55h-2.55v2.55h2.55Zm0,5.02v-2.55h-2.55v2.55h2.55Zm0,5.02v-2.55h-2.55v2.55h2.55Zm0,10.04v-2.55h-2.55v2.55h2.55Zm5.02-40.15v-2.55h-2.55v2.55h2.55Zm0,5.02v-2.55h-2.55v2.55h2.55Zm0,5.02v-2.55h-2.55v2.55h2.55Zm0,5.02v-2.55h-2.55v2.55h2.55Zm0,5.02v-2.55h-2.55v2.55h2.55Zm0,5.02v-2.55h-2.55v2.55h2.55Zm0,5.02v-2.55h-2.55v2.55h2.55Zm0,5.02v-2.55h-2.55v2.55h2.55Zm5.02-45.16v-2.55h-2.55v2.55h2.55Zm0,5.02v-2.55h-2.55v2.55h2.55Zm0,10.04v-2.55h-2.55v2.55h2.55Zm0,5.02v-2.55h-2.55v2.55h2.55Zm0,5.02v-2.55h-2.55v2.55h2.55Zm0,5.02v-2.55h-2.55v2.55h2.55Zm0,5.02v-2.55h-2.55v2.55h2.55Zm0,5.02v-2.55h-2.55v2.55h2.55Zm5.02-40.14v-2.55h-2.55v2.55h2.55Zm0,5.02v-2.55h-2.55v2.55h2.55Zm0,5.02v-2.55h-2.55v2.55h2.55Zm0,5.02v-2.55h-2.55v2.55h2.55Zm0,5.02v-2.55h-2.55v2.55h2.55Zm0,5.02v-2.55h-2.55v2.55h2.55Zm0,5.02v-2.55h-2.55v2.55h2.55Zm0,5.02v-2.55h-2.55v2.55h2.55Zm0,5.02v-2.55h-2.55v2.55h2.55Zm5.02-40.14v-2.55h-2.55v2.55h2.55Zm0,5.02v-2.55h-2.55v2.55h2.55Zm0,5.02v-2.55h-2.55v2.55h2.55Zm0,5.02v-2.55h-2.55v2.55h2.55Zm0,5.02v-2.55h-2.55v2.55h2.55Zm0,5.02v-2.55h-2.55v2.55h2.55Zm0,5.02v-2.55h-2.55v2.55h2.55Zm0,5.02v-2.55h-2.55v2.55h2.55Zm0,5.02v-2.55h-2.55v2.55h2.55Zm5.02-40.14v-2.55h-2.55v2.55h2.55Zm0,5.02v-2.55h-2.55v2.55h2.55Zm0,5.02v-2.55h-2.55v2.55h2.55Zm0,5.02v-2.55h-2.55v2.55h2.55Zm0,5.02v-2.55h-2.55v2.55h2.55Zm0,5.02v-2.55h-2.55v2.55h2.55Zm0,5.02v-2.55h-2.55v2.55h2.55Zm0,5.02v-2.55h-2.55v2.55h2.55Zm5.02-40.15v-2.55h-2.55v2.55h2.55Zm0,5.02v-2.55h-2.55v2.55h2.55Zm0,5.02v-2.55h-2.55v2.55h2.55Zm0,5.02v-2.55h-2.55v2.55h2.55Zm0,5.02v-2.55h-2.55v2.55h2.55Zm0,5.02v-2.55h-2.55v2.55h2.55Zm0,5.02v-2.55h-2.55v2.55h2.55Zm0,5.02v-2.55h-2.55v2.55h2.55Zm0,5.02v-2.55h-2.55v2.55h2.55Zm0,5.02v-2.55h-2.55v2.55h2.55Zm5.02-45.16v-2.55h-2.55v2.55h2.55Zm0,5.02v-2.55h-2.55v2.55h2.55Zm0,5.02v-2.55h-2.55v2.55h2.55Zm0,5.02v-2.55h-2.55v2.55h2.55Zm0,5.02v-2.55h-2.55v2.55h2.55Zm0,5.02v-2.55h-2.55v2.55h2.55Zm0,5.02v-2.55h-2.55v2.55h2.55Zm0,5.02v-2.55h-2.55v2.55h2.55Zm0,5.02v-2.55h-2.55v2.55h2.55Zm0,5.02v-2.55h-2.55v2.55h2.55Zm0,5.02v-2.55h-2.55v2.55h2.55Zm0,5.02v-2.55h-2.55v2.55h2.55Zm0,60.22v-2.55h-2.55v2.55h2.55Zm5.02-110.4v-2.55h-2.55v2.55h2.55Zm0,5.02v-2.55h-2.55v2.55h2.55Zm0,5.02v-2.55h-2.55v2.55h2.55Zm0,5.02v-2.55h-2.55v2.55h2.55Zm0,5.02v-2.55h-2.55v2.55h2.55Zm0,5.02v-2.55h-2.55v2.55h2.55Zm0,5.02v-2.55h-2.55v2.55h2.55Zm0,5.02v-2.55h-2.55v2.55h2.55Zm0,5.02v-2.55h-2.55v2.55h2.55Zm0,5.02v-2.55h-2.55v2.55h2.55Zm0,5.02v-2.55h-2.55v2.55h2.55Zm0,5.02v-2.55h-2.55v2.55h2.55Zm0,5.02v-2.55h-2.55v2.55h2.55Zm0,5.02v-2.55h-2.55v2.55h2.55Zm0,30.11v-2.55h-2.55v2.55h2.55Zm0,15.05v-2.55h-2.55v2.55h2.55Zm0,5.02v-2.55h-2.55v2.55h2.55Zm5.02-110.4v-2.55h-2.55v2.55h2.55Zm0,5.02v-2.55h-2.55v2.55h2.55Zm0,5.02v-2.55h-2.55v2.55h2.55Zm0,5.02v-2.55h-2.55v2.55h2.55Zm0,5.02v-2.55h-2.55v2.55h2.55Zm0,5.02v-2.55h-2.55v2.55h2.55Zm0,5.02v-2.55h-2.55v2.55h2.55Zm0,5.02v-2.55h-2.55v2.55h2.55Zm0,5.02v-2.55h-2.55v2.55h2.55Zm0,5.02v-2.55h-2.55v2.55h2.55Zm0,5.02v-2.55h-2.55v2.55h2.55Zm0,5.02v-2.55h-2.55v2.55h2.55Zm0,5.02v-2.55h-2.55v2.55h2.55Zm0,5.02v-2.55h-2.55v2.55h2.55Zm0,5.02v-2.55h-2.55v2.55h2.55Zm0,5.02v-2.55h-2.55v2.55h2.55Zm0,15.06v-2.55h-2.55v2.55h2.55Zm0,5.02v-2.55h-2.55v2.55h2.55Zm0,5.02v-2.55h-2.55v2.55h2.55Zm0,5.02v-2.55h-2.55v2.55h2.55Zm0,5.02v-2.55h-2.55v2.55h2.55Zm0,5.02v-2.55h-2.55v2.55h2.55Zm0,10.04v-2.55h-2.55v2.55h2.55Zm0,15.06v-2.55h-2.55v2.55h2.55Zm5.02-140.51v-2.55h-2.55v2.55h2.55Zm0,5.02v-2.55h-2.55v2.55h2.55Zm0,5.02v-2.55h-2.55v2.55h2.55Zm0,5.02v-2.55h-2.55v2.55h2.55Zm0,5.02v-2.55h-2.55v2.55h2.55Zm0,5.02v-2.55h-2.55v2.55h2.55Zm0,5.02v-2.55h-2.55v2.55h2.55Zm0,5.02v-2.55h-2.55v2.55h2.55Zm0,5.02v-2.55h-2.55v2.55h2.55Zm0,5.02v-2.55h-2.55v2.55h2.55Zm0,5.02v-2.55h-2.55v2.55h2.55Zm0,5.02v-2.55h-2.55v2.55h2.55Zm0,5.02v-2.55h-2.55v2.55h2.55Zm0,5.02v-2.55h-2.55v2.55h2.55Zm0,5.02v-2.55h-2.55v2.55h2.55Zm0,5.02v-2.55h-2.55v2.55h2.55Zm0,5.02v-2.55h-2.55v2.55h2.55Zm0,5.02v-2.55h-2.55v2.55h2.55Zm0,5.02v-2.55h-2.55v2.55h2.55Zm0,5.02v-2.55h-2.55v2.55h2.55Zm0,5.02v-2.55h-2.55v2.55h2.55Zm0,5.02v-2.55h-2.55v2.55h2.55Zm0,5.02v-2.55h-2.55v2.55h2.55Zm0,5.02v-2.55h-2.55v2.55h2.55Zm0,5.02v-2.55h-2.55v2.55h2.55Zm0,5.02v-2.55h-2.55v2.55h2.55Zm0,5.02v-2.55h-2.55v2.55h2.55Zm0,5.02v-2.55h-2.55v2.55h2.55Zm0,5.02v-2.55h-2.55v2.55h2.55Zm5.02-135.49v-2.55h-2.55v2.55h2.55Zm0,5.02v-2.55h-2.55v2.55h2.55Zm0,5.02v-2.55h-2.55v2.55h2.55Zm0,5.02v-2.55h-2.55v2.55h2.55Zm0,5.02v-2.55h-2.55v2.55h2.55Zm0,5.02v-2.55h-2.55v2.55h2.55Zm0,5.02v-2.55h-2.55v2.55h2.55Zm0,5.02v-2.55h-2.55v2.55h2.55Zm0,5.02v-2.55h-2.55v2.55h2.55Zm0,5.02v-2.55h-2.55v2.55h2.55Zm0,5.02v-2.55h-2.55v2.55h2.55Zm0,5.02v-2.55h-2.55v2.55h2.55Zm0,5.02v-2.55h-2.55v2.55h2.55Zm0,5.02v-2.55h-2.55v2.55h2.55Zm0,5.02v-2.55h-2.55v2.55h2.55Zm0,5.02v-2.55h-2.55v2.55h2.55Zm0,5.02v-2.55h-2.55v2.55h2.55Zm0,5.02v-2.55h-2.55v2.55h2.55Zm0,5.02v-2.55h-2.55v2.55h2.55Zm0,5.02v-2.55h-2.55v2.55h2.55Zm0,5.02v-2.55h-2.55v2.55h2.55Zm0,5.02v-2.55h-2.55v2.55h2.55Zm0,5.02v-2.55h-2.55v2.55h2.55Zm0,5.02v-2.55h-2.55v2.55h2.55Zm0,5.02v-2.55h-2.55v2.55h2.55Zm0,10.04v-2.55h-2.55v2.55h2.55Zm0,5.02v-2.55h-2.55v2.55h2.55Zm0,5.02v-2.55h-2.55v2.55h2.55Zm5.02-135.49v-2.55h-2.55v2.55h2.55Zm0,5.02v-2.55h-2.55v2.55h2.55Zm0,5.02v-2.55h-2.55v2.55h2.55Zm0,5.02v-2.55h-2.55v2.55h2.55Zm0,5.02v-2.55h-2.55v2.55h2.55Zm0,5.02v-2.55h-2.55v2.55h2.55Zm0,5.02v-2.55h-2.55v2.55h2.55Zm0,5.02v-2.55h-2.55v2.55h2.55Zm0,5.02v-2.55h-2.55v2.55h2.55Zm0,5.02v-2.55h-2.55v2.55h2.55Zm0,5.02v-2.55h-2.55v2.55h2.55Zm0,5.02v-2.55h-2.55v2.55h2.55Zm0,5.02v-2.55h-2.55v2.55h2.55Zm0,5.02v-2.55h-2.55v2.55h2.55Zm0,5.02v-2.55h-2.55v2.55h2.55Zm0,5.02v-2.55h-2.55v2.55h2.55Zm0,5.02v-2.55h-2.55v2.55h2.55Zm0,5.02v-2.55h-2.55v2.55h2.55Zm0,5.02v-2.55h-2.55v2.55h2.55Zm0,5.02v-2.55h-2.55v2.55h2.55Zm0,5.02v-2.55h-2.55v2.55h2.55Zm0,5.02v-2.55h-2.55v2.55h2.55Zm0,5.02v-2.55h-2.55v2.55h2.55Zm0,5.02v-2.55h-2.55v2.55h2.55Zm0,5.02v-2.55h-2.55v2.55h2.55Zm0,5.02v-2.55h-2.55v2.55h2.55Zm0,5.02v-2.55h-2.55v2.55h2.55Zm0,5.02v-2.55h-2.55v2.55h2.55Zm0,5.02v-2.55h-2.55v2.55h2.55Zm5.02-140.51v-2.55h-2.55v2.55h2.55Zm0,5.02v-2.55h-2.55v2.55h2.55Zm0,5.02v-2.55h-2.55v2.55h2.55Zm0,5.02v-2.55h-2.55v2.55h2.55Zm0,5.02v-2.55h-2.55v2.55h2.55Zm0,5.02v-2.55h-2.55v2.55h2.55Zm0,5.02v-2.55h-2.55v2.55h2.55Zm0,5.02v-2.55h-2.55v2.55h2.55Zm0,5.02v-2.55h-2.55v2.55h2.55Zm0,5.02v-2.55h-2.55v2.55h2.55Zm0,5.02v-2.55h-2.55v2.55h2.55Zm0,5.02v-2.55h-2.55v2.55h2.55Zm0,5.02v-2.55h-2.55v2.55h2.55Zm0,5.02v-2.55h-2.55v2.55h2.55Zm0,5.02v-2.55h-2.55v2.55h2.55Zm0,5.02v-2.55h-2.55v2.55h2.55Zm0,5.02v-2.55h-2.55v2.55h2.55Zm0,5.02v-2.55h-2.55v2.55h2.55Zm0,5.02v-2.55h-2.55v2.55h2.55Zm0,5.02v-2.55h-2.55v2.55h2.55Zm0,5.02v-2.55h-2.55v2.55h2.55Zm0,5.02v-2.55h-2.55v2.55h2.55Zm0,5.02v-2.55h-2.55v2.55h2.55Zm0,5.02v-2.55h-2.55v2.55h2.55Zm0,5.02v-2.55h-2.55v2.55h2.55Zm0,5.02v-2.55h-2.55v2.55h2.55Zm0,5.02v-2.55h-2.55v2.55h2.55Zm5.02-135.49v-2.55h-2.55v2.55h2.55Zm0,5.02v-2.55h-2.55v2.55h2.55Zm0,5.02v-2.55h-2.55v2.55h2.55Zm0,10.04v-2.55h-2.55v2.55h2.55Zm0,5.02v-2.55h-2.55v2.55h2.55Zm0,5.02v-2.55h-2.55v2.55h2.55Zm0,5.02v-2.55h-2.55v2.55h2.55Zm0,5.02v-2.55h-2.55v2.55h2.55Zm0,5.02v-2.55h-2.55v2.55h2.55Zm0,5.02v-2.55h-2.55v2.55h2.55Zm0,5.02v-2.55h-2.55v2.55h2.55Zm0,5.02v-2.55h-2.55v2.55h2.55Zm0,5.02v-2.55h-2.55v2.55h2.55Zm0,5.02v-2.55h-2.55v2.55h2.55Zm0,5.02v-2.55h-2.55v2.55h2.55Zm0,5.02v-2.55h-2.55v2.55h2.55Zm0,5.02v-2.55h-2.55v2.55h2.55Zm0,5.02v-2.55h-2.55v2.55h2.55Zm0,5.02v-2.55h-2.55v2.55h2.55Zm0,5.02v-2.55h-2.55v2.55h2.55Zm0,5.02v-2.55h-2.55v2.55h2.55Zm0,5.02v-2.55h-2.55v2.55h2.55Zm0,5.02v-2.55h-2.55v2.55h2.55Zm0,5.02v-2.55h-2.55v2.55h2.55Zm0,5.02v-2.55h-2.55v2.55h2.55Zm0,5.02v-2.55h-2.55v2.55h2.55Zm0,5.02v-2.55h-2.55v2.55h2.55Zm0,5.02v-2.55h-2.55v2.55h2.55Zm0,5.02v-2.55h-2.55v2.55h2.55Zm0,5.02v-2.55h-2.55v2.55h2.55Zm0,5.02v-2.55h-2.55v2.55h2.55Zm5.02-155.57v-2.55h-2.55v2.55h2.55Zm0,5.02v-2.55h-2.55v2.55h2.55Zm0,5.02v-2.55h-2.55v2.55h2.55Zm0,5.02v-2.55h-2.55v2.55h2.55Zm0,10.04v-2.55h-2.55v2.55h2.55Zm0,5.02v-2.55h-2.55v2.55h2.55Zm0,5.02v-2.55h-2.55v2.55h2.55Zm0,5.02v-2.55h-2.55v2.55h2.55Zm0,5.02v-2.55h-2.55v2.55h2.55Zm0,5.02v-2.55h-2.55v2.55h2.55Zm0,5.02v-2.55h-2.55v2.55h2.55Zm0,5.02v-2.55h-2.55v2.55h2.55Zm0,5.02v-2.55h-2.55v2.55h2.55Zm0,5.02v-2.55h-2.55v2.55h2.55Zm0,5.02v-2.55h-2.55v2.55h2.55Zm0,5.02v-2.55h-2.55v2.55h2.55Zm0,5.02v-2.55h-2.55v2.55h2.55Zm0,5.02v-2.55h-2.55v2.55h2.55Zm0,5.02v-2.55h-2.55v2.55h2.55Zm0,5.02v-2.55h-2.55v2.55h2.55Zm0,5.02v-2.55h-2.55v2.55h2.55Zm0,5.02v-2.55h-2.55v2.55h2.55Zm0,5.02v-2.55h-2.55v2.55h2.55Zm0,5.02v-2.55h-2.55v2.55h2.55Zm0,5.02v-2.55h-2.55v2.55h2.55Zm0,5.02v-2.55h-2.55v2.55h2.55Zm0,5.02v-2.55h-2.55v2.55h2.55Zm0,5.02v-2.55h-2.55v2.55h2.55Zm0,5.02v-2.55h-2.55v2.55h2.55Zm0,5.02v-2.55h-2.55v2.55h2.55Zm0,5.02v-2.55h-2.55v2.55h2.55Zm5.02-150.55v-2.55h-2.55v2.55h2.55Zm0,5.02v-2.55h-2.55v2.55h2.55Zm0,5.02v-2.55h-2.55v2.55h2.55Zm0,10.04v-2.55h-2.55v2.55h2.55Zm0,5.02v-2.55h-2.55v2.55h2.55Zm0,10.04v-2.55h-2.55v2.55h2.55Zm0,5.02v-2.55h-2.55v2.55h2.55Zm0,5.02v-2.55h-2.55v2.55h2.55Zm0,5.02v-2.55h-2.55v2.55h2.55Zm0,5.02v-2.55h-2.55v2.55h2.55Zm0,5.02v-2.55h-2.55v2.55h2.55Zm0,5.02v-2.55h-2.55v2.55h2.55Zm0,5.02v-2.55h-2.55v2.55h2.55Zm0,5.02v-2.55h-2.55v2.55h2.55Zm0,5.02v-2.55h-2.55v2.55h2.55Zm0,5.02v-2.55h-2.55v2.55h2.55Zm0,5.02v-2.55h-2.55v2.55h2.55Zm0,5.02v-2.55h-2.55v2.55h2.55Zm0,5.02v-2.55h-2.55v2.55h2.55Zm0,5.02v-2.55h-2.55v2.55h2.55Zm0,5.02v-2.55h-2.55v2.55h2.55Zm0,5.02v-2.55h-2.55v2.55h2.55Zm0,5.02v-2.55h-2.55v2.55h2.55Zm0,5.02v-2.55h-2.55v2.55h2.55Zm0,5.02v-2.55h-2.55v2.55h2.55Zm0,5.02v-2.55h-2.55v2.55h2.55Zm0,5.02v-2.55h-2.55v2.55h2.55Zm0,5.02v-2.55h-2.55v2.55h2.55Zm0,5.02v-2.55h-2.55v2.55h2.55Zm0,5.02v-2.55h-2.55v2.55h2.55Zm5.02-165.6v-2.55h-2.55v2.55h2.55Zm0,15.05v-2.55h-2.55v2.55h2.55Zm0,5.02v-2.55h-2.55v2.55h2.55Zm0,5.02v-2.55h-2.55v2.55h2.55Zm0,5.02v-2.55h-2.55v2.55h2.55Zm0,5.02v-2.55h-2.55v2.55h2.55Zm0,10.04v-2.55h-2.55v2.55h2.55Zm0,5.02v-2.55h-2.55v2.55h2.55Zm0,5.02v-2.55h-2.55v2.55h2.55Zm0,5.02v-2.55h-2.55v2.55h2.55Zm0,5.02v-2.55h-2.55v2.55h2.55Zm0,5.02v-2.55h-2.55v2.55h2.55Zm0,5.02v-2.55h-2.55v2.55h2.55Zm0,5.02v-2.55h-2.55v2.55h2.55Zm0,5.02v-2.55h-2.55v2.55h2.55Zm0,5.02v-2.55h-2.55v2.55h2.55Zm0,5.02v-2.55h-2.55v2.55h2.55Zm0,5.02v-2.55h-2.55v2.55h2.55Zm0,5.02v-2.55h-2.55v2.55h2.55Zm0,5.02v-2.55h-2.55v2.55h2.55Zm0,5.02v-2.55h-2.55v2.55h2.55Zm0,5.02v-2.55h-2.55v2.55h2.55Zm0,5.02v-2.55h-2.55v2.55h2.55Zm0,5.02v-2.55h-2.55v2.55h2.55Zm0,5.02v-2.55h-2.55v2.55h2.55Zm0,5.02v-2.55h-2.55v2.55h2.55Zm0,20.07v-2.55h-2.55v2.55h2.55Zm5.02-165.6v-2.55h-2.55v2.55h2.55Zm0,15.05v-2.55h-2.55v2.55h2.55Zm0,15.06v-2.55h-2.55v2.55h2.55Zm0,5.02v-2.55h-2.55v2.55h2.55Zm0,5.02v-2.55h-2.55v2.55h2.55Zm0,5.02v-2.55h-2.55v2.55h2.55Zm0,5.02v-2.55h-2.55v2.55h2.55Zm0,5.02v-2.55h-2.55v2.55h2.55Zm0,5.02v-2.55h-2.55v2.55h2.55Zm0,5.02v-2.55h-2.55v2.55h2.55Zm0,5.02v-2.55h-2.55v2.55h2.55Zm0,5.02v-2.55h-2.55v2.55h2.55Zm0,5.02v-2.55h-2.55v2.55h2.55Zm0,5.02v-2.55h-2.55v2.55h2.55Zm0,5.02v-2.55h-2.55v2.55h2.55Zm0,5.02v-2.55h-2.55v2.55h2.55Zm0,5.02v-2.55h-2.55v2.55h2.55Zm0,5.02v-2.55h-2.55v2.55h2.55Zm0,5.02v-2.55h-2.55v2.55h2.55Zm0,5.02v-2.55h-2.55v2.55h2.55Zm0,5.02v-2.55h-2.55v2.55h2.55Zm0,5.02v-2.55h-2.55v2.55h2.55Zm0,5.02v-2.55h-2.55v2.55h2.55Zm0,5.02v-2.55h-2.55v2.55h2.55Zm0,5.02v-2.55h-2.55v2.55h2.55Zm0,25.09v-2.55h-2.55v2.55h2.55Zm0,30.11v-2.55h-2.55v2.55h2.55Zm0,5.02v-2.55h-2.55v2.55h2.55Zm5.02-205.75v-2.55h-2.55v2.55h2.55Zm0,5.02v-2.55h-2.55v2.55h2.55Zm0,5.02v-2.55h-2.55v2.55h2.55Zm0,5.02v-2.55h-2.55v2.55h2.55Zm0,5.02v-2.55h-2.55v2.55h2.55Zm0,5.02v-2.55h-2.55v2.55h2.55Zm0,5.02v-2.55h-2.55v2.55h2.55Zm0,5.02v-2.55h-2.55v2.55h2.55Zm0,5.02v-2.55h-2.55v2.55h2.55Zm0,5.02v-2.55h-2.55v2.55h2.55Zm0,5.02v-2.55h-2.55v2.55h2.55Zm0,5.02v-2.55h-2.55v2.55h2.55Zm0,5.02v-2.55h-2.55v2.55h2.55Zm0,5.02v-2.55h-2.55v2.55h2.55Zm0,5.02v-2.55h-2.55v2.55h2.55Zm0,5.02v-2.55h-2.55v2.55h2.55Zm0,5.02v-2.55h-2.55v2.55h2.55Zm0,5.02v-2.55h-2.55v2.55h2.55Zm0,10.04v-2.55h-2.55v2.55h2.55Zm0,5.02v-2.55h-2.55v2.55h2.55Zm0,5.02v-2.55h-2.55v2.55h2.55Zm0,5.02v-2.55h-2.55v2.55h2.55Zm0,5.02v-2.55h-2.55v2.55h2.55Zm0,5.02v-2.55h-2.55v2.55h2.55Zm0,5.02v-2.55h-2.55v2.55h2.55Zm0,5.02v-2.55h-2.55v2.55h2.55Zm0,5.02v-2.55h-2.55v2.55h2.55Zm0,5.02v-2.55h-2.55v2.55h2.55Zm0,25.09v-2.55h-2.55v2.55h2.55Zm0,5.02v-2.55h-2.55v2.55h2.55Zm0,5.02v-2.55h-2.55v2.55h2.55Zm5.02-185.68v-2.55h-2.55v2.55h2.55Zm0,15.06v-2.55h-2.55v2.55h2.55Zm0,5.02v-2.55h-2.55v2.55h2.55Zm0,5.02v-2.55h-2.55v2.55h2.55Zm0,5.02v-2.55h-2.55v2.55h2.55Zm0,5.02v-2.55h-2.55v2.55h2.55Zm0,5.02v-2.55h-2.55v2.55h2.55Zm0,5.02v-2.55h-2.55v2.55h2.55Zm0,5.02v-2.55h-2.55v2.55h2.55Zm0,5.02v-2.55h-2.55v2.55h2.55Zm0,5.02v-2.55h-2.55v2.55h2.55Zm0,5.02v-2.55h-2.55v2.55h2.55Zm0,5.02v-2.55h-2.55v2.55h2.55Zm0,5.02v-2.55h-2.55v2.55h2.55Zm0,5.02v-2.55h-2.55v2.55h2.55Zm0,5.02v-2.55h-2.55v2.55h2.55Zm0,5.02v-2.55h-2.55v2.55h2.55Zm0,5.02v-2.55h-2.55v2.55h2.55Zm0,5.02v-2.55h-2.55v2.55h2.55Zm0,5.02v-2.55h-2.55v2.55h2.55Zm0,5.02v-2.55h-2.55v2.55h2.55Zm0,5.02v-2.55h-2.55v2.55h2.55Zm0,5.02v-2.55h-2.55v2.55h2.55Zm0,5.02v-2.55h-2.55v2.55h2.55Zm0,5.02v-2.55h-2.55v2.55h2.55Zm0,5.02v-2.55h-2.55v2.55h2.55Zm0,5.02v-2.55h-2.55v2.55h2.55Zm0,5.02v-2.55h-2.55v2.55h2.55Zm0,5.02v-2.55h-2.55v2.55h2.55Zm0,20.07v-2.55h-2.55v2.55h2.55Zm0,15.05v-2.55h-2.55v2.55h2.55Zm5.02-190.69v-2.55h-2.55v2.55h2.55Zm0,30.11v-2.55h-2.55v2.55h2.55Zm0,5.02v-2.55h-2.55v2.55h2.55Zm0,15.06v-2.55h-2.55v2.55h2.55Zm0,5.02v-2.55h-2.55v2.55h2.55Zm0,5.02v-2.55h-2.55v2.55h2.55Zm0,5.02v-2.55h-2.55v2.55h2.55Zm0,5.02v-2.55h-2.55v2.55h2.55Zm0,5.02v-2.55h-2.55v2.55h2.55Zm0,5.02v-2.55h-2.55v2.55h2.55Zm0,5.02v-2.55h-2.55v2.55h2.55Zm0,5.02v-2.55h-2.55v2.55h2.55Zm0,5.02v-2.55h-2.55v2.55h2.55Zm0,5.02v-2.55h-2.55v2.55h2.55Zm0,10.04v-2.55h-2.55v2.55h2.55Zm0,10.04v-2.55h-2.55v2.55h2.55Zm0,5.02v-2.55h-2.55v2.55h2.55Zm0,5.02v-2.55h-2.55v2.55h2.55Zm0,5.02v-2.55h-2.55v2.55h2.55Zm0,5.02v-2.55h-2.55v2.55h2.55Zm0,5.02v-2.55h-2.55v2.55h2.55Zm0,5.02v-2.55h-2.55v2.55h2.55Zm0,5.02v-2.55h-2.55v2.55h2.55Zm0,5.02v-2.55h-2.55v2.55h2.55Zm0,15.05v-2.55h-2.55v2.55h2.55Zm0,15.05v-2.55h-2.55v2.55h2.55Zm0,5.02v-2.55h-2.55v2.55h2.55Zm0,5.02v-2.55h-2.55v2.55h2.55Zm5.02-200.73v-2.55h-2.55v2.55h2.55Zm0,10.04v-2.55h-2.55v2.55h2.55Zm0,5.02v-2.55h-2.55v2.55h2.55Zm0,15.05v-2.55h-2.55v2.55h2.55Zm0,10.04v-2.55h-2.55v2.55h2.55Zm0,10.04v-2.55h-2.55v2.55h2.55Zm0,5.02v-2.55h-2.55v2.55h2.55Zm0,10.04v-2.55h-2.55v2.55h2.55Zm0,5.02v-2.55h-2.55v2.55h2.55Zm0,20.07v-2.55h-2.55v2.55h2.55Zm0,5.02v-2.55h-2.55v2.55h2.55Zm0,5.02v-2.55h-2.55v2.55h2.55Zm0,10.04v-2.55h-2.55v2.55h2.55Zm0,20.07v-2.55h-2.55v2.55h2.55Zm0,5.02v-2.55h-2.55v2.55h2.55Zm0,5.02v-2.55h-2.55v2.55h2.55Zm0,5.02v-2.55h-2.55v2.55h2.55Zm0,5.02v-2.55h-2.55v2.55h2.55Zm0,5.02v-2.55h-2.55v2.55h2.55Zm0,5.02v-2.55h-2.55v2.55h2.55Zm0,5.02v-2.55h-2.55v2.55h2.55Zm0,10.04v-2.55h-2.55v2.55h2.55Zm0,25.09v-2.55h-2.55v2.55h2.55Zm5.02-200.73v-2.55h-2.55v2.55h2.55Zm0,15.05v-2.55h-2.55v2.55h2.55Zm0,10.04v-2.55h-2.55v2.55h2.55Zm0,20.07v-2.55h-2.55v2.55h2.55Zm0,5.02v-2.55h-2.55v2.55h2.55Zm0,5.02v-2.55h-2.55v2.55h2.55Zm0,5.02v-2.55h-2.55v2.55h2.55Zm0,5.02v-2.55h-2.55v2.55h2.55Zm0,30.11v-2.55h-2.55v2.55h2.55Zm0,5.02v-2.55h-2.55v2.55h2.55Zm0,5.02v-2.55h-2.55v2.55h2.55Zm0,5.02v-2.55h-2.55v2.55h2.55Zm0,5.02v-2.55h-2.55v2.55h2.55Zm0,5.02v-2.55h-2.55v2.55h2.55Zm0,5.02v-2.55h-2.55v2.55h2.55Zm0,10.04v-2.55h-2.55v2.55h2.55Zm0,5.02v-2.55h-2.55v2.55h2.55Zm0,5.02v-2.55h-2.55v2.55h2.55Zm0,5.02v-2.55h-2.55v2.55h2.55Zm0,5.02v-2.55h-2.55v2.55h2.55Zm0,10.04v-2.55h-2.55v2.55h2.55Zm0,10.04v-2.55h-2.55v2.55h2.55Zm0,5.02v-2.55h-2.55v2.55h2.55Zm0,20.07v-2.55h-2.55v2.55h2.55Zm0,15.05v-2.55h-2.55v2.55h2.55Zm0,5.02v-2.55h-2.55v2.55h2.55Zm0,5.02v-2.55h-2.55v2.55h2.55Zm0,5.02v-2.55h-2.55v2.55h2.55Zm0,5.02v-2.55h-2.55v2.55h2.55Zm5.02-235.86v-2.55h-2.55v2.55h2.55Zm0,10.04v-2.55h-2.55v2.55h2.55Zm0,5.02v-2.55h-2.55v2.55h2.55Zm0,15.05v-2.55h-2.55v2.55h2.55Zm0,20.07v-2.55h-2.55v2.55h2.55Zm0,5.02v-2.55h-2.55v2.55h2.55Zm0,5.02v-2.55h-2.55v2.55h2.55Zm0,35.13v-2.55h-2.55v2.55h2.55Zm0,5.02v-2.55h-2.55v2.55h2.55Zm0,5.02v-2.55h-2.55v2.55h2.55Zm0,5.02v-2.55h-2.55v2.55h2.55Zm0,5.02v-2.55h-2.55v2.55h2.55Zm0,15.05v-2.55h-2.55v2.55h2.55Zm0,5.02v-2.55h-2.55v2.55h2.55Zm0,5.02v-2.55h-2.55v2.55h2.55Zm0,5.02v-2.55h-2.55v2.55h2.55Zm0,5.02v-2.55h-2.55v2.55h2.55Zm0,25.09v-2.55h-2.55v2.55h2.55Zm0,5.02v-2.55h-2.55v2.55h2.55Zm0,20.07v-2.55h-2.55v2.55h2.55Zm0,5.02v-2.55h-2.55v2.55h2.55Zm0,5.02v-2.55h-2.55v2.55h2.55Zm0,5.02v-2.55h-2.55v2.55h2.55Zm0,5.02v-2.55h-2.55v2.55h2.55Zm0,5.02v-2.55h-2.55v2.55h2.55Zm0,5.02v-2.55h-2.55v2.55h2.55Zm0,5.02v-2.55h-2.55v2.55h2.55Zm0,5.02v-2.55h-2.55v2.55h2.55Zm0,5.02v-2.55h-2.55v2.55h2.55Zm5.02-250.91v-2.55h-2.55v2.55h2.55Zm0,30.11v-2.55h-2.55v2.55h2.55Zm0,10.04v-2.55h-2.55v2.55h2.55Zm0,5.02v-2.55h-2.55v2.55h2.55Zm0,10.04v-2.55h-2.55v2.55h2.55Zm0,5.02v-2.55h-2.55v2.55h2.55Zm0,10.04v-2.55h-2.55v2.55h2.55Zm0,45.16v-2.55h-2.55v2.55h2.55Zm0,5.02v-2.55h-2.55v2.55h2.55Zm0,5.02v-2.55h-2.55v2.55h2.55Zm0,10.04v-2.55h-2.55v2.55h2.55Zm0,5.02v-2.55h-2.55v2.55h2.55Zm0,5.02v-2.55h-2.55v2.55h2.55Zm0,5.02v-2.55h-2.55v2.55h2.55Zm0,25.09v-2.55h-2.55v2.55h2.55Zm0,25.09v-2.55h-2.55v2.55h2.55Zm0,5.02v-2.55h-2.55v2.55h2.55Zm0,5.02v-2.55h-2.55v2.55h2.55Zm0,5.02v-2.55h-2.55v2.55h2.55Zm0,5.02v-2.55h-2.55v2.55h2.55Zm0,5.02v-2.55h-2.55v2.55h2.55Zm0,5.02v-2.55h-2.55v2.55h2.55Zm0,5.02v-2.55h-2.55v2.55h2.55Zm0,5.02v-2.55h-2.55v2.55h2.55Zm0,5.02v-2.55h-2.55v2.55h2.55Zm0,5.02v-2.55h-2.55v2.55h2.55Zm0,5.02v-2.55h-2.55v2.55h2.55Zm5.02-240.88v-2.55h-2.55v2.55h2.55Zm0,5.02v-2.55h-2.55v2.55h2.55Zm0,15.05v-2.55h-2.55v2.55h2.55Zm0,25.09v-2.55h-2.55v2.55h2.55Zm0,10.04v-2.55h-2.55v2.55h2.55Zm0,5.02v-2.55h-2.55v2.55h2.55Zm0,30.11v-2.55h-2.55v2.55h2.55Zm0,5.02v-2.55h-2.55v2.55h2.55Zm0,5.02v-2.55h-2.55v2.55h2.55Zm0,5.02v-2.55h-2.55v2.55h2.55Zm0,5.02v-2.55h-2.55v2.55h2.55Zm0,5.02v-2.55h-2.55v2.55h2.55Zm0,5.02v-2.55h-2.55v2.55h2.55Zm0,5.02v-2.55h-2.55v2.55h2.55Zm0,45.16v-2.55h-2.55v2.55h2.55Zm0,5.02v-2.55h-2.55v2.55h2.55Zm0,15.06v-2.55h-2.55v2.55h2.55Zm0,5.02v-2.55h-2.55v2.55h2.55Zm0,5.02v-2.55h-2.55v2.55h2.55Zm0,5.02v-2.55h-2.55v2.55h2.55Zm0,5.02v-2.55h-2.55v2.55h2.55Zm0,5.02v-2.55h-2.55v2.55h2.55Zm0,5.02v-2.55h-2.55v2.55h2.55Zm0,5.02v-2.55h-2.55v2.55h2.55Zm0,5.02v-2.55h-2.55v2.55h2.55Zm0,5.02v-2.55h-2.55v2.55h2.55Zm0,5.02v-2.55h-2.55v2.55h2.55Zm0,5.02v-2.55h-2.55v2.55h2.55Zm0,35.13v-2.55h-2.55v2.55h2.55Zm0,5.02v-2.55h-2.55v2.55h2.55ZM178.19,12.59v-2.55h-2.55v2.55h2.55Zm0,5.02v-2.55h-2.55v2.55h2.55Zm0,15.05v-2.55h-2.55v2.55h2.55Zm0,10.04v-2.55h-2.55v2.55h2.55Zm0,5.02v-2.55h-2.55v2.55h2.55Zm0,5.02v-2.55h-2.55v2.55h2.55Zm0,5.02v-2.55h-2.55v2.55h2.55Zm0,10.04v-2.55h-2.55v2.55h2.55Zm0,5.02v-2.55h-2.55v2.55h2.55Zm0,30.11v-2.55h-2.55v2.55h2.55Zm0,5.02v-2.55h-2.55v2.55h2.55Zm0,5.02v-2.55h-2.55v2.55h2.55Zm0,5.02v-2.55h-2.55v2.55h2.55Zm0,5.02v-2.55h-2.55v2.55h2.55Zm0,5.02v-2.55h-2.55v2.55h2.55Zm0,5.02v-2.55h-2.55v2.55h2.55Zm0,5.02v-2.55h-2.55v2.55h2.55Zm0,5.02v-2.55h-2.55v2.55h2.55Zm0,75.27v-2.55h-2.55v2.55h2.55Zm0,5.02v-2.55h-2.55v2.55h2.55Zm0,5.02v-2.55h-2.55v2.55h2.55Zm0,5.02v-2.55h-2.55v2.55h2.55Zm0,5.02v-2.55h-2.55v2.55h2.55Zm0,5.02v-2.55h-2.55v2.55h2.55Zm0,5.02v-2.55h-2.55v2.55h2.55Zm0,5.02v-2.55h-2.55v2.55h2.55Zm0,5.02v-2.55h-2.55v2.55h2.55Zm0,5.02v-2.55h-2.55v2.55h2.55Zm0,5.02v-2.55h-2.55v2.55h2.55Zm0,5.02v-2.55h-2.55v2.55h2.55Zm0,5.02v-2.55h-2.55v2.55h2.55Zm0,5.02v-2.55h-2.55v2.55h2.55Zm0,5.02v-2.55h-2.55v2.55h2.55Zm0,5.02v-2.55h-2.55v2.55h2.55Zm0,5.02v-2.55h-2.55v2.55h2.55Zm0,5.02v-2.55h-2.55v2.55h2.55Zm0,5.02v-2.55h-2.55v2.55h2.55Zm0,5.02v-2.55h-2.55v2.55h2.55Zm0,5.02v-2.55h-2.55v2.55h2.55Zm0,5.02v-2.55h-2.55v2.55h2.55Zm0,5.02v-2.55h-2.55v2.55h2.55Zm0,5.02v-2.55h-2.55v2.55h2.55Zm0,5.02v-2.55h-2.55v2.55h2.55Zm0,5.02v-2.55h-2.55v2.55h2.55Zm0,5.02v-2.55h-2.55v2.55h2.55Zm5.02-326.19v-2.55h-2.55v2.55h2.55Zm0,10.04v-2.55h-2.55v2.55h2.55Zm0,5.02v-2.55h-2.55v2.55h2.55Zm0,10.04v-2.55h-2.55v2.55h2.55Zm0,5.02v-2.55h-2.55v2.55h2.55Zm0,5.02v-2.55h-2.55v2.55h2.55Zm0,5.02v-2.55h-2.55v2.55h2.55Zm0,20.07v-2.55h-2.55v2.55h2.55Zm0,10.04v-2.55h-2.55v2.55h2.55Zm0,5.02v-2.55h-2.55v2.55h2.55Zm0,5.02v-2.55h-2.55v2.55h2.55Zm0,5.02v-2.55h-2.55v2.55h2.55Zm0,5.02v-2.55h-2.55v2.55h2.55Zm0,5.02v-2.55h-2.55v2.55h2.55Zm0,5.02v-2.55h-2.55v2.55h2.55Zm0,5.02v-2.55h-2.55v2.55h2.55Zm0,10.04v-2.55h-2.55v2.55h2.55Zm0,60.22v-2.55h-2.55v2.55h2.55Zm0,20.07v-2.55h-2.55v2.55h2.55Zm0,5.02v-2.55h-2.55v2.55h2.55Zm0,5.02v-2.55h-2.55v2.55h2.55Zm0,5.02v-2.55h-2.55v2.55h2.55Zm0,5.02v-2.55h-2.55v2.55h2.55Zm0,5.02v-2.55h-2.55v2.55h2.55Zm0,5.02v-2.55h-2.55v2.55h2.55Zm0,5.02v-2.55h-2.55v2.55h2.55Zm0,5.02v-2.55h-2.55v2.55h2.55Zm0,5.02v-2.55h-2.55v2.55h2.55Zm0,5.02v-2.55h-2.55v2.55h2.55Zm0,5.02v-2.55h-2.55v2.55h2.55Zm0,5.02v-2.55h-2.55v2.55h2.55Zm0,5.02v-2.55h-2.55v2.55h2.55Zm0,5.02v-2.55h-2.55v2.55h2.55Zm0,5.02v-2.55h-2.55v2.55h2.55Zm0,5.02v-2.55h-2.55v2.55h2.55Zm0,5.02v-2.55h-2.55v2.55h2.55Zm0,5.02v-2.55h-2.55v2.55h2.55Zm0,5.02v-2.55h-2.55v2.55h2.55Zm0,5.02v-2.55h-2.55v2.55h2.55Zm0,5.02v-2.55h-2.55v2.55h2.55Zm0,5.02v-2.55h-2.55v2.55h2.55Zm0,5.02v-2.55h-2.55v2.55h2.55Zm0,5.02v-2.55h-2.55v2.55h2.55Zm0,5.02v-2.55h-2.55v2.55h2.55Zm0,5.02v-2.55h-2.55v2.55h2.55Zm0,5.02v-2.55h-2.55v2.55h2.55Zm5.02-321.17v-2.55h-2.55v2.55h2.55Zm0,5.02v-2.55h-2.55v2.55h2.55Zm0,15.05v-2.55h-2.55v2.55h2.55Zm0,5.02v-2.55h-2.55v2.55h2.55Zm0,5.02v-2.55h-2.55v2.55h2.55Zm0,10.04v-2.55h-2.55v2.55h2.55Zm0,10.04v-2.55h-2.55v2.55h2.55Zm0,15.05v-2.55h-2.55v2.55h2.55Zm0,5.02v-2.55h-2.55v2.55h2.55Zm0,5.02v-2.55h-2.55v2.55h2.55Zm0,5.02v-2.55h-2.55v2.55h2.55Zm0,5.02v-2.55h-2.55v2.55h2.55Zm0,5.02v-2.55h-2.55v2.55h2.55Zm0,5.02v-2.55h-2.55v2.55h2.55Zm0,5.02v-2.55h-2.55v2.55h2.55Zm0,5.02v-2.55h-2.55v2.55h2.55Zm0,80.29v-2.55h-2.55v2.55h2.55Zm0,5.02v-2.55h-2.55v2.55h2.55Zm0,5.02v-2.55h-2.55v2.55h2.55Zm0,5.02v-2.55h-2.55v2.55h2.55Zm0,5.02v-2.55h-2.55v2.55h2.55Zm0,5.02v-2.55h-2.55v2.55h2.55Zm0,5.02v-2.55h-2.55v2.55h2.55Zm0,5.02v-2.55h-2.55v2.55h2.55Zm0,5.02v-2.55h-2.55v2.55h2.55Zm0,5.02v-2.55h-2.55v2.55h2.55Zm0,5.02v-2.55h-2.55v2.55h2.55Zm0,5.02v-2.55h-2.55v2.55h2.55Zm0,5.02v-2.55h-2.55v2.55h2.55Zm0,5.02v-2.55h-2.55v2.55h2.55Zm0,5.02v-2.55h-2.55v2.55h2.55Zm0,5.02v-2.55h-2.55v2.55h2.55Zm0,5.02v-2.55h-2.55v2.55h2.55Zm0,5.02v-2.55h-2.55v2.55h2.55Zm0,5.02v-2.55h-2.55v2.55h2.55Zm0,5.02v-2.55h-2.55v2.55h2.55Zm0,5.02v-2.55h-2.55v2.55h2.55Zm0,5.02v-2.55h-2.55v2.55h2.55Zm0,5.02v-2.55h-2.55v2.55h2.55Zm0,5.02v-2.55h-2.55v2.55h2.55Zm0,5.02v-2.55h-2.55v2.55h2.55Zm0,15.06v-2.55h-2.55v2.55h2.55Zm0,5.02v-2.55h-2.55v2.55h2.55ZM193.24,12.59v-2.55h-2.55v2.55h2.55Zm0,5.02v-2.55h-2.55v2.55h2.55Zm0,15.05v-2.55h-2.55v2.55h2.55Zm0,5.02v-2.55h-2.55v2.55h2.55Zm0,5.02v-2.55h-2.55v2.55h2.55Zm0,10.04v-2.55h-2.55v2.55h2.55Zm0,5.02v-2.55h-2.55v2.55h2.55Zm0,5.02v-2.55h-2.55v2.55h2.55Zm0,15.05v-2.55h-2.55v2.55h2.55Zm0,5.02v-2.55h-2.55v2.55h2.55Zm0,5.02v-2.55h-2.55v2.55h2.55Zm0,20.07v-2.55h-2.55v2.55h2.55Zm0,5.02v-2.55h-2.55v2.55h2.55Zm0,5.02v-2.55h-2.55v2.55h2.55Zm0,5.02v-2.55h-2.55v2.55h2.55Zm0,20.07v-2.55h-2.55v2.55h2.55Zm0,80.29v-2.55h-2.55v2.55h2.55Zm0,5.02v-2.55h-2.55v2.55h2.55Zm0,5.02v-2.55h-2.55v2.55h2.55Zm0,5.02v-2.55h-2.55v2.55h2.55Zm0,5.02v-2.55h-2.55v2.55h2.55Zm0,5.02v-2.55h-2.55v2.55h2.55Zm0,5.02v-2.55h-2.55v2.55h2.55Zm0,5.02v-2.55h-2.55v2.55h2.55Zm0,5.02v-2.55h-2.55v2.55h2.55Zm0,5.02v-2.55h-2.55v2.55h2.55Zm0,5.02v-2.55h-2.55v2.55h2.55Zm0,5.02v-2.55h-2.55v2.55h2.55Zm0,5.02v-2.55h-2.55v2.55h2.55Zm0,5.02v-2.55h-2.55v2.55h2.55Zm0,5.02v-2.55h-2.55v2.55h2.55Zm0,5.02v-2.55h-2.55v2.55h2.55Zm0,5.02v-2.55h-2.55v2.55h2.55Zm0,5.02v-2.55h-2.55v2.55h2.55Zm0,5.02v-2.55h-2.55v2.55h2.55Zm0,5.02v-2.55h-2.55v2.55h2.55Zm0,35.13v-2.55h-2.55v2.55h2.55Zm0,5.02v-2.55h-2.55v2.55h2.55ZM198.26,7.57v-2.55h-2.55v2.55h2.55Zm0,5.02v-2.55h-2.55v2.55h2.55Zm0,10.04v-2.55h-2.55v2.55h2.55Zm0,10.04v-2.55h-2.55v2.55h2.55Zm0,30.11v-2.55h-2.55v2.55h2.55Zm0,5.02v-2.55h-2.55v2.55h2.55Zm0,5.02v-2.55h-2.55v2.55h2.55Zm0,5.02v-2.55h-2.55v2.55h2.55Zm0,5.02v-2.55h-2.55v2.55h2.55Zm0,5.02v-2.55h-2.55v2.55h2.55Zm0,5.02v-2.55h-2.55v2.55h2.55Zm0,10.04v-2.55h-2.55v2.55h2.55Zm0,5.02v-2.55h-2.55v2.55h2.55Zm0,5.02v-2.55h-2.55v2.55h2.55Zm0,5.02v-2.55h-2.55v2.55h2.55Zm0,5.02v-2.55h-2.55v2.55h2.55Zm0,15.05v-2.55h-2.55v2.55h2.55Zm0,5.02v-2.55h-2.55v2.55h2.55Zm0,85.31v-2.55h-2.55v2.55h2.55Zm0,5.02v-2.55h-2.55v2.55h2.55Zm0,5.02v-2.55h-2.55v2.55h2.55Zm0,5.02v-2.55h-2.55v2.55h2.55Zm0,5.02v-2.55h-2.55v2.55h2.55Zm0,5.02v-2.55h-2.55v2.55h2.55Zm0,5.02v-2.55h-2.55v2.55h2.55Zm0,5.02v-2.55h-2.55v2.55h2.55Zm0,5.02v-2.55h-2.55v2.55h2.55Zm0,5.02v-2.55h-2.55v2.55h2.55Zm0,5.02v-2.55h-2.55v2.55h2.55Zm0,5.02v-2.55h-2.55v2.55h2.55Zm0,5.02v-2.55h-2.55v2.55h2.55Zm0,5.02v-2.55h-2.55v2.55h2.55Zm0,5.02v-2.55h-2.55v2.55h2.55Zm0,5.02v-2.55h-2.55v2.55h2.55Zm0,5.02v-2.55h-2.55v2.55h2.55ZM203.28,7.57v-2.55h-2.55v2.55h2.55Zm0,10.04v-2.55h-2.55v2.55h2.55Zm0,5.02v-2.55h-2.55v2.55h2.55Zm0,5.02v-2.55h-2.55v2.55h2.55Zm0,40.15v-2.55h-2.55v2.55h2.55Zm0,10.04v-2.55h-2.55v2.55h2.55Zm0,40.15v-2.55h-2.55v2.55h2.55Zm0,5.02v-2.55h-2.55v2.55h2.55Zm0,10.04v-2.55h-2.55v2.55h2.55Zm0,95.35v-2.55h-2.55v2.55h2.55Zm0,5.02v-2.55h-2.55v2.55h2.55Zm0,5.02v-2.55h-2.55v2.55h2.55Zm0,5.02v-2.55h-2.55v2.55h2.55Zm0,5.02v-2.55h-2.55v2.55h2.55Zm0,5.02v-2.55h-2.55v2.55h2.55Zm0,5.02v-2.55h-2.55v2.55h2.55Zm0,5.02v-2.55h-2.55v2.55h2.55Zm0,5.02v-2.55h-2.55v2.55h2.55Zm0,5.02v-2.55h-2.55v2.55h2.55Zm0,5.02v-2.55h-2.55v2.55h2.55Zm0,5.02v-2.55h-2.55v2.55h2.55Zm0,5.02v-2.55h-2.55v2.55h2.55Zm0,5.02v-2.55h-2.55v2.55h2.55Zm0,5.02v-2.55h-2.55v2.55h2.55Zm0,5.02v-2.55h-2.55v2.55h2.55Zm0,45.16v-2.55h-2.55v2.55h2.55ZM208.3,2.55V0h-2.55V2.55h2.55Zm0,5.02v-2.55h-2.55v2.55h2.55Zm0,10.04v-2.55h-2.55v2.55h2.55Zm0,5.02v-2.55h-2.55v2.55h2.55Zm0,60.22v-2.55h-2.55v2.55h2.55Zm0,40.15v-2.55h-2.55v2.55h2.55Zm0,10.04v-2.55h-2.55v2.55h2.55Zm0,95.35v-2.55h-2.55v2.55h2.55Zm0,5.02v-2.55h-2.55v2.55h2.55Zm0,5.02v-2.55h-2.55v2.55h2.55Zm0,5.02v-2.55h-2.55v2.55h2.55Zm0,5.02v-2.55h-2.55v2.55h2.55Zm0,5.02v-2.55h-2.55v2.55h2.55Zm0,5.02v-2.55h-2.55v2.55h2.55Zm0,5.02v-2.55h-2.55v2.55h2.55Zm0,5.02v-2.55h-2.55v2.55h2.55Zm0,5.02v-2.55h-2.55v2.55h2.55Zm0,5.02v-2.55h-2.55v2.55h2.55Zm0,5.02v-2.55h-2.55v2.55h2.55Zm0,5.02v-2.55h-2.55v2.55h2.55Zm0,5.02v-2.55h-2.55v2.55h2.55Zm0,5.02v-2.55h-2.55v2.55h2.55ZM213.32,2.55V0h-2.55V2.55h2.55Zm0,5.02v-2.55h-2.55v2.55h2.55Zm0,10.04v-2.55h-2.55v2.55h2.55Zm0,20.07v-2.55h-2.55v2.55h2.55Zm0,200.73v-2.55h-2.55v2.55h2.55Zm0,5.02v-2.55h-2.55v2.55h2.55Zm0,5.02v-2.55h-2.55v2.55h2.55Zm0,5.02v-2.55h-2.55v2.55h2.55Zm0,5.02v-2.55h-2.55v2.55h2.55Zm0,5.02v-2.55h-2.55v2.55h2.55Zm0,5.02v-2.55h-2.55v2.55h2.55Zm0,5.02v-2.55h-2.55v2.55h2.55Zm0,5.02v-2.55h-2.55v2.55h2.55Zm0,5.02v-2.55h-2.55v2.55h2.55Zm0,5.02v-2.55h-2.55v2.55h2.55Zm0,5.02v-2.55h-2.55v2.55h2.55ZM218.34,2.55V0h-2.55V2.55h2.55Zm0,5.02v-2.55h-2.55v2.55h2.55Zm0,5.02v-2.55h-2.55v2.55h2.55Zm0,5.02v-2.55h-2.55v2.55h2.55Zm0,10.04v-2.55h-2.55v2.55h2.55Zm0,5.02v-2.55h-2.55v2.55h2.55Zm0,5.02v-2.55h-2.55v2.55h2.55Zm0,200.73v-2.55h-2.55v2.55h2.55Zm0,5.02v-2.55h-2.55v2.55h2.55Zm0,5.02v-2.55h-2.55v2.55h2.55Zm0,5.02v-2.55h-2.55v2.55h2.55Zm0,5.02v-2.55h-2.55v2.55h2.55Zm0,5.02v-2.55h-2.55v2.55h2.55Zm0,5.02v-2.55h-2.55v2.55h2.55Zm0,5.02v-2.55h-2.55v2.55h2.55Zm0,5.02v-2.55h-2.55v2.55h2.55Zm0,5.02v-2.55h-2.55v2.55h2.55ZM223.35,2.55V0h-2.55V2.55h2.55Zm0,5.02v-2.55h-2.55v2.55h2.55Zm0,5.02v-2.55h-2.55v2.55h2.55Zm0,15.05v-2.55h-2.55v2.55h2.55Zm0,5.02v-2.55h-2.55v2.55h2.55Zm0,5.02v-2.55h-2.55v2.55h2.55Zm0,30.11v-2.55h-2.55v2.55h2.55Zm0,15.05v-2.55h-2.55v2.55h2.55Zm0,160.59v-2.55h-2.55v2.55h2.55Zm0,5.02v-2.55h-2.55v2.55h2.55Zm0,5.02v-2.55h-2.55v2.55h2.55Zm0,5.02v-2.55h-2.55v2.55h2.55Zm0,5.02v-2.55h-2.55v2.55h2.55Zm0,5.02v-2.55h-2.55v2.55h2.55Zm0,5.02v-2.55h-2.55v2.55h2.55Zm0,5.02v-2.55h-2.55v2.55h2.55ZM228.37,2.55V0h-2.55V2.55h2.55Zm0,5.02v-2.55h-2.55v2.55h2.55Zm0,10.04v-2.55h-2.55v2.55h2.55Zm0,5.02v-2.55h-2.55v2.55h2.55Zm0,5.02v-2.55h-2.55v2.55h2.55Zm0,5.02v-2.55h-2.55v2.55h2.55Zm0,5.02v-2.55h-2.55v2.55h2.55Zm0,5.02v-2.55h-2.55v2.55h2.55Zm0,5.02v-2.55h-2.55v2.55h2.55Zm0,5.02v-2.55h-2.55v2.55h2.55Zm0,5.02v-2.55h-2.55v2.55h2.55Zm0,5.02v-2.55h-2.55v2.55h2.55Zm0,5.02v-2.55h-2.55v2.55h2.55Zm0,10.04v-2.55h-2.55v2.55h2.55Zm0,5.02v-2.55h-2.55v2.55h2.55Zm0,5.02v-2.55h-2.55v2.55h2.55Zm0,5.02v-2.55h-2.55v2.55h2.55Zm0,5.02v-2.55h-2.55v2.55h2.55Zm0,145.53v-2.55h-2.55v2.55h2.55Zm0,5.02v-2.55h-2.55v2.55h2.55Zm0,5.02v-2.55h-2.55v2.55h2.55Zm0,5.02v-2.55h-2.55v2.55h2.55Zm0,5.02v-2.55h-2.55v2.55h2.55Zm0,5.02v-2.55h-2.55v2.55h2.55Zm0,5.02v-2.55h-2.55v2.55h2.55Zm0,5.02v-2.55h-2.55v2.55h2.55ZM233.39,7.57v-2.55h-2.55v2.55h2.55Zm0,10.04v-2.55h-2.55v2.55h2.55Zm0,5.02v-2.55h-2.55v2.55h2.55Zm0,5.02v-2.55h-2.55v2.55h2.55Zm0,5.02v-2.55h-2.55v2.55h2.55Zm0,5.02v-2.55h-2.55v2.55h2.55Zm0,5.02v-2.55h-2.55v2.55h2.55Zm0,5.02v-2.55h-2.55v2.55h2.55Zm0,5.02v-2.55h-2.55v2.55h2.55Zm0,5.02v-2.55h-2.55v2.55h2.55Zm0,5.02v-2.55h-2.55v2.55h2.55Zm0,5.02v-2.55h-2.55v2.55h2.55Zm0,5.02v-2.55h-2.55v2.55h2.55Zm0,5.02v-2.55h-2.55v2.55h2.55Zm0,5.02v-2.55h-2.55v2.55h2.55Zm0,5.02v-2.55h-2.55v2.55h2.55Zm0,5.02v-2.55h-2.55v2.55h2.55Zm0,5.02v-2.55h-2.55v2.55h2.55Zm0,145.53v-2.55h-2.55v2.55h2.55Zm0,5.02v-2.55h-2.55v2.55h2.55Zm0,5.02v-2.55h-2.55v2.55h2.55Zm0,5.02v-2.55h-2.55v2.55h2.55Zm5.02-245.9v-2.55h-2.55v2.55h2.55Zm0,5.02v-2.55h-2.55v2.55h2.55Zm0,5.02v-2.55h-2.55v2.55h2.55Zm0,5.02v-2.55h-2.55v2.55h2.55Zm0,5.02v-2.55h-2.55v2.55h2.55Zm0,5.02v-2.55h-2.55v2.55h2.55Zm0,5.02v-2.55h-2.55v2.55h2.55Zm0,5.02v-2.55h-2.55v2.55h2.55Zm0,5.02v-2.55h-2.55v2.55h2.55Zm0,5.02v-2.55h-2.55v2.55h2.55Zm0,5.02v-2.55h-2.55v2.55h2.55Zm0,5.02v-2.55h-2.55v2.55h2.55Zm0,5.02v-2.55h-2.55v2.55h2.55Zm0,5.02v-2.55h-2.55v2.55h2.55Zm0,5.02v-2.55h-2.55v2.55h2.55Zm0,5.02v-2.55h-2.55v2.55h2.55Zm0,160.58v-2.55h-2.55v2.55h2.55Zm0,5.02v-2.55h-2.55v2.55h2.55Zm5.02-235.86v-2.55h-2.55v2.55h2.55Zm0,5.02v-2.55h-2.55v2.55h2.55Zm0,5.02v-2.55h-2.55v2.55h2.55Zm0,5.02v-2.55h-2.55v2.55h2.55Zm0,5.02v-2.55h-2.55v2.55h2.55Zm0,5.02v-2.55h-2.55v2.55h2.55Zm0,5.02v-2.55h-2.55v2.55h2.55Zm0,5.02v-2.55h-2.55v2.55h2.55Zm0,5.02v-2.55h-2.55v2.55h2.55Zm0,5.02v-2.55h-2.55v2.55h2.55Zm0,5.02v-2.55h-2.55v2.55h2.55Zm0,5.02v-2.55h-2.55v2.55h2.55Zm0,5.02v-2.55h-2.55v2.55h2.55Zm0,5.02v-2.55h-2.55v2.55h2.55Zm5.02-70.26v-2.55h-2.55v2.55h2.55Zm0,5.02v-2.55h-2.55v2.55h2.55Zm0,5.02v-2.55h-2.55v2.55h2.55Zm0,5.02v-2.55h-2.55v2.55h2.55Zm0,5.02v-2.55h-2.55v2.55h2.55Zm0,5.02v-2.55h-2.55v2.55h2.55Zm0,5.02v-2.55h-2.55v2.55h2.55Zm0,5.02v-2.55h-2.55v2.55h2.55Zm0,5.02v-2.55h-2.55v2.55h2.55Zm0,5.02v-2.55h-2.55v2.55h2.55Zm0,5.02v-2.55h-2.55v2.55h2.55Zm0,5.02v-2.55h-2.55v2.55h2.55Zm0,5.02v-2.55h-2.55v2.55h2.55Zm0,5.02v-2.55h-2.55v2.55h2.55Zm0,5.02v-2.55h-2.55v2.55h2.55Zm5.02-65.24v-2.55h-2.55v2.55h2.55Zm0,5.02v-2.55h-2.55v2.55h2.55Zm0,5.02v-2.55h-2.55v2.55h2.55Zm0,5.02v-2.55h-2.55v2.55h2.55Zm0,5.02v-2.55h-2.55v2.55h2.55Zm0,5.02v-2.55h-2.55v2.55h2.55Zm0,5.02v-2.55h-2.55v2.55h2.55Zm0,5.02v-2.55h-2.55v2.55h2.55Zm0,5.02v-2.55h-2.55v2.55h2.55Zm0,5.02v-2.55h-2.55v2.55h2.55Zm0,5.02v-2.55h-2.55v2.55h2.55Zm0,5.02v-2.55h-2.55v2.55h2.55Zm0,5.02v-2.55h-2.55v2.55h2.55Zm5.02-70.26v-2.55h-2.55v2.55h2.55Zm0,5.02v-2.55h-2.55v2.55h2.55Zm0,5.02v-2.55h-2.55v2.55h2.55Zm0,5.02v-2.55h-2.55v2.55h2.55Zm0,5.02v-2.55h-2.55v2.55h2.55Zm0,5.02v-2.55h-2.55v2.55h2.55Zm0,5.02v-2.55h-2.55v2.55h2.55Zm0,5.02v-2.55h-2.55v2.55h2.55Zm0,5.02v-2.55h-2.55v2.55h2.55Zm0,5.02v-2.55h-2.55v2.55h2.55Zm0,5.02v-2.55h-2.55v2.55h2.55Zm0,5.02v-2.55h-2.55v2.55h2.55Zm0,5.02v-2.55h-2.55v2.55h2.55Zm0,5.02v-2.55h-2.55v2.55h2.55Zm5.02-65.24v-2.55h-2.55v2.55h2.55Zm0,5.02v-2.55h-2.55v2.55h2.55Zm0,5.02v-2.55h-2.55v2.55h2.55Zm0,5.02v-2.55h-2.55v2.55h2.55Zm0,5.02v-2.55h-2.55v2.55h2.55Zm0,5.02v-2.55h-2.55v2.55h2.55Zm0,5.02v-2.55h-2.55v2.55h2.55Zm0,5.02v-2.55h-2.55v2.55h2.55Zm0,5.02v-2.55h-2.55v2.55h2.55Zm0,5.02v-2.55h-2.55v2.55h2.55Zm0,5.02v-2.55h-2.55v2.55h2.55Zm0,5.02v-2.55h-2.55v2.55h2.55Zm0,5.02v-2.55h-2.55v2.55h2.55Zm0,5.02v-2.55h-2.55v2.55h2.55Zm5.02-60.22v-2.55h-2.55v2.55h2.55Zm0,5.02v-2.55h-2.55v2.55h2.55Zm0,5.02v-2.55h-2.55v2.55h2.55Zm0,5.02v-2.55h-2.55v2.55h2.55Zm0,5.02v-2.55h-2.55v2.55h2.55Zm0,5.02v-2.55h-2.55v2.55h2.55Zm0,5.02v-2.55h-2.55v2.55h2.55Zm0,5.02v-2.55h-2.55v2.55h2.55Zm0,5.02v-2.55h-2.55v2.55h2.55Zm0,15.06v-2.55h-2.55v2.55h2.55Zm0,20.07v-2.55h-2.55v2.55h2.55Zm5.02-80.29v-2.55h-2.55v2.55h2.55Zm0,5.02v-2.55h-2.55v2.55h2.55Zm0,5.02v-2.55h-2.55v2.55h2.55Zm0,5.02v-2.55h-2.55v2.55h2.55Zm0,5.02v-2.55h-2.55v2.55h2.55Zm0,5.02v-2.55h-2.55v2.55h2.55Zm0,5.02v-2.55h-2.55v2.55h2.55Zm0,5.02v-2.55h-2.55v2.55h2.55Zm0,10.04v-2.55h-2.55v2.55h2.55Zm0,40.15v-2.55h-2.55v2.55h2.55Zm0,100.37v-2.55h-2.55v2.55h2.55Zm0,5.02v-2.55h-2.55v2.55h2.55Zm0,10.04v-2.55h-2.55v2.55h2.55Zm0,5.02v-2.55h-2.55v2.55h2.55Zm5.02-200.73v-2.55h-2.55v2.55h2.55Zm0,10.04v-2.55h-2.55v2.55h2.55Zm0,5.02v-2.55h-2.55v2.55h2.55Zm0,5.02v-2.55h-2.55v2.55h2.55Zm0,55.2v-2.55h-2.55v2.55h2.55Zm0,100.37v-2.55h-2.55v2.55h2.55Zm0,5.02v-2.55h-2.55v2.55h2.55Zm0,5.02v-2.55h-2.55v2.55h2.55Zm0,5.02v-2.55h-2.55v2.55h2.55Zm0,5.02v-2.55h-2.55v2.55h2.55Zm0,5.02v-2.55h-2.55v2.55h2.55Zm0,5.02v-2.55h-2.55v2.55h2.55Zm5.02-195.71v-2.55h-2.55v2.55h2.55Zm0,160.58v-2.55h-2.55v2.55h2.55Zm0,5.02v-2.55h-2.55v2.55h2.55Zm0,5.02v-2.55h-2.55v2.55h2.55Zm0,5.02v-2.55h-2.55v2.55h2.55Zm0,5.02v-2.55h-2.55v2.55h2.55Zm0,5.02v-2.55h-2.55v2.55h2.55Zm0,5.02v-2.55h-2.55v2.55h2.55Zm0,5.02v-2.55h-2.55v2.55h2.55Zm0,5.02v-2.55h-2.55v2.55h2.55Zm5.02-100.37v-2.55h-2.55v2.55h2.55Zm0,30.11v-2.55h-2.55v2.55h2.55Zm0,5.02v-2.55h-2.55v2.55h2.55Zm0,5.02v-2.55h-2.55v2.55h2.55Zm0,10.03v-2.55h-2.55v2.55h2.55Zm0,5.02v-2.55h-2.55v2.55h2.55Zm0,5.02v-2.55h-2.55v2.55h2.55Zm0,5.02v-2.55h-2.55v2.55h2.55Zm0,5.02v-2.55h-2.55v2.55h2.55Zm0,5.02v-2.55h-2.55v2.55h2.55Zm0,5.02v-2.55h-2.55v2.55h2.55Zm0,5.02v-2.55h-2.55v2.55h2.55Zm0,5.02v-2.55h-2.55v2.55h2.55Zm0,5.02v-2.55h-2.55v2.55h2.55Zm0,5.02v-2.55h-2.55v2.55h2.55Zm0,5.02v-2.55h-2.55v2.55h2.55Zm5.02-115.42v-2.55h-2.55v2.55h2.55Zm0,5.02v-2.55h-2.55v2.55h2.55Zm0,30.11v-2.55h-2.55v2.55h2.55Zm0,5.02v-2.55h-2.55v2.55h2.55Zm0,5.02v-2.55h-2.55v2.55h2.55Zm0,5.02v-2.55h-2.55v2.55h2.55Zm0,5.02v-2.55h-2.55v2.55h2.55Zm0,5.02v-2.55h-2.55v2.55h2.55Zm0,5.02v-2.55h-2.55v2.55h2.55Zm0,5.02v-2.55h-2.55v2.55h2.55Zm0,5.02v-2.55h-2.55v2.55h2.55Zm0,5.02v-2.55h-2.55v2.55h2.55Zm0,5.02v-2.55h-2.55v2.55h2.55Zm0,5.02v-2.55h-2.55v2.55h2.55Zm0,5.02v-2.55h-2.55v2.55h2.55Zm0,5.02v-2.55h-2.55v2.55h2.55Zm0,5.02v-2.55h-2.55v2.55h2.55Zm0,5.02v-2.55h-2.55v2.55h2.55Zm0,5.02v-2.55h-2.55v2.55h2.55Zm5.02-110.4v-2.55h-2.55v2.55h2.55Zm0,5.02v-2.55h-2.55v2.55h2.55Zm0,5.02v-2.55h-2.55v2.55h2.55Zm0,10.04v-2.55h-2.55v2.55h2.55Zm0,10.04v-2.55h-2.55v2.55h2.55Zm0,5.02v-2.55h-2.55v2.55h2.55Zm0,5.02v-2.55h-2.55v2.55h2.55Zm0,5.02v-2.55h-2.55v2.55h2.55Zm0,5.02v-2.55h-2.55v2.55h2.55Zm0,5.02v-2.55h-2.55v2.55h2.55Zm0,5.02v-2.55h-2.55v2.55h2.55Zm0,5.02v-2.55h-2.55v2.55h2.55Zm0,5.02v-2.55h-2.55v2.55h2.55Zm0,5.02v-2.55h-2.55v2.55h2.55Zm0,5.02v-2.55h-2.55v2.55h2.55Zm0,5.02v-2.55h-2.55v2.55h2.55Zm0,5.02v-2.55h-2.55v2.55h2.55Zm0,5.02v-2.55h-2.55v2.55h2.55Zm0,5.02v-2.55h-2.55v2.55h2.55Zm0,5.02v-2.55h-2.55v2.55h2.55Zm0,5.02v-2.55h-2.55v2.55h2.55Zm5.02-100.37v-2.55h-2.55v2.55h2.55Zm0,10.04v-2.55h-2.55v2.55h2.55Zm0,5.02v-2.55h-2.55v2.55h2.55Zm0,5.02v-2.55h-2.55v2.55h2.55Zm0,5.02v-2.55h-2.55v2.55h2.55Zm0,15.05v-2.55h-2.55v2.55h2.55Zm0,5.02v-2.55h-2.55v2.55h2.55Zm0,5.02v-2.55h-2.55v2.55h2.55Zm0,5.02v-2.55h-2.55v2.55h2.55Zm0,5.02v-2.55h-2.55v2.55h2.55Zm0,5.02v-2.55h-2.55v2.55h2.55Zm0,5.02v-2.55h-2.55v2.55h2.55Zm0,5.02v-2.55h-2.55v2.55h2.55Zm0,5.02v-2.55h-2.55v2.55h2.55Zm0,5.02v-2.55h-2.55v2.55h2.55Zm0,5.02v-2.55h-2.55v2.55h2.55Zm5.02-85.31v-2.55h-2.55v2.55h2.55Zm0,5.02v-2.55h-2.55v2.55h2.55Zm0,5.02v-2.55h-2.55v2.55h2.55Zm0,5.02v-2.55h-2.55v2.55h2.55Zm0,20.07v-2.55h-2.55v2.55h2.55Zm0,5.02v-2.55h-2.55v2.55h2.55Zm0,5.02v-2.55h-2.55v2.55h2.55Zm0,5.02v-2.55h-2.55v2.55h2.55Zm0,5.02v-2.55h-2.55v2.55h2.55Zm0,5.02v-2.55h-2.55v2.55h2.55Zm0,5.02v-2.55h-2.55v2.55h2.55Zm0,5.02v-2.55h-2.55v2.55h2.55Zm0,5.02v-2.55h-2.55v2.55h2.55Zm0,5.02v-2.55h-2.55v2.55h2.55Zm0,5.02v-2.55h-2.55v2.55h2.55Zm5.02-115.42v-2.55h-2.55v2.55h2.55Zm0,5.02v-2.55h-2.55v2.55h2.55Zm0,20.07v-2.55h-2.55v2.55h2.55Zm0,5.02v-2.55h-2.55v2.55h2.55Zm0,5.02v-2.55h-2.55v2.55h2.55Zm0,5.02v-2.55h-2.55v2.55h2.55Zm0,5.02v-2.55h-2.55v2.55h2.55Zm0,15.06v-2.55h-2.55v2.55h2.55Zm0,5.02v-2.55h-2.55v2.55h2.55Zm0,5.02v-2.55h-2.55v2.55h2.55Zm0,5.02v-2.55h-2.55v2.55h2.55Zm0,5.02v-2.55h-2.55v2.55h2.55Zm0,5.02v-2.55h-2.55v2.55h2.55Zm0,5.02v-2.55h-2.55v2.55h2.55Zm0,5.02v-2.55h-2.55v2.55h2.55Zm0,5.02v-2.55h-2.55v2.55h2.55Zm0,5.02v-2.55h-2.55v2.55h2.55Zm0,5.02v-2.55h-2.55v2.55h2.55Zm0,5.02v-2.55h-2.55v2.55h2.55Zm0,5.02v-2.55h-2.55v2.55h2.55Zm5.02-190.69v-2.55h-2.55v2.55h2.55Zm0,65.24v-2.55h-2.55v2.55h2.55Zm0,5.02v-2.55h-2.55v2.55h2.55Zm0,5.02v-2.55h-2.55v2.55h2.55Zm0,15.05v-2.55h-2.55v2.55h2.55Zm0,5.02v-2.55h-2.55v2.55h2.55Zm0,5.02v-2.55h-2.55v2.55h2.55Zm0,5.02v-2.55h-2.55v2.55h2.55Zm0,5.02v-2.55h-2.55v2.55h2.55Zm0,5.02v-2.55h-2.55v2.55h2.55Zm0,5.02v-2.55h-2.55v2.55h2.55Zm0,10.04v-2.55h-2.55v2.55h2.55Zm0,5.02v-2.55h-2.55v2.55h2.55Zm0,5.02v-2.55h-2.55v2.55h2.55Zm0,5.02v-2.55h-2.55v2.55h2.55Zm0,5.02v-2.55h-2.55v2.55h2.55Zm0,5.02v-2.55h-2.55v2.55h2.55Zm0,5.02v-2.55h-2.55v2.55h2.55Zm0,5.02v-2.55h-2.55v2.55h2.55Zm0,5.02v-2.55h-2.55v2.55h2.55Zm0,5.02v-2.55h-2.55v2.55h2.55Zm0,5.02v-2.55h-2.55v2.55h2.55Zm0,5.02v-2.55h-2.55v2.55h2.55Zm0,5.02v-2.55h-2.55v2.55h2.55Zm5.02-190.69v-2.55h-2.55v2.55h2.55Zm0,5.02v-2.55h-2.55v2.55h2.55Zm0,5.02v-2.55h-2.55v2.55h2.55Zm0,45.16v-2.55h-2.55v2.55h2.55Zm0,5.02v-2.55h-2.55v2.55h2.55Zm0,5.02v-2.55h-2.55v2.55h2.55Zm0,5.02v-2.55h-2.55v2.55h2.55Zm0,5.02v-2.55h-2.55v2.55h2.55Zm0,5.02v-2.55h-2.55v2.55h2.55Zm-5.02,5.02v-2.55h-2.55v2.55h2.55Zm5.02,5.02v-2.55h-2.55v2.55h2.55Zm0,5.02v-2.55h-2.55v2.55h2.55Zm0,5.02v-2.55h-2.55v2.55h2.55Zm0,5.02v-2.55h-2.55v2.55h2.55Zm0,5.02v-2.55h-2.55v2.55h2.55Zm0,5.02v-2.55h-2.55v2.55h2.55Zm0,25.09v-2.55h-2.55v2.55h2.55Zm0,5.02v-2.55h-2.55v2.55h2.55Zm0,5.02v-2.55h-2.55v2.55h2.55Zm0,5.02v-2.55h-2.55v2.55h2.55Zm0,5.02v-2.55h-2.55v2.55h2.55Zm0,5.02v-2.55h-2.55v2.55h2.55Zm0,5.02v-2.55h-2.55v2.55h2.55Zm0,5.02v-2.55h-2.55v2.55h2.55Zm0,5.02v-2.55h-2.55v2.55h2.55Zm0,5.02v-2.55h-2.55v2.55h2.55Zm0,5.02v-2.55h-2.55v2.55h2.55Zm0,5.02v-2.55h-2.55v2.55h2.55Zm0,5.02v-2.55h-2.55v2.55h2.55Zm0,5.02v-2.55h-2.55v2.55h2.55Zm0,5.02v-2.55h-2.55v2.55h2.55Zm5.02-215.79v-2.55h-2.55v2.55h2.55Zm0,10.04v-2.55h-2.55v2.55h2.55Zm0,45.16v-2.55h-2.55v2.55h2.55Zm0,5.02v-2.55h-2.55v2.55h2.55Zm0,5.02v-2.55h-2.55v2.55h2.55Zm0,5.02v-2.55h-2.55v2.55h2.55Zm0,10.04v-2.55h-2.55v2.55h2.55Zm0,5.02v-2.55h-2.55v2.55h2.55Zm0,10.04v-2.55h-2.55v2.55h2.55Zm0,5.02v-2.55h-2.55v2.55h2.55Zm0,5.02v-2.55h-2.55v2.55h2.55Zm0,5.02v-2.55h-2.55v2.55h2.55Zm0,15.06v-2.55h-2.55v2.55h2.55Zm0,10.04v-2.55h-2.55v2.55h2.55Zm0,10.03v-2.55h-2.55v2.55h2.55Zm0,5.02v-2.55h-2.55v2.55h2.55Zm0,5.02v-2.55h-2.55v2.55h2.55Zm0,5.02v-2.55h-2.55v2.55h2.55Zm0,5.02v-2.55h-2.55v2.55h2.55Zm0,5.02v-2.55h-2.55v2.55h2.55Zm0,5.02v-2.55h-2.55v2.55h2.55Zm0,5.02v-2.55h-2.55v2.55h2.55Zm0,5.02v-2.55h-2.55v2.55h2.55Zm0,5.02v-2.55h-2.55v2.55h2.55Zm0,5.02v-2.55h-2.55v2.55h2.55Zm0,5.02v-2.55h-2.55v2.55h2.55Zm0,5.02v-2.55h-2.55v2.55h2.55Zm0,5.02v-2.55h-2.55v2.55h2.55Zm0,5.02v-2.55h-2.55v2.55h2.55Zm0,5.02v-2.55h-2.55v2.55h2.55Zm0,5.02v-2.55h-2.55v2.55h2.55Zm0,10.04v-2.55h-2.55v2.55h2.55Zm0,5.02v-2.55h-2.55v2.55h2.55Zm0,5.02v-2.55h-2.55v2.55h2.55Zm5.02-245.9v-2.55h-2.55v2.55h2.55Zm0,50.18v-2.55h-2.55v2.55h2.55Zm0,5.02v-2.55h-2.55v2.55h2.55Zm0,5.02v-2.55h-2.55v2.55h2.55Zm0,35.13v-2.55h-2.55v2.55h2.55Zm0,5.02v-2.55h-2.55v2.55h2.55Zm0,5.02v-2.55h-2.55v2.55h2.55Zm0,5.02v-2.55h-2.55v2.55h2.55Zm0,5.02v-2.55h-2.55v2.55h2.55Zm0,15.06v-2.55h-2.55v2.55h2.55Zm0,5.02v-2.55h-2.55v2.55h2.55Zm0,15.05v-2.55h-2.55v2.55h2.55Zm0,5.02v-2.55h-2.55v2.55h2.55Zm0,5.02v-2.55h-2.55v2.55h2.55Zm0,5.02v-2.55h-2.55v2.55h2.55Zm0,5.02v-2.55h-2.55v2.55h2.55Zm0,5.02v-2.55h-2.55v2.55h2.55Zm0,5.02v-2.55h-2.55v2.55h2.55Zm0,5.02v-2.55h-2.55v2.55h2.55Zm0,5.02v-2.55h-2.55v2.55h2.55Zm0,5.02v-2.55h-2.55v2.55h2.55Zm0,5.02v-2.55h-2.55v2.55h2.55Zm0,5.02v-2.55h-2.55v2.55h2.55Zm0,5.02v-2.55h-2.55v2.55h2.55Zm0,5.02v-2.55h-2.55v2.55h2.55Zm0,5.02v-2.55h-2.55v2.55h2.55Zm0,5.02v-2.55h-2.55v2.55h2.55Zm0,5.02v-2.55h-2.55v2.55h2.55Zm0,5.02v-2.55h-2.55v2.55h2.55Zm0,5.02v-2.55h-2.55v2.55h2.55Zm0,5.02v-2.55h-2.55v2.55h2.55Zm0,5.02v-2.55h-2.55v2.55h2.55Zm0,5.02v-2.55h-2.55v2.55h2.55Zm0,5.02v-2.55h-2.55v2.55h2.55Zm5.02-215.79v-2.55h-2.55v2.55h2.55Zm0,5.02v-2.55h-2.55v2.55h2.55Zm0,5.02v-2.55h-2.55v2.55h2.55Zm0,15.05v-2.55h-2.55v2.55h2.55Zm0,5.02v-2.55h-2.55v2.55h2.55Zm0,10.04v-2.55h-2.55v2.55h2.55Zm0,5.02v-2.55h-2.55v2.55h2.55Zm0,5.02v-2.55h-2.55v2.55h2.55Zm0,5.02v-2.55h-2.55v2.55h2.55Zm0,5.02v-2.55h-2.55v2.55h2.55Zm0,5.02v-2.55h-2.55v2.55h2.55Zm0,5.02v-2.55h-2.55v2.55h2.55Zm0,5.02v-2.55h-2.55v2.55h2.55Zm0,5.02v-2.55h-2.55v2.55h2.55Zm0,25.09v-2.55h-2.55v2.55h2.55Zm0,5.02v-2.55h-2.55v2.55h2.55Zm0,5.02v-2.55h-2.55v2.55h2.55Zm0,5.02v-2.55h-2.55v2.55h2.55Zm0,5.02v-2.55h-2.55v2.55h2.55Zm0,5.02v-2.55h-2.55v2.55h2.55Zm0,5.02v-2.55h-2.55v2.55h2.55Zm0,5.02v-2.55h-2.55v2.55h2.55Zm0,5.02v-2.55h-2.55v2.55h2.55Zm0,5.02v-2.55h-2.55v2.55h2.55Zm0,5.02v-2.55h-2.55v2.55h2.55Zm0,5.02v-2.55h-2.55v2.55h2.55Zm0,5.02v-2.55h-2.55v2.55h2.55Zm0,5.02v-2.55h-2.55v2.55h2.55Zm0,5.02v-2.55h-2.55v2.55h2.55Zm0,5.02v-2.55h-2.55v2.55h2.55Zm0,5.02v-2.55h-2.55v2.55h2.55Zm0,5.02v-2.55h-2.55v2.55h2.55Zm0,5.02v-2.55h-2.55v2.55h2.55Zm0,5.02v-2.55h-2.55v2.55h2.55Zm0,5.02v-2.55h-2.55v2.55h2.55Zm0,5.02v-2.55h-2.55v2.55h2.55Zm0,5.02v-2.55h-2.55v2.55h2.55Zm0,5.02v-2.55h-2.55v2.55h2.55Zm0,5.02v-2.55h-2.55v2.55h2.55Zm5.02-225.82v-2.55h-2.55v2.55h2.55Zm0,5.02v-2.55h-2.55v2.55h2.55Zm0,5.02v-2.55h-2.55v2.55h2.55Zm0,5.02v-2.55h-2.55v2.55h2.55Zm0,5.02v-2.55h-2.55v2.55h2.55Zm0,10.04v-2.55h-2.55v2.55h2.55Zm0,5.02v-2.55h-2.55v2.55h2.55Zm0,5.02v-2.55h-2.55v2.55h2.55Zm0,5.02v-2.55h-2.55v2.55h2.55Zm0,5.02v-2.55h-2.55v2.55h2.55Zm0,5.02v-2.55h-2.55v2.55h2.55Zm0,5.02v-2.55h-2.55v2.55h2.55Zm0,5.02v-2.55h-2.55v2.55h2.55Zm0,5.02v-2.55h-2.55v2.55h2.55Zm0,5.02v-2.55h-2.55v2.55h2.55Zm0,5.02v-2.55h-2.55v2.55h2.55Zm0,5.02v-2.55h-2.55v2.55h2.55Zm0,15.05v-2.55h-2.55v2.55h2.55Zm0,5.02v-2.55h-2.55v2.55h2.55Zm0,5.02v-2.55h-2.55v2.55h2.55Zm0,5.02v-2.55h-2.55v2.55h2.55Zm0,5.02v-2.55h-2.55v2.55h2.55Zm0,5.02v-2.55h-2.55v2.55h2.55Zm0,5.02v-2.55h-2.55v2.55h2.55Zm0,5.02v-2.55h-2.55v2.55h2.55Zm0,5.02v-2.55h-2.55v2.55h2.55Zm0,5.02v-2.55h-2.55v2.55h2.55Zm0,5.02v-2.55h-2.55v2.55h2.55Zm0,5.02v-2.55h-2.55v2.55h2.55Zm0,5.02v-2.55h-2.55v2.55h2.55Zm0,5.02v-2.55h-2.55v2.55h2.55Zm0,5.02v-2.55h-2.55v2.55h2.55Zm0,5.02v-2.55h-2.55v2.55h2.55Zm0,5.02v-2.55h-2.55v2.55h2.55Zm0,5.02v-2.55h-2.55v2.55h2.55Zm0,5.02v-2.55h-2.55v2.55h2.55Zm0,5.02v-2.55h-2.55v2.55h2.55Zm0,5.02v-2.55h-2.55v2.55h2.55Zm0,5.02v-2.55h-2.55v2.55h2.55Zm0,5.02v-2.55h-2.55v2.55h2.55Zm0,5.02v-2.55h-2.55v2.55h2.55Zm0,5.02v-2.55h-2.55v2.55h2.55Zm0,5.02v-2.55h-2.55v2.55h2.55Zm0,5.02v-2.55h-2.55v2.55h2.55Zm5.02-230.84v-2.55h-2.55v2.55h2.55Zm0,5.02v-2.55h-2.55v2.55h2.55Zm0,5.02v-2.55h-2.55v2.55h2.55Zm0,5.02v-2.55h-2.55v2.55h2.55Zm0,5.02v-2.55h-2.55v2.55h2.55Zm0,10.04v-2.55h-2.55v2.55h2.55Zm0,5.02v-2.55h-2.55v2.55h2.55Zm0,5.02v-2.55h-2.55v2.55h2.55Zm0,5.02v-2.55h-2.55v2.55h2.55Zm0,5.02v-2.55h-2.55v2.55h2.55Zm0,5.02v-2.55h-2.55v2.55h2.55Zm0,5.02v-2.55h-2.55v2.55h2.55Zm0,5.02v-2.55h-2.55v2.55h2.55Zm0,5.02v-2.55h-2.55v2.55h2.55Zm0,5.02v-2.55h-2.55v2.55h2.55Zm0,5.02v-2.55h-2.55v2.55h2.55Zm0,25.09v-2.55h-2.55v2.55h2.55Zm0,5.02v-2.55h-2.55v2.55h2.55Zm0,5.02v-2.55h-2.55v2.55h2.55Zm0,5.02v-2.55h-2.55v2.55h2.55Zm0,5.02v-2.55h-2.55v2.55h2.55Zm0,5.02v-2.55h-2.55v2.55h2.55Zm0,5.02v-2.55h-2.55v2.55h2.55Zm0,5.02v-2.55h-2.55v2.55h2.55Zm0,5.02v-2.55h-2.55v2.55h2.55Zm0,5.02v-2.55h-2.55v2.55h2.55Zm0,5.02v-2.55h-2.55v2.55h2.55Zm0,5.02v-2.55h-2.55v2.55h2.55Zm0,5.02v-2.55h-2.55v2.55h2.55Zm0,5.02v-2.55h-2.55v2.55h2.55Zm0,5.02v-2.55h-2.55v2.55h2.55Zm0,5.02v-2.55h-2.55v2.55h2.55Zm0,5.02v-2.55h-2.55v2.55h2.55Zm0,5.02v-2.55h-2.55v2.55h2.55Zm0,5.02v-2.55h-2.55v2.55h2.55Zm0,5.02v-2.55h-2.55v2.55h2.55Zm0,5.02v-2.55h-2.55v2.55h2.55Zm0,5.02v-2.55h-2.55v2.55h2.55Zm0,5.02v-2.55h-2.55v2.55h2.55Zm0,5.02v-2.55h-2.55v2.55h2.55Zm0,5.02v-2.55h-2.55v2.55h2.55Zm0,5.02v-2.55h-2.55v2.55h2.55Zm5.02-225.82v-2.55h-2.55v2.55h2.55Zm0,5.02v-2.55h-2.55v2.55h2.55Zm0,10.04v-2.55h-2.55v2.55h2.55Zm0,5.02v-2.55h-2.55v2.55h2.55Zm0,10.04v-2.55h-2.55v2.55h2.55Zm0,5.02v-2.55h-2.55v2.55h2.55Zm0,5.02v-2.55h-2.55v2.55h2.55Zm0,5.02v-2.55h-2.55v2.55h2.55Zm0,5.02v-2.55h-2.55v2.55h2.55Zm0,5.02v-2.55h-2.55v2.55h2.55Zm0,5.02v-2.55h-2.55v2.55h2.55Zm0,5.02v-2.55h-2.55v2.55h2.55Zm0,15.06v-2.55h-2.55v2.55h2.55Zm0,20.07v-2.55h-2.55v2.55h2.55Zm0,5.02v-2.55h-2.55v2.55h2.55Zm0,5.02v-2.55h-2.55v2.55h2.55Zm0,5.02v-2.55h-2.55v2.55h2.55Zm0,5.02v-2.55h-2.55v2.55h2.55Zm0,5.02v-2.55h-2.55v2.55h2.55Zm0,5.02v-2.55h-2.55v2.55h2.55Zm0,5.02v-2.55h-2.55v2.55h2.55Zm0,5.02v-2.55h-2.55v2.55h2.55Zm0,5.02v-2.55h-2.55v2.55h2.55Zm0,5.02v-2.55h-2.55v2.55h2.55Zm0,5.02v-2.55h-2.55v2.55h2.55Zm0,5.02v-2.55h-2.55v2.55h2.55Zm0,5.02v-2.55h-2.55v2.55h2.55Zm0,5.02v-2.55h-2.55v2.55h2.55Zm0,5.02v-2.55h-2.55v2.55h2.55Zm0,5.02v-2.55h-2.55v2.55h2.55Zm0,5.02v-2.55h-2.55v2.55h2.55Zm0,5.02v-2.55h-2.55v2.55h2.55Zm0,5.02v-2.55h-2.55v2.55h2.55Zm0,5.02v-2.55h-2.55v2.55h2.55Zm0,5.02v-2.55h-2.55v2.55h2.55Zm0,5.02v-2.55h-2.55v2.55h2.55Zm0,5.02v-2.55h-2.55v2.55h2.55Zm0,5.02v-2.55h-2.55v2.55h2.55Zm5.02-276.01v-2.55h-2.55v2.55h2.55Zm0,55.2v-2.55h-2.55v2.55h2.55Zm0,5.02v-2.55h-2.55v2.55h2.55Zm0,20.07v-2.55h-2.55v2.55h2.55Zm0,5.02v-2.55h-2.55v2.55h2.55Zm0,5.02v-2.55h-2.55v2.55h2.55Zm0,5.02v-2.55h-2.55v2.55h2.55Zm0,5.02v-2.55h-2.55v2.55h2.55Zm0,5.02v-2.55h-2.55v2.55h2.55Zm0,5.02v-2.55h-2.55v2.55h2.55Zm0,5.02v-2.55h-2.55v2.55h2.55Zm0,15.06v-2.55h-2.55v2.55h2.55Zm0,5.02v-2.55h-2.55v2.55h2.55Zm0,20.07v-2.55h-2.55v2.55h2.55Zm0,5.02v-2.55h-2.55v2.55h2.55Zm0,5.02v-2.55h-2.55v2.55h2.55Zm0,5.02v-2.55h-2.55v2.55h2.55Zm0,5.02v-2.55h-2.55v2.55h2.55Zm0,5.02v-2.55h-2.55v2.55h2.55Zm0,5.02v-2.55h-2.55v2.55h2.55Zm0,5.02v-2.55h-2.55v2.55h2.55Zm0,5.02v-2.55h-2.55v2.55h2.55Zm0,5.02v-2.55h-2.55v2.55h2.55Zm0,5.02v-2.55h-2.55v2.55h2.55Zm0,5.02v-2.55h-2.55v2.55h2.55Zm0,5.02v-2.55h-2.55v2.55h2.55Zm0,5.02v-2.55h-2.55v2.55h2.55Zm0,10.04v-2.55h-2.55v2.55h2.55Zm0,5.02v-2.55h-2.55v2.55h2.55Zm0,5.02v-2.55h-2.55v2.55h2.55Zm0,5.02v-2.55h-2.55v2.55h2.55Zm0,5.02v-2.55h-2.55v2.55h2.55Zm0,5.02v-2.55h-2.55v2.55h2.55Zm0,5.02v-2.55h-2.55v2.55h2.55Zm0,5.02v-2.55h-2.55v2.55h2.55Zm5.02-205.75v-2.55h-2.55v2.55h2.55Zm0,10.04v-2.55h-2.55v2.55h2.55Zm0,5.02v-2.55h-2.55v2.55h2.55Zm0,5.02v-2.55h-2.55v2.55h2.55Zm0,10.04v-2.55h-2.55v2.55h2.55Zm0,5.02v-2.55h-2.55v2.55h2.55Zm0,5.02v-2.55h-2.55v2.55h2.55Zm0,5.02v-2.55h-2.55v2.55h2.55Zm0,5.02v-2.55h-2.55v2.55h2.55Zm0,5.02v-2.55h-2.55v2.55h2.55Zm0,5.02v-2.55h-2.55v2.55h2.55Zm0,5.02v-2.55h-2.55v2.55h2.55Zm0,5.02v-2.55h-2.55v2.55h2.55Zm0,5.02v-2.55h-2.55v2.55h2.55Zm0,10.04v-2.55h-2.55v2.55h2.55Zm0,10.04v-2.55h-2.55v2.55h2.55Zm0,5.02v-2.55h-2.55v2.55h2.55Zm0,5.02v-2.55h-2.55v2.55h2.55Zm0,5.02v-2.55h-2.55v2.55h2.55Zm0,5.02v-2.55h-2.55v2.55h2.55Zm0,5.02v-2.55h-2.55v2.55h2.55Zm0,5.02v-2.55h-2.55v2.55h2.55Zm0,5.02v-2.55h-2.55v2.55h2.55Zm0,5.02v-2.55h-2.55v2.55h2.55Zm0,5.02v-2.55h-2.55v2.55h2.55Zm0,5.02v-2.55h-2.55v2.55h2.55Zm0,15.05v-2.55h-2.55v2.55h2.55Zm0,5.02v-2.55h-2.55v2.55h2.55Zm0,5.02v-2.55h-2.55v2.55h2.55Zm0,5.02v-2.55h-2.55v2.55h2.55Zm0,5.02v-2.55h-2.55v2.55h2.55Zm0,5.02v-2.55h-2.55v2.55h2.55Zm0,5.02v-2.55h-2.55v2.55h2.55Zm0,5.02v-2.55h-2.55v2.55h2.55Zm0,5.02v-2.55h-2.55v2.55h2.55Zm5.02-265.97v-2.55h-2.55v2.55h2.55Zm0,5.02v-2.55h-2.55v2.55h2.55Zm0,55.2v-2.55h-2.55v2.55h2.55Zm0,10.04v-2.55h-2.55v2.55h2.55Zm0,5.02v-2.55h-2.55v2.55h2.55Zm0,5.02v-2.55h-2.55v2.55h2.55Zm0,5.02v-2.55h-2.55v2.55h2.55Zm0,5.02v-2.55h-2.55v2.55h2.55Zm0,5.02v-2.55h-2.55v2.55h2.55Zm0,5.02v-2.55h-2.55v2.55h2.55Zm0,5.02v-2.55h-2.55v2.55h2.55Zm0,5.02v-2.55h-2.55v2.55h2.55Zm0,5.02v-2.55h-2.55v2.55h2.55Zm0,5.02v-2.55h-2.55v2.55h2.55Zm0,5.02v-2.55h-2.55v2.55h2.55Zm0,10.04v-2.55h-2.55v2.55h2.55Zm0,5.02v-2.55h-2.55v2.55h2.55Zm0,5.02v-2.55h-2.55v2.55h2.55Zm0,5.02v-2.55h-2.55v2.55h2.55Zm0,5.02v-2.55h-2.55v2.55h2.55Zm0,5.02v-2.55h-2.55v2.55h2.55Zm0,15.05v-2.55h-2.55v2.55h2.55Zm0,5.02v-2.55h-2.55v2.55h2.55Zm0,5.02v-2.55h-2.55v2.55h2.55Zm0,5.02v-2.55h-2.55v2.55h2.55Zm0,5.02v-2.55h-2.55v2.55h2.55Zm0,5.02v-2.55h-2.55v2.55h2.55Zm0,5.02v-2.55h-2.55v2.55h2.55Zm0,5.02v-2.55h-2.55v2.55h2.55Zm0,5.02v-2.55h-2.55v2.55h2.55Zm0,5.02v-2.55h-2.55v2.55h2.55Zm0,5.02v-2.55h-2.55v2.55h2.55Zm0,5.02v-2.55h-2.55v2.55h2.55Zm0,5.02v-2.55h-2.55v2.55h2.55Zm0,10.04v-2.55h-2.55v2.55h2.55Zm0,5.02v-2.55h-2.55v2.55h2.55Zm5.02-255.93v-2.55h-2.55v2.55h2.55Zm0,60.22v-2.55h-2.55v2.55h2.55Zm0,10.04v-2.55h-2.55v2.55h2.55Zm0,5.02v-2.55h-2.55v2.55h2.55Zm0,5.02v-2.55h-2.55v2.55h2.55Zm0,5.02v-2.55h-2.55v2.55h2.55Zm0,5.02v-2.55h-2.55v2.55h2.55Zm0,5.02v-2.55h-2.55v2.55h2.55Zm0,5.02v-2.55h-2.55v2.55h2.55Zm0,5.02v-2.55h-2.55v2.55h2.55Zm0,5.02v-2.55h-2.55v2.55h2.55Zm0,5.02v-2.55h-2.55v2.55h2.55Zm0,5.02v-2.55h-2.55v2.55h2.55Zm0,5.02v-2.55h-2.55v2.55h2.55Zm0,5.02v-2.55h-2.55v2.55h2.55Zm0,15.06v-2.55h-2.55v2.55h2.55Zm0,5.02v-2.55h-2.55v2.55h2.55Zm0,5.02v-2.55h-2.55v2.55h2.55Zm0,5.02v-2.55h-2.55v2.55h2.55Zm0,5.02v-2.55h-2.55v2.55h2.55Zm0,5.02v-2.55h-2.55v2.55h2.55Zm0,20.07v-2.55h-2.55v2.55h2.55Zm0,5.02v-2.55h-2.55v2.55h2.55Zm0,5.02v-2.55h-2.55v2.55h2.55Zm0,5.02v-2.55h-2.55v2.55h2.55Zm0,5.02v-2.55h-2.55v2.55h2.55Zm0,5.02v-2.55h-2.55v2.55h2.55Zm0,5.02v-2.55h-2.55v2.55h2.55Zm0,5.02v-2.55h-2.55v2.55h2.55Zm0,5.02v-2.55h-2.55v2.55h2.55Zm0,5.02v-2.55h-2.55v2.55h2.55Zm0,5.02v-2.55h-2.55v2.55h2.55Zm0,5.02v-2.55h-2.55v2.55h2.55Zm0,5.02v-2.55h-2.55v2.55h2.55Zm5.02-250.91v-2.55h-2.55v2.55h2.55Zm0,35.13v-2.55h-2.55v2.55h2.55Zm0,5.02v-2.55h-2.55v2.55h2.55Zm0,5.02v-2.55h-2.55v2.55h2.55Zm0,5.02v-2.55h-2.55v2.55h2.55Zm0,15.05v-2.55h-2.55v2.55h2.55Zm0,5.02v-2.55h-2.55v2.55h2.55Zm0,5.02v-2.55h-2.55v2.55h2.55Zm0,5.02v-2.55h-2.55v2.55h2.55Zm0,5.02v-2.55h-2.55v2.55h2.55Zm0,5.02v-2.55h-2.55v2.55h2.55Zm0,5.02v-2.55h-2.55v2.55h2.55Zm0,5.02v-2.55h-2.55v2.55h2.55Zm0,5.02v-2.55h-2.55v2.55h2.55Zm0,5.02v-2.55h-2.55v2.55h2.55Zm0,5.02v-2.55h-2.55v2.55h2.55Zm0,5.02v-2.55h-2.55v2.55h2.55Zm0,5.02v-2.55h-2.55v2.55h2.55Zm0,5.02v-2.55h-2.55v2.55h2.55Zm0,5.02v-2.55h-2.55v2.55h2.55Zm0,5.02v-2.55h-2.55v2.55h2.55Zm0,5.02v-2.55h-2.55v2.55h2.55Zm0,5.02v-2.55h-2.55v2.55h2.55Zm0,5.02v-2.55h-2.55v2.55h2.55Zm0,5.02v-2.55h-2.55v2.55h2.55Zm0,5.02v-2.55h-2.55v2.55h2.55Zm0,5.02v-2.55h-2.55v2.55h2.55Zm0,5.02v-2.55h-2.55v2.55h2.55Zm0,5.02v-2.55h-2.55v2.55h2.55Zm0,20.07v-2.55h-2.55v2.55h2.55Zm0,5.02v-2.55h-2.55v2.55h2.55Zm0,5.02v-2.55h-2.55v2.55h2.55Zm0,5.02v-2.55h-2.55v2.55h2.55Zm0,5.02v-2.55h-2.55v2.55h2.55Zm0,30.11v-2.55h-2.55v2.55h2.55Zm5.02-220.8v-2.55h-2.55v2.55h2.55Zm0,5.02v-2.55h-2.55v2.55h2.55Zm0,15.06v-2.55h-2.55v2.55h2.55Zm0,5.02v-2.55h-2.55v2.55h2.55Zm0,10.04v-2.55h-2.55v2.55h2.55Zm0,5.02v-2.55h-2.55v2.55h2.55Zm0,5.02v-2.55h-2.55v2.55h2.55Zm0,5.02v-2.55h-2.55v2.55h2.55Zm0,5.02v-2.55h-2.55v2.55h2.55Zm0,5.02v-2.55h-2.55v2.55h2.55Zm0,5.02v-2.55h-2.55v2.55h2.55Zm0,5.02v-2.55h-2.55v2.55h2.55Zm0,5.02v-2.55h-2.55v2.55h2.55Zm0,5.02v-2.55h-2.55v2.55h2.55Zm0,5.02v-2.55h-2.55v2.55h2.55Zm0,5.02v-2.55h-2.55v2.55h2.55Zm0,5.02v-2.55h-2.55v2.55h2.55Zm0,5.02v-2.55h-2.55v2.55h2.55Zm0,5.02v-2.55h-2.55v2.55h2.55Zm0,5.02v-2.55h-2.55v2.55h2.55Zm0,5.02v-2.55h-2.55v2.55h2.55Zm0,5.02v-2.55h-2.55v2.55h2.55Zm0,5.02v-2.55h-2.55v2.55h2.55Zm0,5.02v-2.55h-2.55v2.55h2.55Zm0,5.02v-2.55h-2.55v2.55h2.55Zm0,5.02v-2.55h-2.55v2.55h2.55Zm0,5.02v-2.55h-2.55v2.55h2.55Zm0,5.02v-2.55h-2.55v2.55h2.55Zm0,5.02v-2.55h-2.55v2.55h2.55Zm0,15.06v-2.55h-2.55v2.55h2.55Zm0,5.02v-2.55h-2.55v2.55h2.55Zm0,5.02v-2.55h-2.55v2.55h2.55Zm0,5.02v-2.55h-2.55v2.55h2.55Zm0,5.02v-2.55h-2.55v2.55h2.55Zm0,45.17v-2.55h-2.55v2.55h2.55Zm0,5.02v-2.55h-2.55v2.55h2.55Zm5.02-245.89v-2.55h-2.55v2.55h2.55Zm0,5.02v-2.55h-2.55v2.55h2.55Zm0,25.09v-2.55h-2.55v2.55h2.55Zm0,10.04v-2.55h-2.55v2.55h2.55Zm0,5.02v-2.55h-2.55v2.55h2.55Zm0,5.02v-2.55h-2.55v2.55h2.55Zm0,5.02v-2.55h-2.55v2.55h2.55Zm0,5.02v-2.55h-2.55v2.55h2.55Zm0,5.02v-2.55h-2.55v2.55h2.55Zm0,5.02v-2.55h-2.55v2.55h2.55Zm0,5.02v-2.55h-2.55v2.55h2.55Zm0,5.02v-2.55h-2.55v2.55h2.55Zm0,5.02v-2.55h-2.55v2.55h2.55Zm0,5.02v-2.55h-2.55v2.55h2.55Zm0,5.02v-2.55h-2.55v2.55h2.55Zm0,5.02v-2.55h-2.55v2.55h2.55Zm0,15.06v-2.55h-2.55v2.55h2.55Zm0,5.02v-2.55h-2.55v2.55h2.55Zm0,5.02v-2.55h-2.55v2.55h2.55Zm0,5.02v-2.55h-2.55v2.55h2.55Zm0,5.02v-2.55h-2.55v2.55h2.55Zm0,5.02v-2.55h-2.55v2.55h2.55Zm0,5.02v-2.55h-2.55v2.55h2.55Zm0,5.02v-2.55h-2.55v2.55h2.55Zm0,5.02v-2.55h-2.55v2.55h2.55Zm0,5.02v-2.55h-2.55v2.55h2.55Zm0,5.02v-2.55h-2.55v2.55h2.55Zm0,5.02v-2.55h-2.55v2.55h2.55Zm0,10.04v-2.55h-2.55v2.55h2.55Zm0,5.02v-2.55h-2.55v2.55h2.55Zm0,50.18v-2.55h-2.55v2.55h2.55Zm0,5.02v-2.55h-2.55v2.55h2.55Zm0,5.02v-2.55h-2.55v2.55h2.55Zm5.02-210.77v-2.55h-2.55v2.55h2.55Zm0,5.02v-2.55h-2.55v2.55h2.55Zm0,5.02v-2.55h-2.55v2.55h2.55Zm0,5.02v-2.55h-2.55v2.55h2.55Zm0,5.02v-2.55h-2.55v2.55h2.55Zm0,5.02v-2.55h-2.55v2.55h2.55Zm0,5.02v-2.55h-2.55v2.55h2.55Zm0,5.02v-2.55h-2.55v2.55h2.55Zm0,5.02v-2.55h-2.55v2.55h2.55Zm0,5.02v-2.55h-2.55v2.55h2.55Zm0,5.02v-2.55h-2.55v2.55h2.55Zm0,5.02v-2.55h-2.55v2.55h2.55Zm0,5.02v-2.55h-2.55v2.55h2.55Zm0,15.05v-2.55h-2.55v2.55h2.55Zm0,15.06v-2.55h-2.55v2.55h2.55Zm0,5.02v-2.55h-2.55v2.55h2.55Zm0,5.02v-2.55h-2.55v2.55h2.55Zm0,15.06v-2.55h-2.55v2.55h2.55Zm0,5.02v-2.55h-2.55v2.55h2.55Zm0,5.02v-2.55h-2.55v2.55h2.55Zm0,5.02v-2.55h-2.55v2.55h2.55Zm0,5.02v-2.55h-2.55v2.55h2.55Zm0,10.04v-2.55h-2.55v2.55h2.55Zm0,5.02v-2.55h-2.55v2.55h2.55Zm0,40.15v-2.55h-2.55v2.55h2.55Zm0,5.02v-2.55h-2.55v2.55h2.55Zm0,5.02v-2.55h-2.55v2.55h2.55Zm5.02-220.81v-2.55h-2.55v2.55h2.55Zm0,10.04v-2.55h-2.55v2.55h2.55Zm0,10.04v-2.55h-2.55v2.55h2.55Zm0,5.02v-2.55h-2.55v2.55h2.55Zm0,5.02v-2.55h-2.55v2.55h2.55Zm0,5.02v-2.55h-2.55v2.55h2.55Zm0,5.02v-2.55h-2.55v2.55h2.55Zm0,5.02v-2.55h-2.55v2.55h2.55Zm0,5.02v-2.55h-2.55v2.55h2.55Zm0,5.02v-2.55h-2.55v2.55h2.55Zm0,5.02v-2.55h-2.55v2.55h2.55Zm0,5.02v-2.55h-2.55v2.55h2.55Zm0,5.02v-2.55h-2.55v2.55h2.55Zm0,5.02v-2.55h-2.55v2.55h2.55Zm0,5.02v-2.55h-2.55v2.55h2.55Zm0,5.02v-2.55h-2.55v2.55h2.55Zm0,5.02v-2.55h-2.55v2.55h2.55Zm0,5.02v-2.55h-2.55v2.55h2.55Zm0,5.02v-2.55h-2.55v2.55h2.55Zm0,10.04v-2.55h-2.55v2.55h2.55Zm0,5.02v-2.55h-2.55v2.55h2.55Zm0,5.02v-2.55h-2.55v2.55h2.55Zm0,5.02v-2.55h-2.55v2.55h2.55Zm0,15.05v-2.55h-2.55v2.55h2.55Zm0,5.02v-2.55h-2.55v2.55h2.55Zm0,5.02v-2.55h-2.55v2.55h2.55Zm0,10.04v-2.55h-2.55v2.55h2.55Zm0,5.02v-2.55h-2.55v2.55h2.55Zm0,50.18v-2.55h-2.55v2.55h2.55Zm5.02-210.77v-2.55h-2.55v2.55h2.55Zm0,5.02v-2.55h-2.55v2.55h2.55Zm0,5.02v-2.55h-2.55v2.55h2.55Zm0,10.04v-2.55h-2.55v2.55h2.55Zm0,5.02v-2.55h-2.55v2.55h2.55Zm0,5.02v-2.55h-2.55v2.55h2.55Zm0,5.02v-2.55h-2.55v2.55h2.55Zm0,5.02v-2.55h-2.55v2.55h2.55Zm0,5.02v-2.55h-2.55v2.55h2.55Zm0,5.02v-2.55h-2.55v2.55h2.55Zm0,5.02v-2.55h-2.55v2.55h2.55Zm0,5.02v-2.55h-2.55v2.55h2.55Zm0,5.02v-2.55h-2.55v2.55h2.55Zm0,5.02v-2.55h-2.55v2.55h2.55Zm0,5.02v-2.55h-2.55v2.55h2.55Zm0,5.02v-2.55h-2.55v2.55h2.55Zm0,5.02v-2.55h-2.55v2.55h2.55Zm0,5.02v-2.55h-2.55v2.55h2.55Zm0,5.02v-2.55h-2.55v2.55h2.55Zm0,5.02v-2.55h-2.55v2.55h2.55Zm0,5.02v-2.55h-2.55v2.55h2.55Zm0,5.02v-2.55h-2.55v2.55h2.55Zm0,5.02v-2.55h-2.55v2.55h2.55Zm0,5.02v-2.55h-2.55v2.55h2.55Zm0,10.04v-2.55h-2.55v2.55h2.55Zm0,5.02v-2.55h-2.55v2.55h2.55Zm0,5.02v-2.55h-2.55v2.55h2.55Zm0,5.02v-2.55h-2.55v2.55h2.55Zm5.02-195.71v-2.55h-2.55v2.55h2.55Zm0,50.18v-2.55h-2.55v2.55h2.55Zm0,15.05v-2.55h-2.55v2.55h2.55Zm0,5.02v-2.55h-2.55v2.55h2.55Zm0,5.02v-2.55h-2.55v2.55h2.55Zm0,5.02v-2.55h-2.55v2.55h2.55Zm0,5.02v-2.55h-2.55v2.55h2.55Zm0,5.02v-2.55h-2.55v2.55h2.55Zm0,5.02v-2.55h-2.55v2.55h2.55Zm0,5.02v-2.55h-2.55v2.55h2.55Zm0,5.02v-2.55h-2.55v2.55h2.55Zm0,5.02v-2.55h-2.55v2.55h2.55Zm0,5.02v-2.55h-2.55v2.55h2.55Zm0,5.02v-2.55h-2.55v2.55h2.55Zm0,5.02v-2.55h-2.55v2.55h2.55Zm0,5.02v-2.55h-2.55v2.55h2.55Zm0,5.02v-2.55h-2.55v2.55h2.55Zm0,5.02v-2.55h-2.55v2.55h2.55Zm0,5.02v-2.55h-2.55v2.55h2.55Zm0,5.02v-2.55h-2.55v2.55h2.55Zm0,5.02v-2.55h-2.55v2.55h2.55Zm0,5.02v-2.55h-2.55v2.55h2.55Zm0,5.02v-2.55h-2.55v2.55h2.55Zm0,5.02v-2.55h-2.55v2.55h2.55Zm0,15.05v-2.55h-2.55v2.55h2.55Zm0,5.02v-2.55h-2.55v2.55h2.55Zm5.02-190.69v-2.55h-2.55v2.55h2.55Zm0,5.02v-2.55h-2.55v2.55h2.55Zm0,35.13v-2.55h-2.55v2.55h2.55Zm0,10.04v-2.55h-2.55v2.55h2.55Zm0,5.02v-2.55h-2.55v2.55h2.55Zm0,10.04v-2.55h-2.55v2.55h2.55Zm0,5.02v-2.55h-2.55v2.55h2.55Zm0,5.02v-2.55h-2.55v2.55h2.55Zm0,5.02v-2.55h-2.55v2.55h2.55Zm0,5.02v-2.55h-2.55v2.55h2.55Zm0,5.02v-2.55h-2.55v2.55h2.55Zm0,5.02v-2.55h-2.55v2.55h2.55Zm0,5.02v-2.55h-2.55v2.55h2.55Zm0,5.02v-2.55h-2.55v2.55h2.55Zm0,5.02v-2.55h-2.55v2.55h2.55Zm0,5.02v-2.55h-2.55v2.55h2.55Zm0,5.02v-2.55h-2.55v2.55h2.55Zm0,5.02v-2.55h-2.55v2.55h2.55Zm0,5.02v-2.55h-2.55v2.55h2.55Zm0,5.02v-2.55h-2.55v2.55h2.55Zm0,5.02v-2.55h-2.55v2.55h2.55Zm0,5.02v-2.55h-2.55v2.55h2.55Zm0,5.02v-2.55h-2.55v2.55h2.55Zm0,5.02v-2.55h-2.55v2.55h2.55Zm0,5.02v-2.55h-2.55v2.55h2.55Zm0,5.02v-2.55h-2.55v2.55h2.55Zm0,5.02v-2.55h-2.55v2.55h2.55Zm0,5.02v-2.55h-2.55v2.55h2.55Zm0,10.04v-2.55h-2.55v2.55h2.55Zm5.02-180.66v-2.55h-2.55v2.55h2.55Zm0,40.15v-2.55h-2.55v2.55h2.55Zm0,5.02v-2.55h-2.55v2.55h2.55Zm0,5.02v-2.55h-2.55v2.55h2.55Zm0,5.02v-2.55h-2.55v2.55h2.55Zm0,10.04v-2.55h-2.55v2.55h2.55Zm0,5.02v-2.55h-2.55v2.55h2.55Zm0,5.02v-2.55h-2.55v2.55h2.55Zm0,5.02v-2.55h-2.55v2.55h2.55Zm0,5.02v-2.55h-2.55v2.55h2.55Zm0,5.02v-2.55h-2.55v2.55h2.55Zm0,5.02v-2.55h-2.55v2.55h2.55Zm0,5.02v-2.55h-2.55v2.55h2.55Zm0,5.02v-2.55h-2.55v2.55h2.55Zm0,5.02v-2.55h-2.55v2.55h2.55Zm0,5.02v-2.55h-2.55v2.55h2.55Zm0,5.02v-2.55h-2.55v2.55h2.55Zm0,5.02v-2.55h-2.55v2.55h2.55Zm0,5.02v-2.55h-2.55v2.55h2.55Zm0,5.02v-2.55h-2.55v2.55h2.55Zm0,5.02v-2.55h-2.55v2.55h2.55Zm0,5.02v-2.55h-2.55v2.55h2.55Zm0,5.02v-2.55h-2.55v2.55h2.55Zm0,5.02v-2.55h-2.55v2.55h2.55Zm0,5.02v-2.55h-2.55v2.55h2.55Zm0,5.02v-2.55h-2.55v2.55h2.55Zm0,5.02v-2.55h-2.55v2.55h2.55Zm0,5.02v-2.55h-2.55v2.55h2.55Zm5.02-150.55v-2.55h-2.55v2.55h2.55Zm0,5.02v-2.55h-2.55v2.55h2.55Zm0,5.02v-2.55h-2.55v2.55h2.55Zm0,5.02v-2.55h-2.55v2.55h2.55Zm0,5.02v-2.55h-2.55v2.55h2.55Zm0,5.02v-2.55h-2.55v2.55h2.55Zm0,5.02v-2.55h-2.55v2.55h2.55Zm0,5.02v-2.55h-2.55v2.55h2.55Zm0,5.02v-2.55h-2.55v2.55h2.55Zm0,5.02v-2.55h-2.55v2.55h2.55Zm0,5.02v-2.55h-2.55v2.55h2.55Zm0,5.02v-2.55h-2.55v2.55h2.55Zm0,5.02v-2.55h-2.55v2.55h2.55Zm0,5.02v-2.55h-2.55v2.55h2.55Zm0,5.02v-2.55h-2.55v2.55h2.55Zm0,5.02v-2.55h-2.55v2.55h2.55Zm0,5.02v-2.55h-2.55v2.55h2.55Zm0,5.02v-2.55h-2.55v2.55h2.55Zm0,5.02v-2.55h-2.55v2.55h2.55Zm0,5.02v-2.55h-2.55v2.55h2.55Zm0,5.02v-2.55h-2.55v2.55h2.55Zm0,5.02v-2.55h-2.55v2.55h2.55Zm0,5.02v-2.55h-2.55v2.55h2.55Zm0,5.02v-2.55h-2.55v2.55h2.55Zm0,5.02v-2.55h-2.55v2.55h2.55Zm0,5.02v-2.55h-2.55v2.55h2.55Zm0,5.02v-2.55h-2.55v2.55h2.55Zm0,5.02v-2.55h-2.55v2.55h2.55Zm0,5.02v-2.55h-2.55v2.55h2.55Zm0,5.02v-2.55h-2.55v2.55h2.55Zm0,5.02v-2.55h-2.55v2.55h2.55Zm5.02-170.62v-2.55h-2.55v2.55h2.55Zm0,15.05v-2.55h-2.55v2.55h2.55Zm0,5.02v-2.55h-2.55v2.55h2.55Zm0,5.02v-2.55h-2.55v2.55h2.55Zm0,5.02v-2.55h-2.55v2.55h2.55Zm0,5.02v-2.55h-2.55v2.55h2.55Zm0,5.02v-2.55h-2.55v2.55h2.55Zm0,5.02v-2.55h-2.55v2.55h2.55Zm0,5.02v-2.55h-2.55v2.55h2.55Zm0,5.02v-2.55h-2.55v2.55h2.55Zm0,5.02v-2.55h-2.55v2.55h2.55Zm0,5.02v-2.55h-2.55v2.55h2.55Zm0,5.02v-2.55h-2.55v2.55h2.55Zm0,5.02v-2.55h-2.55v2.55h2.55Zm0,5.02v-2.55h-2.55v2.55h2.55Zm0,5.02v-2.55h-2.55v2.55h2.55Zm0,5.02v-2.55h-2.55v2.55h2.55Zm0,5.02v-2.55h-2.55v2.55h2.55Zm0,5.02v-2.55h-2.55v2.55h2.55Zm0,5.02v-2.55h-2.55v2.55h2.55Zm0,5.02v-2.55h-2.55v2.55h2.55Zm0,5.02v-2.55h-2.55v2.55h2.55Zm0,5.02v-2.55h-2.55v2.55h2.55Zm0,5.02v-2.55h-2.55v2.55h2.55Zm0,5.02v-2.55h-2.55v2.55h2.55Zm0,5.02v-2.55h-2.55v2.55h2.55Zm0,5.02v-2.55h-2.55v2.55h2.55Zm0,5.02v-2.55h-2.55v2.55h2.55Zm0,5.02v-2.55h-2.55v2.55h2.55Zm0,5.02v-2.55h-2.55v2.55h2.55Zm0,5.02v-2.55h-2.55v2.55h2.55Zm0,5.02v-2.55h-2.55v2.55h2.55Zm0,5.02v-2.55h-2.55v2.55h2.55Zm5.02-170.62v-2.55h-2.55v2.55h2.55Zm0,5.02v-2.55h-2.55v2.55h2.55Zm0,5.02v-2.55h-2.55v2.55h2.55Zm0,5.02v-2.55h-2.55v2.55h2.55Zm0,5.02v-2.55h-2.55v2.55h2.55Zm0,5.02v-2.55h-2.55v2.55h2.55Zm0,5.02v-2.55h-2.55v2.55h2.55Zm0,5.02v-2.55h-2.55v2.55h2.55Zm0,5.02v-2.55h-2.55v2.55h2.55Zm0,5.02v-2.55h-2.55v2.55h2.55Zm0,5.02v-2.55h-2.55v2.55h2.55Zm0,5.02v-2.55h-2.55v2.55h2.55Zm0,5.02v-2.55h-2.55v2.55h2.55Zm0,5.02v-2.55h-2.55v2.55h2.55Zm0,5.02v-2.55h-2.55v2.55h2.55Zm0,5.02v-2.55h-2.55v2.55h2.55Zm0,5.02v-2.55h-2.55v2.55h2.55Zm0,5.02v-2.55h-2.55v2.55h2.55Zm0,5.02v-2.55h-2.55v2.55h2.55Zm0,5.02v-2.55h-2.55v2.55h2.55Zm0,5.02v-2.55h-2.55v2.55h2.55Zm0,5.02v-2.55h-2.55v2.55h2.55Zm0,5.02v-2.55h-2.55v2.55h2.55Zm0,5.02v-2.55h-2.55v2.55h2.55Zm0,5.02v-2.55h-2.55v2.55h2.55Zm0,5.02v-2.55h-2.55v2.55h2.55Zm0,5.02v-2.55h-2.55v2.55h2.55Zm0,5.02v-2.55h-2.55v2.55h2.55Zm0,5.02v-2.55h-2.55v2.55h2.55Zm0,5.02v-2.55h-2.55v2.55h2.55Zm0,5.02v-2.55h-2.55v2.55h2.55Zm0,5.02v-2.55h-2.55v2.55h2.55Zm0,5.02v-2.55h-2.55v2.55h2.55Zm0,5.02v-2.55h-2.55v2.55h2.55Zm0,5.02v-2.55h-2.55v2.55h2.55Zm0,5.02v-2.55h-2.55v2.55h2.55Zm5.02-165.6v-2.55h-2.55v2.55h2.55Zm0,5.02v-2.55h-2.55v2.55h2.55Zm0,5.02v-2.55h-2.55v2.55h2.55Zm0,5.02v-2.55h-2.55v2.55h2.55Zm0,5.02v-2.55h-2.55v2.55h2.55Zm0,5.02v-2.55h-2.55v2.55h2.55Zm0,5.02v-2.55h-2.55v2.55h2.55Zm0,5.02v-2.55h-2.55v2.55h2.55Zm0,5.02v-2.55h-2.55v2.55h2.55Zm0,5.02v-2.55h-2.55v2.55h2.55Zm0,5.02v-2.55h-2.55v2.55h2.55Zm0,5.02v-2.55h-2.55v2.55h2.55Zm0,5.02v-2.55h-2.55v2.55h2.55Zm0,5.02v-2.55h-2.55v2.55h2.55Zm0,5.02v-2.55h-2.55v2.55h2.55Zm0,5.02v-2.55h-2.55v2.55h2.55Zm0,5.02v-2.55h-2.55v2.55h2.55Zm0,5.02v-2.55h-2.55v2.55h2.55Zm0,5.02v-2.55h-2.55v2.55h2.55Zm0,5.02v-2.55h-2.55v2.55h2.55Zm0,5.02v-2.55h-2.55v2.55h2.55Zm0,5.02v-2.55h-2.55v2.55h2.55Zm0,5.02v-2.55h-2.55v2.55h2.55Zm0,5.02v-2.55h-2.55v2.55h2.55Zm0,5.02v-2.55h-2.55v2.55h2.55Zm0,5.02v-2.55h-2.55v2.55h2.55Zm0,5.02v-2.55h-2.55v2.55h2.55Zm0,5.02v-2.55h-2.55v2.55h2.55Zm0,5.02v-2.55h-2.55v2.55h2.55Zm0,5.02v-2.55h-2.55v2.55h2.55Zm0,5.02v-2.55h-2.55v2.55h2.55Zm0,5.02v-2.55h-2.55v2.55h2.55Zm0,5.02v-2.55h-2.55v2.55h2.55Zm0,5.02v-2.55h-2.55v2.55h2.55Zm0,5.02v-2.55h-2.55v2.55h2.55Zm5.02-175.64v-2.55h-2.55v2.55h2.55Zm0,5.02v-2.55h-2.55v2.55h2.55Zm0,5.02v-2.55h-2.55v2.55h2.55Zm0,5.02v-2.55h-2.55v2.55h2.55Zm0,5.02v-2.55h-2.55v2.55h2.55Zm0,5.02v-2.55h-2.55v2.55h2.55Zm0,5.02v-2.55h-2.55v2.55h2.55Zm0,5.02v-2.55h-2.55v2.55h2.55Zm0,5.02v-2.55h-2.55v2.55h2.55Zm0,5.02v-2.55h-2.55v2.55h2.55Zm0,5.02v-2.55h-2.55v2.55h2.55Zm0,5.02v-2.55h-2.55v2.55h2.55Zm0,5.02v-2.55h-2.55v2.55h2.55Zm0,5.02v-2.55h-2.55v2.55h2.55Zm0,5.02v-2.55h-2.55v2.55h2.55Zm0,5.02v-2.55h-2.55v2.55h2.55Zm0,5.02v-2.55h-2.55v2.55h2.55Zm0,5.02v-2.55h-2.55v2.55h2.55Zm0,5.02v-2.55h-2.55v2.55h2.55Zm0,5.02v-2.55h-2.55v2.55h2.55Zm0,5.02v-2.55h-2.55v2.55h2.55Zm0,5.02v-2.55h-2.55v2.55h2.55Zm0,5.02v-2.55h-2.55v2.55h2.55Zm0,5.02v-2.55h-2.55v2.55h2.55Zm0,5.02v-2.55h-2.55v2.55h2.55Zm0,5.02v-2.55h-2.55v2.55h2.55Zm0,5.02v-2.55h-2.55v2.55h2.55Zm0,5.02v-2.55h-2.55v2.55h2.55Zm0,5.02v-2.55h-2.55v2.55h2.55Zm0,5.02v-2.55h-2.55v2.55h2.55Zm0,5.02v-2.55h-2.55v2.55h2.55Zm0,5.02v-2.55h-2.55v2.55h2.55Zm0,5.02v-2.55h-2.55v2.55h2.55Zm0,5.02v-2.55h-2.55v2.55h2.55Zm0,5.02v-2.55h-2.55v2.55h2.55Zm0,5.02v-2.55h-2.55v2.55h2.55Zm0,5.02v-2.55h-2.55v2.55h2.55Zm0,5.02v-2.55h-2.55v2.55h2.55Zm5.02-185.68v-2.55h-2.55v2.55h2.55Zm0,5.02v-2.55h-2.55v2.55h2.55Zm0,5.02v-2.55h-2.55v2.55h2.55Zm0,5.02v-2.55h-2.55v2.55h2.55Zm0,10.04v-2.55h-2.55v2.55h2.55Zm0,5.02v-2.55h-2.55v2.55h2.55Zm0,5.02v-2.55h-2.55v2.55h2.55Zm0,5.02v-2.55h-2.55v2.55h2.55Zm0,5.02v-2.55h-2.55v2.55h2.55Zm0,5.02v-2.55h-2.55v2.55h2.55Zm0,5.02v-2.55h-2.55v2.55h2.55Zm0,5.02v-2.55h-2.55v2.55h2.55Zm0,5.02v-2.55h-2.55v2.55h2.55Zm0,5.02v-2.55h-2.55v2.55h2.55Zm0,5.02v-2.55h-2.55v2.55h2.55Zm0,5.02v-2.55h-2.55v2.55h2.55Zm0,5.02v-2.55h-2.55v2.55h2.55Zm0,5.02v-2.55h-2.55v2.55h2.55Zm0,5.02v-2.55h-2.55v2.55h2.55Zm0,5.02v-2.55h-2.55v2.55h2.55Zm0,5.02v-2.55h-2.55v2.55h2.55Zm0,5.02v-2.55h-2.55v2.55h2.55Zm0,5.02v-2.55h-2.55v2.55h2.55Zm0,5.02v-2.55h-2.55v2.55h2.55Zm0,5.02v-2.55h-2.55v2.55h2.55Zm0,5.02v-2.55h-2.55v2.55h2.55Zm0,5.02v-2.55h-2.55v2.55h2.55Zm0,5.02v-2.55h-2.55v2.55h2.55Zm0,5.02v-2.55h-2.55v2.55h2.55Zm0,5.02v-2.55h-2.55v2.55h2.55Zm0,5.02v-2.55h-2.55v2.55h2.55Zm0,5.02v-2.55h-2.55v2.55h2.55Zm0,5.02v-2.55h-2.55v2.55h2.55Zm0,5.02v-2.55h-2.55v2.55h2.55Zm0,5.02v-2.55h-2.55v2.55h2.55Zm0,5.02v-2.55h-2.55v2.55h2.55Zm0,5.02v-2.55h-2.55v2.55h2.55Zm0,5.02v-2.55h-2.55v2.55h2.55Zm5.02-185.68v-2.55h-2.55v2.55h2.55Zm0,5.02v-2.55h-2.55v2.55h2.55Zm0,15.05v-2.55h-2.55v2.55h2.55Zm0,5.02v-2.55h-2.55v2.55h2.55Zm0,5.02v-2.55h-2.55v2.55h2.55Zm0,5.02v-2.55h-2.55v2.55h2.55Zm0,5.02v-2.55h-2.55v2.55h2.55Zm0,5.02v-2.55h-2.55v2.55h2.55Zm0,5.02v-2.55h-2.55v2.55h2.55Zm0,5.02v-2.55h-2.55v2.55h2.55Zm0,5.02v-2.55h-2.55v2.55h2.55Zm0,5.02v-2.55h-2.55v2.55h2.55Zm0,5.02v-2.55h-2.55v2.55h2.55Zm0,5.02v-2.55h-2.55v2.55h2.55Zm0,5.02v-2.55h-2.55v2.55h2.55Zm0,5.02v-2.55h-2.55v2.55h2.55Zm0,5.02v-2.55h-2.55v2.55h2.55Zm0,5.02v-2.55h-2.55v2.55h2.55Zm0,5.02v-2.55h-2.55v2.55h2.55Zm0,5.02v-2.55h-2.55v2.55h2.55Zm0,5.02v-2.55h-2.55v2.55h2.55Zm0,5.02v-2.55h-2.55v2.55h2.55Zm0,5.02v-2.55h-2.55v2.55h2.55Zm0,5.02v-2.55h-2.55v2.55h2.55Zm0,5.02v-2.55h-2.55v2.55h2.55Zm0,5.02v-2.55h-2.55v2.55h2.55Zm0,5.02v-2.55h-2.55v2.55h2.55Zm0,5.02v-2.55h-2.55v2.55h2.55Zm0,5.02v-2.55h-2.55v2.55h2.55Zm0,5.02v-2.55h-2.55v2.55h2.55Zm0,5.02v-2.55h-2.55v2.55h2.55Zm0,5.02v-2.55h-2.55v2.55h2.55Zm0,5.02v-2.55h-2.55v2.55h2.55Zm0,5.02v-2.55h-2.55v2.55h2.55Zm0,10.04v-2.55h-2.55v2.55h2.55Zm0,5.02v-2.55h-2.55v2.55h2.55Zm5.02-175.64v-2.55h-2.55v2.55h2.55Zm0,5.02v-2.55h-2.55v2.55h2.55Zm0,5.02v-2.55h-2.55v2.55h2.55Zm0,5.02v-2.55h-2.55v2.55h2.55Zm0,5.02v-2.55h-2.55v2.55h2.55Zm0,5.02v-2.55h-2.55v2.55h2.55Zm0,5.02v-2.55h-2.55v2.55h2.55Zm0,5.02v-2.55h-2.55v2.55h2.55Zm0,5.02v-2.55h-2.55v2.55h2.55Zm0,5.02v-2.55h-2.55v2.55h2.55Zm0,5.02v-2.55h-2.55v2.55h2.55Zm0,5.02v-2.55h-2.55v2.55h2.55Zm0,5.02v-2.55h-2.55v2.55h2.55Zm0,5.02v-2.55h-2.55v2.55h2.55Zm0,5.02v-2.55h-2.55v2.55h2.55Zm0,5.02v-2.55h-2.55v2.55h2.55Zm0,5.02v-2.55h-2.55v2.55h2.55Zm0,5.02v-2.55h-2.55v2.55h2.55Zm0,5.02v-2.55h-2.55v2.55h2.55Zm0,5.02v-2.55h-2.55v2.55h2.55Zm0,5.02v-2.55h-2.55v2.55h2.55Zm0,5.02v-2.55h-2.55v2.55h2.55Zm0,5.02v-2.55h-2.55v2.55h2.55Zm0,5.02v-2.55h-2.55v2.55h2.55Zm0,5.02v-2.55h-2.55v2.55h2.55Zm0,5.02v-2.55h-2.55v2.55h2.55Zm0,5.02v-2.55h-2.55v2.55h2.55Zm0,5.02v-2.55h-2.55v2.55h2.55Zm0,5.02v-2.55h-2.55v2.55h2.55Zm0,5.02v-2.55h-2.55v2.55h2.55Zm0,5.02v-2.55h-2.55v2.55h2.55Zm0,5.02v-2.55h-2.55v2.55h2.55Zm0,20.07v-2.55h-2.55v2.55h2.55Zm0,5.02v-2.55h-2.55v2.55h2.55Zm5.02-185.68v-2.55h-2.55v2.55h2.55Zm0,5.02v-2.55h-2.55v2.55h2.55Zm0,5.02v-2.55h-2.55v2.55h2.55Zm0,5.02v-2.55h-2.55v2.55h2.55Zm0,5.02v-2.55h-2.55v2.55h2.55Zm0,5.02v-2.55h-2.55v2.55h2.55Zm0,5.02v-2.55h-2.55v2.55h2.55Zm0,5.02v-2.55h-2.55v2.55h2.55Zm0,5.02v-2.55h-2.55v2.55h2.55Zm0,5.02v-2.55h-2.55v2.55h2.55Zm0,5.02v-2.55h-2.55v2.55h2.55Zm0,5.02v-2.55h-2.55v2.55h2.55Zm0,5.02v-2.55h-2.55v2.55h2.55Zm0,5.02v-2.55h-2.55v2.55h2.55Zm0,5.02v-2.55h-2.55v2.55h2.55Zm0,5.02v-2.55h-2.55v2.55h2.55Zm0,5.02v-2.55h-2.55v2.55h2.55Zm0,5.02v-2.55h-2.55v2.55h2.55Zm0,5.02v-2.55h-2.55v2.55h2.55Zm0,5.02v-2.55h-2.55v2.55h2.55Zm0,5.02v-2.55h-2.55v2.55h2.55Zm0,5.02v-2.55h-2.55v2.55h2.55Zm0,5.02v-2.55h-2.55v2.55h2.55Zm0,5.02v-2.55h-2.55v2.55h2.55Zm0,5.02v-2.55h-2.55v2.55h2.55Zm0,5.02v-2.55h-2.55v2.55h2.55Zm0,5.02v-2.55h-2.55v2.55h2.55Zm0,5.02v-2.55h-2.55v2.55h2.55Zm0,5.02v-2.55h-2.55v2.55h2.55Zm0,5.02v-2.55h-2.55v2.55h2.55Zm0,5.02v-2.55h-2.55v2.55h2.55Zm0,5.02v-2.55h-2.55v2.55h2.55Zm5.02-150.55v-2.55h-2.55v2.55h2.55Zm0,5.02v-2.55h-2.55v2.55h2.55Zm0,5.02v-2.55h-2.55v2.55h2.55Zm0,5.02v-2.55h-2.55v2.55h2.55Zm0,5.02v-2.55h-2.55v2.55h2.55Zm0,5.02v-2.55h-2.55v2.55h2.55Zm0,5.02v-2.55h-2.55v2.55h2.55Zm0,5.02v-2.55h-2.55v2.55h2.55Zm0,5.02v-2.55h-2.55v2.55h2.55Zm0,5.02v-2.55h-2.55v2.55h2.55Zm0,5.02v-2.55h-2.55v2.55h2.55Zm0,5.02v-2.55h-2.55v2.55h2.55Zm0,5.02v-2.55h-2.55v2.55h2.55Zm0,5.02v-2.55h-2.55v2.55h2.55Zm0,5.02v-2.55h-2.55v2.55h2.55Zm0,5.02v-2.55h-2.55v2.55h2.55Zm0,5.02v-2.55h-2.55v2.55h2.55Zm0,5.02v-2.55h-2.55v2.55h2.55Zm0,5.02v-2.55h-2.55v2.55h2.55Zm0,5.02v-2.55h-2.55v2.55h2.55Zm0,5.02v-2.55h-2.55v2.55h2.55Zm0,5.02v-2.55h-2.55v2.55h2.55Zm0,5.02v-2.55h-2.55v2.55h2.55Zm0,5.02v-2.55h-2.55v2.55h2.55Zm0,5.02v-2.55h-2.55v2.55h2.55Zm0,5.02v-2.55h-2.55v2.55h2.55Zm0,5.02v-2.55h-2.55v2.55h2.55Zm0,5.02v-2.55h-2.55v2.55h2.55Zm0,5.02v-2.55h-2.55v2.55h2.55Zm0,5.02v-2.55h-2.55v2.55h2.55Zm0,5.02v-2.55h-2.55v2.55h2.55Zm5.02-155.56v-2.55h-2.55v2.55h2.55Zm0,5.02v-2.55h-2.55v2.55h2.55Zm0,5.02v-2.55h-2.55v2.55h2.55Zm0,5.02v-2.55h-2.55v2.55h2.55Zm0,5.02v-2.55h-2.55v2.55h2.55Zm0,5.02v-2.55h-2.55v2.55h2.55Zm0,5.02v-2.55h-2.55v2.55h2.55Zm0,5.02v-2.55h-2.55v2.55h2.55Zm0,5.02v-2.55h-2.55v2.55h2.55Zm0,5.02v-2.55h-2.55v2.55h2.55Zm0,5.02v-2.55h-2.55v2.55h2.55Zm0,5.02v-2.55h-2.55v2.55h2.55Zm0,5.02v-2.55h-2.55v2.55h2.55Zm0,5.02v-2.55h-2.55v2.55h2.55Zm0,5.02v-2.55h-2.55v2.55h2.55Zm0,5.02v-2.55h-2.55v2.55h2.55Zm0,5.02v-2.55h-2.55v2.55h2.55Zm0,10.04v-2.55h-2.55v2.55h2.55Zm0,5.02v-2.55h-2.55v2.55h2.55Zm0,5.02v-2.55h-2.55v2.55h2.55Zm0,5.02v-2.55h-2.55v2.55h2.55Zm0,5.02v-2.55h-2.55v2.55h2.55Zm0,5.02v-2.55h-2.55v2.55h2.55Zm0,5.02v-2.55h-2.55v2.55h2.55Zm0,5.02v-2.55h-2.55v2.55h2.55Zm0,5.02v-2.55h-2.55v2.55h2.55Zm0,5.02v-2.55h-2.55v2.55h2.55Zm0,5.02v-2.55h-2.55v2.55h2.55Zm0,5.02v-2.55h-2.55v2.55h2.55Zm0,5.02v-2.55h-2.55v2.55h2.55Zm0,5.02v-2.55h-2.55v2.55h2.55Zm5.02-155.56v-2.55h-2.55v2.55h2.55Zm0,5.02v-2.55h-2.55v2.55h2.55Zm0,5.02v-2.55h-2.55v2.55h2.55Zm0,5.02v-2.55h-2.55v2.55h2.55Zm0,5.02v-2.55h-2.55v2.55h2.55Zm0,5.02v-2.55h-2.55v2.55h2.55Zm0,5.02v-2.55h-2.55v2.55h2.55Zm0,5.02v-2.55h-2.55v2.55h2.55Zm0,5.02v-2.55h-2.55v2.55h2.55Zm0,5.02v-2.55h-2.55v2.55h2.55Zm0,5.02v-2.55h-2.55v2.55h2.55Zm0,5.02v-2.55h-2.55v2.55h2.55Zm0,5.02v-2.55h-2.55v2.55h2.55Zm0,5.02v-2.55h-2.55v2.55h2.55Zm0,5.02v-2.55h-2.55v2.55h2.55Zm0,5.02v-2.55h-2.55v2.55h2.55Zm0,5.02v-2.55h-2.55v2.55h2.55Zm0,10.04v-2.55h-2.55v2.55h2.55Zm0,5.02v-2.55h-2.55v2.55h2.55Zm0,5.02v-2.55h-2.55v2.55h2.55Zm0,5.02v-2.55h-2.55v2.55h2.55Zm0,5.02v-2.55h-2.55v2.55h2.55Zm0,5.02v-2.55h-2.55v2.55h2.55Zm0,5.02v-2.55h-2.55v2.55h2.55Zm0,5.02v-2.55h-2.55v2.55h2.55Zm0,5.02v-2.55h-2.55v2.55h2.55Zm0,5.02v-2.55h-2.55v2.55h2.55Zm0,5.02v-2.55h-2.55v2.55h2.55Zm0,5.02v-2.55h-2.55v2.55h2.55Zm0,5.02v-2.55h-2.55v2.55h2.55Zm0,5.02v-2.55h-2.55v2.55h2.55Zm0,5.02v-2.55h-2.55v2.55h2.55Zm0,5.02v-2.55h-2.55v2.55h2.55Zm5.02-185.68v-2.55h-2.55v2.55h2.55Zm0,20.07v-2.55h-2.55v2.55h2.55Zm0,5.02v-2.55h-2.55v2.55h2.55Zm0,5.02v-2.55h-2.55v2.55h2.55Zm0,5.02v-2.55h-2.55v2.55h2.55Zm0,5.02v-2.55h-2.55v2.55h2.55Zm0,5.02v-2.55h-2.55v2.55h2.55Zm0,5.02v-2.55h-2.55v2.55h2.55Zm0,5.02v-2.55h-2.55v2.55h2.55Zm0,5.02v-2.55h-2.55v2.55h2.55Zm0,5.02v-2.55h-2.55v2.55h2.55Zm0,5.02v-2.55h-2.55v2.55h2.55Zm0,5.02v-2.55h-2.55v2.55h2.55Zm0,5.02v-2.55h-2.55v2.55h2.55Zm0,5.02v-2.55h-2.55v2.55h2.55Zm0,5.02v-2.55h-2.55v2.55h2.55Zm0,5.02v-2.55h-2.55v2.55h2.55Zm0,10.04v-2.55h-2.55v2.55h2.55Zm0,5.02v-2.55h-2.55v2.55h2.55Zm0,5.02v-2.55h-2.55v2.55h2.55Zm0,5.02v-2.55h-2.55v2.55h2.55Zm0,5.02v-2.55h-2.55v2.55h2.55Zm0,5.02v-2.55h-2.55v2.55h2.55Zm0,5.02v-2.55h-2.55v2.55h2.55Zm0,5.02v-2.55h-2.55v2.55h2.55Zm0,5.02v-2.55h-2.55v2.55h2.55Zm0,5.02v-2.55h-2.55v2.55h2.55Zm0,5.02v-2.55h-2.55v2.55h2.55Zm0,5.02v-2.55h-2.55v2.55h2.55Zm0,5.02v-2.55h-2.55v2.55h2.55Zm0,5.02v-2.55h-2.55v2.55h2.55Zm0,5.02v-2.55h-2.55v2.55h2.55Zm0,5.02v-2.55h-2.55v2.55h2.55Zm0,5.02v-2.55h-2.55v2.55h2.55Zm0,25.09v-2.55h-2.55v2.55h2.55Zm0,5.02v-2.55h-2.55v2.55h2.55Zm5.02-220.8v-2.55h-2.55v2.55h2.55Zm0,5.02v-2.55h-2.55v2.55h2.55Zm0,25.09v-2.55h-2.55v2.55h2.55Zm0,5.02v-2.55h-2.55v2.55h2.55Zm0,5.02v-2.55h-2.55v2.55h2.55Zm0,5.02v-2.55h-2.55v2.55h2.55Zm0,5.02v-2.55h-2.55v2.55h2.55Zm0,5.02v-2.55h-2.55v2.55h2.55Zm0,5.02v-2.55h-2.55v2.55h2.55Zm0,5.02v-2.55h-2.55v2.55h2.55Zm0,5.02v-2.55h-2.55v2.55h2.55Zm0,5.02v-2.55h-2.55v2.55h2.55Zm0,5.02v-2.55h-2.55v2.55h2.55Zm0,5.02v-2.55h-2.55v2.55h2.55Zm0,5.02v-2.55h-2.55v2.55h2.55Zm0,5.02v-2.55h-2.55v2.55h2.55Zm0,5.02v-2.55h-2.55v2.55h2.55Zm0,5.02v-2.55h-2.55v2.55h2.55Zm0,5.02v-2.55h-2.55v2.55h2.55Zm0,5.02v-2.55h-2.55v2.55h2.55Zm0,5.02v-2.55h-2.55v2.55h2.55Zm0,5.02v-2.55h-2.55v2.55h2.55Zm0,5.02v-2.55h-2.55v2.55h2.55Zm0,5.02v-2.55h-2.55v2.55h2.55Zm0,5.02v-2.55h-2.55v2.55h2.55Zm0,5.02v-2.55h-2.55v2.55h2.55Zm0,5.02v-2.55h-2.55v2.55h2.55Zm0,5.02v-2.55h-2.55v2.55h2.55Zm0,5.02v-2.55h-2.55v2.55h2.55Zm0,5.02v-2.55h-2.55v2.55h2.55Zm0,5.02v-2.55h-2.55v2.55h2.55Zm0,5.02v-2.55h-2.55v2.55h2.55Zm0,5.02v-2.55h-2.55v2.55h2.55Zm0,5.02v-2.55h-2.55v2.55h2.55Zm0,5.02v-2.55h-2.55v2.55h2.55Zm0,10.04v-2.55h-2.55v2.55h2.55Zm0,5.02v-2.55h-2.55v2.55h2.55Zm0,15.05v-2.55h-2.55v2.55h2.55Zm0,5.02v-2.55h-2.55v2.55h2.55Zm5.02-220.8v-2.55h-2.55v2.55h2.55Zm0,5.02v-2.55h-2.55v2.55h2.55Zm0,25.09v-2.55h-2.55v2.55h2.55Zm0,5.02v-2.55h-2.55v2.55h2.55Zm0,5.02v-2.55h-2.55v2.55h2.55Zm0,5.02v-2.55h-2.55v2.55h2.55Zm0,5.02v-2.55h-2.55v2.55h2.55Zm0,5.02v-2.55h-2.55v2.55h2.55Zm0,5.02v-2.55h-2.55v2.55h2.55Zm0,5.02v-2.55h-2.55v2.55h2.55Zm0,5.02v-2.55h-2.55v2.55h2.55Zm0,5.02v-2.55h-2.55v2.55h2.55Zm0,5.02v-2.55h-2.55v2.55h2.55Zm0,5.02v-2.55h-2.55v2.55h2.55Zm0,5.02v-2.55h-2.55v2.55h2.55Zm0,5.02v-2.55h-2.55v2.55h2.55Zm0,5.02v-2.55h-2.55v2.55h2.55Zm0,5.02v-2.55h-2.55v2.55h2.55Zm0,5.02v-2.55h-2.55v2.55h2.55Zm0,5.02v-2.55h-2.55v2.55h2.55Zm0,5.02v-2.55h-2.55v2.55h2.55Zm0,5.02v-2.55h-2.55v2.55h2.55Zm0,5.02v-2.55h-2.55v2.55h2.55Zm0,5.02v-2.55h-2.55v2.55h2.55Zm0,5.02v-2.55h-2.55v2.55h2.55Zm0,5.02v-2.55h-2.55v2.55h2.55Zm0,5.02v-2.55h-2.55v2.55h2.55Zm0,5.02v-2.55h-2.55v2.55h2.55Zm0,5.02v-2.55h-2.55v2.55h2.55Zm0,5.02v-2.55h-2.55v2.55h2.55Zm0,5.02v-2.55h-2.55v2.55h2.55Zm0,5.02v-2.55h-2.55v2.55h2.55Zm0,5.02v-2.55h-2.55v2.55h2.55Zm0,5.02v-2.55h-2.55v2.55h2.55Zm0,5.02v-2.55h-2.55v2.55h2.55Zm0,5.02v-2.55h-2.55v2.55h2.55Zm0,10.04v-2.55h-2.55v2.55h2.55Zm0,5.02v-2.55h-2.55v2.55h2.55Zm0,5.02v-2.55h-2.55v2.55h2.55Zm0,5.02v-2.55h-2.55v2.55h2.55Zm0,5.02v-2.55h-2.55v2.55h2.55Zm5.02-230.84v-2.55h-2.55v2.55h2.55Zm0,25.09v-2.55h-2.55v2.55h2.55Zm0,5.02v-2.55h-2.55v2.55h2.55Zm0,5.02v-2.55h-2.55v2.55h2.55Zm0,5.02v-2.55h-2.55v2.55h2.55Zm0,5.02v-2.55h-2.55v2.55h2.55Zm0,5.02v-2.55h-2.55v2.55h2.55Zm0,5.02v-2.55h-2.55v2.55h2.55Zm0,5.02v-2.55h-2.55v2.55h2.55Zm0,5.02v-2.55h-2.55v2.55h2.55Zm0,5.02v-2.55h-2.55v2.55h2.55Zm0,5.02v-2.55h-2.55v2.55h2.55Zm0,5.02v-2.55h-2.55v2.55h2.55Zm0,5.02v-2.55h-2.55v2.55h2.55Zm0,5.02v-2.55h-2.55v2.55h2.55Zm0,5.02v-2.55h-2.55v2.55h2.55Zm0,5.02v-2.55h-2.55v2.55h2.55Zm0,5.02v-2.55h-2.55v2.55h2.55Zm0,5.02v-2.55h-2.55v2.55h2.55Zm0,5.02v-2.55h-2.55v2.55h2.55Zm0,5.02v-2.55h-2.55v2.55h2.55Zm0,5.02v-2.55h-2.55v2.55h2.55Zm0,5.02v-2.55h-2.55v2.55h2.55Zm0,5.02v-2.55h-2.55v2.55h2.55Zm0,5.02v-2.55h-2.55v2.55h2.55Zm0,5.02v-2.55h-2.55v2.55h2.55Zm0,5.02v-2.55h-2.55v2.55h2.55Zm0,5.02v-2.55h-2.55v2.55h2.55Zm0,5.02v-2.55h-2.55v2.55h2.55Zm0,5.02v-2.55h-2.55v2.55h2.55Zm0,5.02v-2.55h-2.55v2.55h2.55Zm0,5.02v-2.55h-2.55v2.55h2.55Zm0,5.02v-2.55h-2.55v2.55h2.55Zm0,10.04v-2.55h-2.55v2.55h2.55Zm0,5.02v-2.55h-2.55v2.55h2.55Zm0,5.02v-2.55h-2.55v2.55h2.55Zm0,15.06v-2.55h-2.55v2.55h2.55Zm0,10.04v-2.55h-2.55v2.55h2.55Zm0,5.02v-2.55h-2.55v2.55h2.55Zm5.02-230.84v-2.55h-2.55v2.55h2.55Zm0,20.07v-2.55h-2.55v2.55h2.55Zm0,5.02v-2.55h-2.55v2.55h2.55Zm0,5.02v-2.55h-2.55v2.55h2.55Zm0,5.02v-2.55h-2.55v2.55h2.55Zm0,5.02v-2.55h-2.55v2.55h2.55Zm0,5.02v-2.55h-2.55v2.55h2.55Zm0,5.02v-2.55h-2.55v2.55h2.55Zm0,5.02v-2.55h-2.55v2.55h2.55Zm0,5.02v-2.55h-2.55v2.55h2.55Zm0,5.02v-2.55h-2.55v2.55h2.55Zm0,5.02v-2.55h-2.55v2.55h2.55Zm0,5.02v-2.55h-2.55v2.55h2.55Zm0,5.02v-2.55h-2.55v2.55h2.55Zm0,5.02v-2.55h-2.55v2.55h2.55Zm0,5.02v-2.55h-2.55v2.55h2.55Zm0,5.02v-2.55h-2.55v2.55h2.55Zm0,5.02v-2.55h-2.55v2.55h2.55Zm0,5.02v-2.55h-2.55v2.55h2.55Zm0,5.02v-2.55h-2.55v2.55h2.55Zm0,5.02v-2.55h-2.55v2.55h2.55Zm0,5.02v-2.55h-2.55v2.55h2.55Zm0,5.02v-2.55h-2.55v2.55h2.55Zm0,5.02v-2.55h-2.55v2.55h2.55Zm0,5.02v-2.55h-2.55v2.55h2.55Zm0,5.02v-2.55h-2.55v2.55h2.55Zm0,5.02v-2.55h-2.55v2.55h2.55Zm0,5.02v-2.55h-2.55v2.55h2.55Zm0,5.02v-2.55h-2.55v2.55h2.55Zm0,5.02v-2.55h-2.55v2.55h2.55Zm0,5.02v-2.55h-2.55v2.55h2.55Zm0,5.02v-2.55h-2.55v2.55h2.55Zm0,5.02v-2.55h-2.55v2.55h2.55Zm0,20.07v-2.55h-2.55v2.55h2.55Zm0,5.02v-2.55h-2.55v2.55h2.55Zm0,5.02v-2.55h-2.55v2.55h2.55Zm0,25.09v-2.55h-2.55v2.55h2.55Zm0,5.02v-2.55h-2.55v2.55h2.55Zm5.02-220.8v-2.55h-2.55v2.55h2.55Zm0,5.02v-2.55h-2.55v2.55h2.55Zm0,5.02v-2.55h-2.55v2.55h2.55Zm0,5.02v-2.55h-2.55v2.55h2.55Zm0,5.02v-2.55h-2.55v2.55h2.55Zm0,5.02v-2.55h-2.55v2.55h2.55Zm0,5.02v-2.55h-2.55v2.55h2.55Zm0,5.02v-2.55h-2.55v2.55h2.55Zm0,5.02v-2.55h-2.55v2.55h2.55Zm0,5.02v-2.55h-2.55v2.55h2.55Zm0,5.02v-2.55h-2.55v2.55h2.55Zm0,5.02v-2.55h-2.55v2.55h2.55Zm0,5.02v-2.55h-2.55v2.55h2.55Zm0,5.02v-2.55h-2.55v2.55h2.55Zm0,5.02v-2.55h-2.55v2.55h2.55Zm0,5.02v-2.55h-2.55v2.55h2.55Zm0,5.02v-2.55h-2.55v2.55h2.55Zm0,5.02v-2.55h-2.55v2.55h2.55Zm0,5.02v-2.55h-2.55v2.55h2.55Zm0,5.02v-2.55h-2.55v2.55h2.55Zm0,5.02v-2.55h-2.55v2.55h2.55Zm0,5.02v-2.55h-2.55v2.55h2.55Zm0,5.02v-2.55h-2.55v2.55h2.55Zm0,5.02v-2.55h-2.55v2.55h2.55Zm0,5.02v-2.55h-2.55v2.55h2.55Zm0,5.02v-2.55h-2.55v2.55h2.55Zm0,5.02v-2.55h-2.55v2.55h2.55Zm0,5.02v-2.55h-2.55v2.55h2.55Zm0,5.02v-2.55h-2.55v2.55h2.55Zm0,5.02v-2.55h-2.55v2.55h2.55Zm0,5.02v-2.55h-2.55v2.55h2.55Zm0,5.02v-2.55h-2.55v2.55h2.55Zm0,5.02v-2.55h-2.55v2.55h2.55Zm0,15.05v-2.55h-2.55v2.55h2.55Zm0,10.04v-2.55h-2.55v2.55h2.55Zm0,5.02v-2.55h-2.55v2.55h2.55Zm0,15.05v-2.55h-2.55v2.55h2.55Zm0,5.02v-2.55h-2.55v2.55h2.55Zm0,10.04v-2.55h-2.55v2.55h2.55Zm0,5.02v-2.55h-2.55v2.55h2.55Zm5.02-225.82v-2.55h-2.55v2.55h2.55Zm0,5.02v-2.55h-2.55v2.55h2.55Zm0,5.02v-2.55h-2.55v2.55h2.55Zm0,5.02v-2.55h-2.55v2.55h2.55Zm0,5.02v-2.55h-2.55v2.55h2.55Zm0,5.02v-2.55h-2.55v2.55h2.55Zm0,5.02v-2.55h-2.55v2.55h2.55Zm0,5.02v-2.55h-2.55v2.55h2.55Zm0,5.02v-2.55h-2.55v2.55h2.55Zm0,5.02v-2.55h-2.55v2.55h2.55Zm0,5.02v-2.55h-2.55v2.55h2.55Zm0,5.02v-2.55h-2.55v2.55h2.55Zm0,5.02v-2.55h-2.55v2.55h2.55Zm0,5.02v-2.55h-2.55v2.55h2.55Zm0,5.02v-2.55h-2.55v2.55h2.55Zm0,5.02v-2.55h-2.55v2.55h2.55Zm0,5.02v-2.55h-2.55v2.55h2.55Zm0,5.02v-2.55h-2.55v2.55h2.55Zm0,5.02v-2.55h-2.55v2.55h2.55Zm0,5.02v-2.55h-2.55v2.55h2.55Zm0,5.02v-2.55h-2.55v2.55h2.55Zm0,5.02v-2.55h-2.55v2.55h2.55Zm0,5.02v-2.55h-2.55v2.55h2.55Zm0,5.02v-2.55h-2.55v2.55h2.55Zm0,5.02v-2.55h-2.55v2.55h2.55Zm0,5.02v-2.55h-2.55v2.55h2.55Zm0,5.02v-2.55h-2.55v2.55h2.55Zm0,5.02v-2.55h-2.55v2.55h2.55Zm0,5.02v-2.55h-2.55v2.55h2.55Zm0,5.02v-2.55h-2.55v2.55h2.55Zm0,5.02v-2.55h-2.55v2.55h2.55Zm0,5.02v-2.55h-2.55v2.55h2.55Zm0,5.02v-2.55h-2.55v2.55h2.55Zm0,10.04v-2.55h-2.55v2.55h2.55Zm0,35.13v-2.55h-2.55v2.55h2.55Zm0,5.02v-2.55h-2.55v2.55h2.55Zm0,10.04v-2.55h-2.55v2.55h2.55Zm0,5.02v-2.55h-2.55v2.55h2.55Zm0,30.11v-2.55h-2.55v2.55h2.55Zm0,5.02v-2.55h-2.55v2.55h2.55Zm0,5.02v-2.55h-2.55v2.55h2.55Zm0,5.02v-2.55h-2.55v2.55h2.55Zm0,5.02v-2.55h-2.55v2.55h2.55Zm5.02-270.99v-2.55h-2.55v2.55h2.55Zm0,5.02v-2.55h-2.55v2.55h2.55Zm0,5.02v-2.55h-2.55v2.55h2.55Zm0,5.02v-2.55h-2.55v2.55h2.55Zm0,5.02v-2.55h-2.55v2.55h2.55Zm0,5.02v-2.55h-2.55v2.55h2.55Zm0,5.02v-2.55h-2.55v2.55h2.55Zm0,5.02v-2.55h-2.55v2.55h2.55Zm0,5.02v-2.55h-2.55v2.55h2.55Zm0,5.02v-2.55h-2.55v2.55h2.55Zm0,5.02v-2.55h-2.55v2.55h2.55Zm0,5.02v-2.55h-2.55v2.55h2.55Zm0,5.02v-2.55h-2.55v2.55h2.55Zm0,5.02v-2.55h-2.55v2.55h2.55Zm0,5.02v-2.55h-2.55v2.55h2.55Zm0,5.02v-2.55h-2.55v2.55h2.55Zm0,5.02v-2.55h-2.55v2.55h2.55Zm0,5.02v-2.55h-2.55v2.55h2.55Zm0,5.02v-2.55h-2.55v2.55h2.55Zm0,5.02v-2.55h-2.55v2.55h2.55Zm0,5.02v-2.55h-2.55v2.55h2.55Zm0,5.02v-2.55h-2.55v2.55h2.55Zm0,5.02v-2.55h-2.55v2.55h2.55Zm0,5.02v-2.55h-2.55v2.55h2.55Zm0,10.04v-2.55h-2.55v2.55h2.55Zm0,5.02v-2.55h-2.55v2.55h2.55Zm0,5.02v-2.55h-2.55v2.55h2.55Zm0,5.02v-2.55h-2.55v2.55h2.55Zm0,5.02v-2.55h-2.55v2.55h2.55Zm0,5.02v-2.55h-2.55v2.55h2.55Zm0,5.02v-2.55h-2.55v2.55h2.55Zm0,45.16v-2.55h-2.55v2.55h2.55Zm0,5.02v-2.55h-2.55v2.55h2.55Zm0,10.04v-2.55h-2.55v2.55h2.55Zm0,30.11v-2.55h-2.55v2.55h2.55Zm0,5.02v-2.55h-2.55v2.55h2.55Zm0,5.02v-2.55h-2.55v2.55h2.55Zm0,5.02v-2.55h-2.55v2.55h2.55Zm0,5.02v-2.55h-2.55v2.55h2.55Zm0,5.02v-2.55h-2.55v2.55h2.55Zm0,5.02v-2.55h-2.55v2.55h2.55Zm5.02-270.99v-2.55h-2.55v2.55h2.55Zm0,5.02v-2.55h-2.55v2.55h2.55Zm0,5.02v-2.55h-2.55v2.55h2.55Zm0,5.02v-2.55h-2.55v2.55h2.55Zm0,5.02v-2.55h-2.55v2.55h2.55Zm0,5.02v-2.55h-2.55v2.55h2.55Zm0,5.02v-2.55h-2.55v2.55h2.55Zm0,5.02v-2.55h-2.55v2.55h2.55Zm0,5.02v-2.55h-2.55v2.55h2.55Zm0,5.02v-2.55h-2.55v2.55h2.55Zm0,5.02v-2.55h-2.55v2.55h2.55Zm0,5.02v-2.55h-2.55v2.55h2.55Zm0,5.02v-2.55h-2.55v2.55h2.55Zm0,5.02v-2.55h-2.55v2.55h2.55Zm0,5.02v-2.55h-2.55v2.55h2.55Zm0,5.02v-2.55h-2.55v2.55h2.55Zm0,5.02v-2.55h-2.55v2.55h2.55Zm0,5.02v-2.55h-2.55v2.55h2.55Zm0,5.02v-2.55h-2.55v2.55h2.55Zm0,5.02v-2.55h-2.55v2.55h2.55Zm0,5.02v-2.55h-2.55v2.55h2.55Zm0,5.02v-2.55h-2.55v2.55h2.55Zm0,25.09v-2.55h-2.55v2.55h2.55Zm0,5.02v-2.55h-2.55v2.55h2.55Zm0,5.02v-2.55h-2.55v2.55h2.55Zm0,10.04v-2.55h-2.55v2.55h2.55Zm0,40.15v-2.55h-2.55v2.55h2.55Zm0,5.02v-2.55h-2.55v2.55h2.55Zm0,5.02v-2.55h-2.55v2.55h2.55Zm0,15.06v-2.55h-2.55v2.55h2.55Zm0,25.09v-2.55h-2.55v2.55h2.55Zm0,5.02v-2.55h-2.55v2.55h2.55Zm0,5.02v-2.55h-2.55v2.55h2.55Zm0,5.02v-2.55h-2.55v2.55h2.55Zm0,5.02v-2.55h-2.55v2.55h2.55Zm0,5.02v-2.55h-2.55v2.55h2.55Zm0,5.02v-2.55h-2.55v2.55h2.55Zm5.02-276v-2.55h-2.55v2.55h2.55Zm0,5.02v-2.55h-2.55v2.55h2.55Zm0,5.02v-2.55h-2.55v2.55h2.55Zm0,5.02v-2.55h-2.55v2.55h2.55Zm0,5.02v-2.55h-2.55v2.55h2.55Zm0,5.02v-2.55h-2.55v2.55h2.55Zm0,5.02v-2.55h-2.55v2.55h2.55Zm0,5.02v-2.55h-2.55v2.55h2.55Zm0,5.02v-2.55h-2.55v2.55h2.55Zm0,5.02v-2.55h-2.55v2.55h2.55Zm0,5.02v-2.55h-2.55v2.55h2.55Zm0,5.02v-2.55h-2.55v2.55h2.55Zm0,5.02v-2.55h-2.55v2.55h2.55Zm0,5.02v-2.55h-2.55v2.55h2.55Zm0,5.02v-2.55h-2.55v2.55h2.55Zm0,5.02v-2.55h-2.55v2.55h2.55Zm0,5.02v-2.55h-2.55v2.55h2.55Zm0,5.02v-2.55h-2.55v2.55h2.55Zm0,5.02v-2.55h-2.55v2.55h2.55Zm0,5.02v-2.55h-2.55v2.55h2.55Zm0,5.02v-2.55h-2.55v2.55h2.55Zm0,5.02v-2.55h-2.55v2.55h2.55Zm0,5.02v-2.55h-2.55v2.55h2.55Zm0,5.02v-2.55h-2.55v2.55h2.55Zm0,25.09v-2.55h-2.55v2.55h2.55Zm0,15.06v-2.55h-2.55v2.55h2.55Zm0,5.02v-2.55h-2.55v2.55h2.55Zm0,10.04v-2.55h-2.55v2.55h2.55Zm0,5.02v-2.55h-2.55v2.55h2.55Zm0,15.06v-2.55h-2.55v2.55h2.55Zm0,20.07v-2.55h-2.55v2.55h2.55Zm0,10.04v-2.55h-2.55v2.55h2.55Zm0,25.09v-2.55h-2.55v2.55h2.55Zm0,5.02v-2.55h-2.55v2.55h2.55Zm0,5.02v-2.55h-2.55v2.55h2.55Zm0,5.02v-2.55h-2.55v2.55h2.55Zm0,5.02v-2.55h-2.55v2.55h2.55Zm0,5.02v-2.55h-2.55v2.55h2.55Zm0,5.02v-2.55h-2.55v2.55h2.55Zm5.02-276v-2.55h-2.55v2.55h2.55Zm0,5.02v-2.55h-2.55v2.55h2.55Zm0,5.02v-2.55h-2.55v2.55h2.55Zm0,5.02v-2.55h-2.55v2.55h2.55Zm0,5.02v-2.55h-2.55v2.55h2.55Zm0,5.02v-2.55h-2.55v2.55h2.55Zm0,5.02v-2.55h-2.55v2.55h2.55Zm0,5.02v-2.55h-2.55v2.55h2.55Zm0,5.02v-2.55h-2.55v2.55h2.55Zm0,5.02v-2.55h-2.55v2.55h2.55Zm0,5.02v-2.55h-2.55v2.55h2.55Zm0,5.02v-2.55h-2.55v2.55h2.55Zm0,5.02v-2.55h-2.55v2.55h2.55Zm0,5.02v-2.55h-2.55v2.55h2.55Zm0,5.02v-2.55h-2.55v2.55h2.55Zm0,5.02v-2.55h-2.55v2.55h2.55Zm0,5.02v-2.55h-2.55v2.55h2.55Zm0,5.02v-2.55h-2.55v2.55h2.55Zm0,5.02v-2.55h-2.55v2.55h2.55Zm0,5.02v-2.55h-2.55v2.55h2.55Zm0,5.02v-2.55h-2.55v2.55h2.55Zm0,5.02v-2.55h-2.55v2.55h2.55Zm0,5.02v-2.55h-2.55v2.55h2.55Zm0,5.02v-2.55h-2.55v2.55h2.55Zm0,5.02v-2.55h-2.55v2.55h2.55Zm0,5.02v-2.55h-2.55v2.55h2.55Zm0,50.18v-2.55h-2.55v2.55h2.55Zm0,5.02v-2.55h-2.55v2.55h2.55Zm0,5.02v-2.55h-2.55v2.55h2.55Zm0,15.05v-2.55h-2.55v2.55h2.55Zm0,5.02v-2.55h-2.55v2.55h2.55Zm0,5.02v-2.55h-2.55v2.55h2.55Zm0,10.04v-2.55h-2.55v2.55h2.55Zm0,20.07v-2.55h-2.55v2.55h2.55Zm0,5.02v-2.55h-2.55v2.55h2.55Zm0,5.02v-2.55h-2.55v2.55h2.55Zm0,5.02v-2.55h-2.55v2.55h2.55Zm0,5.02v-2.55h-2.55v2.55h2.55Zm0,5.02v-2.55h-2.55v2.55h2.55Zm0,5.02v-2.55h-2.55v2.55h2.55Zm5.02-265.97v-2.55h-2.55v2.55h2.55Zm0,5.02v-2.55h-2.55v2.55h2.55Zm0,5.02v-2.55h-2.55v2.55h2.55Zm0,5.02v-2.55h-2.55v2.55h2.55Zm0,5.02v-2.55h-2.55v2.55h2.55Zm0,5.02v-2.55h-2.55v2.55h2.55Zm0,5.02v-2.55h-2.55v2.55h2.55Zm0,5.02v-2.55h-2.55v2.55h2.55Zm0,5.02v-2.55h-2.55v2.55h2.55Zm0,5.02v-2.55h-2.55v2.55h2.55Zm0,25.09v-2.55h-2.55v2.55h2.55Zm0,5.02v-2.55h-2.55v2.55h2.55Zm0,5.02v-2.55h-2.55v2.55h2.55Zm0,5.02v-2.55h-2.55v2.55h2.55Zm0,5.02v-2.55h-2.55v2.55h2.55Zm0,5.02v-2.55h-2.55v2.55h2.55Zm0,20.07v-2.55h-2.55v2.55h2.55Zm0,5.02v-2.55h-2.55v2.55h2.55Zm0,15.05v-2.55h-2.55v2.55h2.55Zm0,45.17v-2.55h-2.55v2.55h2.55Zm0,5.02v-2.55h-2.55v2.55h2.55Zm0,30.11v-2.55h-2.55v2.55h2.55Zm0,10.04v-2.55h-2.55v2.55h2.55Zm0,5.02v-2.55h-2.55v2.55h2.55Zm0,5.02v-2.55h-2.55v2.55h2.55Zm0,5.02v-2.55h-2.55v2.55h2.55Zm0,5.02v-2.55h-2.55v2.55h2.55Zm0,5.02v-2.55h-2.55v2.55h2.55Zm0,5.02v-2.55h-2.55v2.55h2.55Zm0,5.02v-2.55h-2.55v2.55h2.55Zm5.02-260.95v-2.55h-2.55v2.55h2.55Zm0,5.02v-2.55h-2.55v2.55h2.55Zm0,5.02v-2.55h-2.55v2.55h2.55Zm0,5.02v-2.55h-2.55v2.55h2.55Zm0,5.02v-2.55h-2.55v2.55h2.55Zm0,5.02v-2.55h-2.55v2.55h2.55Zm0,5.02v-2.55h-2.55v2.55h2.55Zm0,5.02v-2.55h-2.55v2.55h2.55Zm0,5.02v-2.55h-2.55v2.55h2.55Zm0,30.11v-2.55h-2.55v2.55h2.55Zm0,5.02v-2.55h-2.55v2.55h2.55Zm0,5.02v-2.55h-2.55v2.55h2.55Zm0,5.02v-2.55h-2.55v2.55h2.55Zm0,5.02v-2.55h-2.55v2.55h2.55Zm0,35.13v-2.55h-2.55v2.55h2.55Zm0,5.02v-2.55h-2.55v2.55h2.55Zm0,55.2v-2.55h-2.55v2.55h2.55Zm0,40.15v-2.55h-2.55v2.55h2.55Zm0,5.02v-2.55h-2.55v2.55h2.55Zm0,5.02v-2.55h-2.55v2.55h2.55Zm0,5.02v-2.55h-2.55v2.55h2.55Zm0,5.02v-2.55h-2.55v2.55h2.55Zm0,5.02v-2.55h-2.55v2.55h2.55Zm0,5.02v-2.55h-2.55v2.55h2.55Zm0,5.02v-2.55h-2.55v2.55h2.55Zm0,5.02v-2.55h-2.55v2.55h2.55Zm5.02-270.99v-2.55h-2.55v2.55h2.55Zm0,5.02v-2.55h-2.55v2.55h2.55Zm0,5.02v-2.55h-2.55v2.55h2.55Zm0,5.02v-2.55h-2.55v2.55h2.55Zm0,5.02v-2.55h-2.55v2.55h2.55Zm0,5.02v-2.55h-2.55v2.55h2.55Zm0,5.02v-2.55h-2.55v2.55h2.55Zm0,5.02v-2.55h-2.55v2.55h2.55Zm0,5.02v-2.55h-2.55v2.55h2.55Zm0,5.02v-2.55h-2.55v2.55h2.55Zm0,30.11v-2.55h-2.55v2.55h2.55Zm0,5.02v-2.55h-2.55v2.55h2.55Zm0,5.02v-2.55h-2.55v2.55h2.55Zm0,45.17v-2.55h-2.55v2.55h2.55Zm0,70.25v-2.55h-2.55v2.55h2.55Zm0,5.02v-2.55h-2.55v2.55h2.55Zm0,30.11v-2.55h-2.55v2.55h2.55Zm0,5.02v-2.55h-2.55v2.55h2.55Zm0,5.02v-2.55h-2.55v2.55h2.55Zm0,5.02v-2.55h-2.55v2.55h2.55Zm0,5.02v-2.55h-2.55v2.55h2.55Zm0,5.02v-2.55h-2.55v2.55h2.55Zm0,5.02v-2.55h-2.55v2.55h2.55Zm0,5.02v-2.55h-2.55v2.55h2.55Zm5.02-270.99v-2.55h-2.55v2.55h2.55Zm0,5.02v-2.55h-2.55v2.55h2.55Zm0,5.02v-2.55h-2.55v2.55h2.55Zm0,5.02v-2.55h-2.55v2.55h2.55Zm0,5.02v-2.55h-2.55v2.55h2.55Zm0,5.02v-2.55h-2.55v2.55h2.55Zm0,5.02v-2.55h-2.55v2.55h2.55Zm0,5.02v-2.55h-2.55v2.55h2.55Zm0,5.02v-2.55h-2.55v2.55h2.55Zm0,5.02v-2.55h-2.55v2.55h2.55Zm0,35.13v-2.55h-2.55v2.55h2.55Zm0,5.02v-2.55h-2.55v2.55h2.55Zm0,5.02v-2.55h-2.55v2.55h2.55Zm0,10.04v-2.55h-2.55v2.55h2.55Zm0,5.02v-2.55h-2.55v2.55h2.55Zm0,20.07v-2.55h-2.55v2.55h2.55Zm0,80.29v-2.55h-2.55v2.55h2.55Zm0,5.02v-2.55h-2.55v2.55h2.55Zm0,15.05v-2.55h-2.55v2.55h2.55Zm0,5.02v-2.55h-2.55v2.55h2.55Zm0,5.02v-2.55h-2.55v2.55h2.55Zm0,5.02v-2.55h-2.55v2.55h2.55Zm0,5.02v-2.55h-2.55v2.55h2.55Zm0,5.02v-2.55h-2.55v2.55h2.55Zm0,5.02v-2.55h-2.55v2.55h2.55Zm0,5.02v-2.55h-2.55v2.55h2.55Zm0,5.02v-2.55h-2.55v2.55h2.55Zm0,5.02v-2.55h-2.55v2.55h2.55Zm0,5.02v-2.55h-2.55v2.55h2.55Zm5.02-281.02v-2.55h-2.55v2.55h2.55Zm0,5.02v-2.55h-2.55v2.55h2.55Zm0,5.02v-2.55h-2.55v2.55h2.55Zm0,5.02v-2.55h-2.55v2.55h2.55Zm0,5.02v-2.55h-2.55v2.55h2.55Zm0,5.02v-2.55h-2.55v2.55h2.55Zm0,5.02v-2.55h-2.55v2.55h2.55Zm0,5.02v-2.55h-2.55v2.55h2.55Zm0,5.02v-2.55h-2.55v2.55h2.55Zm0,65.24v-2.55h-2.55v2.55h2.55Zm0,5.02v-2.55h-2.55v2.55h2.55Zm0,5.02v-2.55h-2.55v2.55h2.55Zm0,5.02v-2.55h-2.55v2.55h2.55Zm0,5.02v-2.55h-2.55v2.55h2.55Zm0,85.31v-2.55h-2.55v2.55h2.55Zm0,5.02v-2.55h-2.55v2.55h2.55Zm0,5.02v-2.55h-2.55v2.55h2.55Zm0,10.04v-2.55h-2.55v2.55h2.55Zm0,5.02v-2.55h-2.55v2.55h2.55Zm0,5.02v-2.55h-2.55v2.55h2.55Zm0,5.02v-2.55h-2.55v2.55h2.55Zm0,5.02v-2.55h-2.55v2.55h2.55Zm0,5.02v-2.55h-2.55v2.55h2.55Zm0,5.02v-2.55h-2.55v2.55h2.55Zm0,5.02v-2.55h-2.55v2.55h2.55Zm0,5.02v-2.55h-2.55v2.55h2.55Zm0,5.02v-2.55h-2.55v2.55h2.55Zm0,5.02v-2.55h-2.55v2.55h2.55Zm0,5.02v-2.55h-2.55v2.55h2.55Zm0,5.02v-2.55h-2.55v2.55h2.55Zm5.02-291.06v-2.55h-2.55v2.55h2.55Zm0,5.02v-2.55h-2.55v2.55h2.55Zm0,5.02v-2.55h-2.55v2.55h2.55Zm0,5.02v-2.55h-2.55v2.55h2.55Zm0,5.02v-2.55h-2.55v2.55h2.55Zm0,5.02v-2.55h-2.55v2.55h2.55Zm0,5.02v-2.55h-2.55v2.55h2.55Zm0,5.02v-2.55h-2.55v2.55h2.55Zm0,5.02v-2.55h-2.55v2.55h2.55Zm0,5.02v-2.55h-2.55v2.55h2.55Zm0,60.22v-2.55h-2.55v2.55h2.55Zm0,5.02v-2.55h-2.55v2.55h2.55Zm0,100.37v-2.55h-2.55v2.55h2.55Zm0,5.02v-2.55h-2.55v2.55h2.55Zm0,5.02v-2.55h-2.55v2.55h2.55Zm0,20.07v-2.55h-2.55v2.55h2.55Zm0,5.02v-2.55h-2.55v2.55h2.55Zm0,5.02v-2.55h-2.55v2.55h2.55Zm0,5.02v-2.55h-2.55v2.55h2.55Zm0,5.02v-2.55h-2.55v2.55h2.55Zm0,5.02v-2.55h-2.55v2.55h2.55Zm0,5.02v-2.55h-2.55v2.55h2.55Zm0,5.02v-2.55h-2.55v2.55h2.55Zm0,5.02v-2.55h-2.55v2.55h2.55Zm0,5.02v-2.55h-2.55v2.55h2.55Zm0,5.02v-2.55h-2.55v2.55h2.55Zm0,5.02v-2.55h-2.55v2.55h2.55Zm0,10.04v-2.55h-2.55v2.55h2.55Zm0,5.02v-2.55h-2.55v2.55h2.55Zm5.02-311.13v-2.55h-2.55v2.55h2.55Zm0,5.02v-2.55h-2.55v2.55h2.55Zm0,5.02v-2.55h-2.55v2.55h2.55Zm0,5.02v-2.55h-2.55v2.55h2.55Zm0,5.02v-2.55h-2.55v2.55h2.55Zm0,5.02v-2.55h-2.55v2.55h2.55Zm0,5.02v-2.55h-2.55v2.55h2.55Zm0,5.02v-2.55h-2.55v2.55h2.55Zm0,5.02v-2.55h-2.55v2.55h2.55Zm0,5.02v-2.55h-2.55v2.55h2.55Zm0,5.02v-2.55h-2.55v2.55h2.55Zm0,5.02v-2.55h-2.55v2.55h2.55Zm0,5.02v-2.55h-2.55v2.55h2.55Zm0,5.02v-2.55h-2.55v2.55h2.55Zm0,5.02v-2.55h-2.55v2.55h2.55Zm0,20.07v-2.55h-2.55v2.55h2.55Zm0,10.04v-2.55h-2.55v2.55h2.55Zm0,115.42v-2.55h-2.55v2.55h2.55Zm0,5.02v-2.55h-2.55v2.55h2.55Zm0,10.04v-2.55h-2.55v2.55h2.55Zm0,10.04v-2.55h-2.55v2.55h2.55Zm0,5.02v-2.55h-2.55v2.55h2.55Zm0,5.02v-2.55h-2.55v2.55h2.55Zm0,5.02v-2.55h-2.55v2.55h2.55Zm0,5.02v-2.55h-2.55v2.55h2.55Zm0,5.02v-2.55h-2.55v2.55h2.55Zm0,5.02v-2.55h-2.55v2.55h2.55Zm0,5.02v-2.55h-2.55v2.55h2.55Zm0,5.02v-2.55h-2.55v2.55h2.55Zm0,5.02v-2.55h-2.55v2.55h2.55Zm0,5.02v-2.55h-2.55v2.55h2.55Zm0,5.02v-2.55h-2.55v2.55h2.55Zm0,15.06v-2.55h-2.55v2.55h2.55Zm5.02-311.13v-2.55h-2.55v2.55h2.55Zm0,5.02v-2.55h-2.55v2.55h2.55Zm0,5.02v-2.55h-2.55v2.55h2.55Zm0,5.02v-2.55h-2.55v2.55h2.55Zm0,5.02v-2.55h-2.55v2.55h2.55Zm0,5.02v-2.55h-2.55v2.55h2.55Zm0,5.02v-2.55h-2.55v2.55h2.55Zm0,5.02v-2.55h-2.55v2.55h2.55Zm0,5.02v-2.55h-2.55v2.55h2.55Zm0,15.05v-2.55h-2.55v2.55h2.55Zm0,5.02v-2.55h-2.55v2.55h2.55Zm0,5.02v-2.55h-2.55v2.55h2.55Zm0,5.02v-2.55h-2.55v2.55h2.55Zm0,5.02v-2.55h-2.55v2.55h2.55Zm0,5.02v-2.55h-2.55v2.55h2.55Zm0,140.51v-2.55h-2.55v2.55h2.55Zm0,10.04v-2.55h-2.55v2.55h2.55Zm0,5.02v-2.55h-2.55v2.55h2.55Zm0,5.02v-2.55h-2.55v2.55h2.55Zm0,5.02v-2.55h-2.55v2.55h2.55Zm0,5.02v-2.55h-2.55v2.55h2.55Zm0,5.02v-2.55h-2.55v2.55h2.55Zm0,5.02v-2.55h-2.55v2.55h2.55Zm0,5.02v-2.55h-2.55v2.55h2.55Zm0,5.02v-2.55h-2.55v2.55h2.55Zm0,5.02v-2.55h-2.55v2.55h2.55Zm0,5.02v-2.55h-2.55v2.55h2.55Zm0,5.02v-2.55h-2.55v2.55h2.55Zm0,5.02v-2.55h-2.55v2.55h2.55Zm5.02-291.06v-2.55h-2.55v2.55h2.55Zm0,5.02v-2.55h-2.55v2.55h2.55Zm0,5.02v-2.55h-2.55v2.55h2.55Zm0,5.02v-2.55h-2.55v2.55h2.55Zm0,10.04v-2.55h-2.55v2.55h2.55Zm0,5.02v-2.55h-2.55v2.55h2.55Zm0,5.02v-2.55h-2.55v2.55h2.55Zm0,5.02v-2.55h-2.55v2.55h2.55Zm0,185.68v-2.55h-2.55v2.55h2.55Zm0,20.07v-2.55h-2.55v2.55h2.55Zm0,5.02v-2.55h-2.55v2.55h2.55Zm0,5.02v-2.55h-2.55v2.55h2.55Zm0,5.02v-2.55h-2.55v2.55h2.55Zm0,5.02v-2.55h-2.55v2.55h2.55Zm0,5.02v-2.55h-2.55v2.55h2.55Zm0,5.02v-2.55h-2.55v2.55h2.55Zm0,5.02v-2.55h-2.55v2.55h2.55Zm0,5.02v-2.55h-2.55v2.55h2.55Zm5.02-281.02v-2.55h-2.55v2.55h2.55Zm0,5.02v-2.55h-2.55v2.55h2.55Zm0,5.02v-2.55h-2.55v2.55h2.55Zm0,10.04v-2.55h-2.55v2.55h2.55Zm0,5.02v-2.55h-2.55v2.55h2.55Zm0,185.68v-2.55h-2.55v2.55h2.55Zm0,15.05v-2.55h-2.55v2.55h2.55Zm0,25.09v-2.55h-2.55v2.55h2.55Zm0,5.02v-2.55h-2.55v2.55h2.55Zm0,5.02v-2.55h-2.55v2.55h2.55Zm0,5.02v-2.55h-2.55v2.55h2.55Zm0,5.02v-2.55h-2.55v2.55h2.55Zm5.02-276.01v-2.55h-2.55v2.55h2.55Zm0,10.04v-2.55h-2.55v2.55h2.55Zm0,20.07v-2.55h-2.55v2.55h2.55Zm0,35.13v-2.55h-2.55v2.55h2.55Zm0,150.55v-2.55h-2.55v2.55h2.55Zm0,45.16v-2.55h-2.55v2.55h2.55Zm0,5.02v-2.55h-2.55v2.55h2.55Zm5.02-45.16v-2.55h-2.55v2.55h2.55Zm5.02,0v-2.55h-2.55v2.55h2.55Zm0,100.37v-2.55h-2.55v2.55h2.55Zm0,5.02v-2.55h-2.55v2.55h2.55Zm5.02-105.38v-2.55h-2.55v2.55h2.55Zm0,5.02v-2.55h-2.55v2.55h2.55Zm0,90.33v-2.55h-2.55v2.55h2.55Zm0,5.02v-2.55h-2.55v2.55h2.55Zm5.02-95.35v-2.55h-2.55v2.55h2.55Zm0,5.02v-2.55h-2.55v2.55h2.55Zm0,20.07v-2.55h-2.55v2.55h2.55Zm0,5.02v-2.55h-2.55v2.55h2.55Zm0,60.22v-2.55h-2.55v2.55h2.55Zm5.02-70.25v-2.55h-2.55v2.55h2.55Zm0,65.24v-2.55h-2.55v2.55h2.55Zm0,5.02v-2.55h-2.55v2.55h2.55Zm5.02-75.27v-2.55h-2.55v2.55h2.55Zm0,65.24v-2.55h-2.55v2.55h2.55Zm5.02-15.05v-2.55h-2.55v2.55h2.55Zm0,5.02v-2.55h-2.55v2.55h2.55Zm0,5.02v-2.55h-2.55v2.55h2.55Zm15.05-60.22v-2.55h-2.55v2.55h2.55Zm0,5.02v-2.55h-2.55v2.55h2.55Zm-60.22-180.66v-2.55h-2.55v2.55h2.55Z"
          style="fill:#A4C6E7; fill-rule:evenodd;" />
</svg>
