<svg width="46" height="46" viewBox="0 0 46 46" fill="none" xmlns="http://www.w3.org/2000/svg">
<g filter="url(#filter0_f_131_3074)">
<rect x="14.7666" y="14.1426" width="17" height="17" rx="0.5" fill="url(#paint0_linear_131_3074)"/>
</g>
<path d="M16.2666 15.6426C16.2666 15.3664 16.0419 15.1394 15.7678 15.1732C15.4798 15.2087 15.1973 15.275 14.9272 15.3709C14.5026 15.5217 14.1167 15.7427 13.7917 16.0213C13.4667 16.2998 13.2089 16.6306 13.033 16.9945C12.8571 17.3585 12.7666 17.7486 12.7666 18.1426C12.7666 18.5365 12.8571 18.9267 13.033 19.2906C13.2089 19.6546 13.4667 19.9853 13.7917 20.2639C14.1167 20.5425 14.5026 20.7635 14.9272 20.9142C15.1973 21.0101 15.4798 21.0764 15.7678 21.112C16.0419 21.1458 16.2666 20.9187 16.2666 20.6426L16.2666 20.1426C16.2666 19.8664 16.0394 19.649 15.7716 19.5813C15.7125 19.5664 15.6541 19.5487 15.5969 19.5284C15.3846 19.453 15.1917 19.3425 15.0292 19.2032C14.8667 19.064 14.7378 18.8986 14.6498 18.7166C14.5619 18.5346 14.5166 18.3396 14.5166 18.1426C14.5166 17.9456 14.5619 17.7505 14.6498 17.5686C14.7378 17.3866 14.8667 17.2212 15.0292 17.0819C15.1917 16.9426 15.3846 16.8321 15.5969 16.7568C15.6541 16.7364 15.7125 16.7188 15.7716 16.7038C16.0394 16.6362 16.2666 16.4187 16.2666 16.1426L16.2666 15.6426Z" fill="url(#paint1_linear_131_3074)"/>
<path d="M31.2666 20.6426C31.2666 20.9187 31.4913 21.1458 31.7654 21.112C32.0534 21.0764 32.3359 21.0101 32.606 20.9142C33.0306 20.7635 33.4165 20.5425 33.7415 20.2639C34.0665 19.9853 34.3243 19.6546 34.5002 19.2906C34.6761 18.9267 34.7666 18.5365 34.7666 18.1426C34.7666 17.7486 34.6761 17.3585 34.5002 16.9945C34.3243 16.6306 34.0665 16.2998 33.7415 16.0213C33.4165 15.7427 33.0306 15.5217 32.606 15.3709C32.3359 15.275 32.0534 15.2087 31.7654 15.1732C31.4913 15.1394 31.2666 15.3664 31.2666 15.6426L31.2666 16.1426C31.2666 16.4187 31.4938 16.6362 31.7616 16.7038C31.8207 16.7188 31.8791 16.7364 31.9363 16.7568C32.1486 16.8321 32.3415 16.9426 32.504 17.0819C32.6665 17.2212 32.7954 17.3866 32.8834 17.5686C32.9713 17.7505 33.0166 17.9456 33.0166 18.1426C33.0166 18.3396 32.9713 18.5346 32.8834 18.7166C32.7954 18.8986 32.6665 19.0639 32.504 19.2032C32.3415 19.3425 32.1486 19.453 31.9363 19.5284C31.8791 19.5487 31.8207 19.5664 31.7616 19.5813C31.4938 19.649 31.2666 19.8664 31.2666 20.1426L31.2666 20.6426Z" fill="url(#paint2_linear_131_3074)"/>
<rect x="21.7666" y="24.1426" width="4" height="11" rx="0.5" fill="url(#paint3_linear_131_3074)"/>
<g filter="url(#filter1_bd_131_3074)">
<rect x="18.7666" y="33.1426" width="10" height="3" rx="1.5" fill="url(#paint4_linear_131_3074)" shape-rendering="crispEdges"/>
<rect x="18.9666" y="33.3426" width="9.6" height="2.6" rx="1.3" stroke="url(#paint5_linear_131_3074)" stroke-width="0.4" shape-rendering="crispEdges"/>
</g>
<g filter="url(#filter2_bd_131_3074)">
<path d="M15.7666 15.1426C15.7666 14.038 16.662 13.1426 17.7666 13.1426H29.7666C30.8712 13.1426 31.7666 14.038 31.7666 15.1426V23.1426C31.7666 27.5609 28.1849 31.1426 23.7666 31.1426C19.3483 31.1426 15.7666 27.5609 15.7666 23.1426V15.1426Z" fill="url(#paint6_linear_131_3074)" shape-rendering="crispEdges"/>
<path d="M16.1166 15.1426C16.1166 14.2313 16.8553 13.4926 17.7666 13.4926H29.7666C30.6779 13.4926 31.4166 14.2313 31.4166 15.1426V23.1426C31.4166 27.3676 27.9916 30.7926 23.7666 30.7926C19.5416 30.7926 16.1166 27.3676 16.1166 23.1426V15.1426Z" stroke="url(#paint7_linear_131_3074)" stroke-width="0.7" shape-rendering="crispEdges"/>
</g>
<g filter="url(#filter3_di_131_3074)">
<path d="M23.3862 17.3134C23.5059 16.9449 24.0273 16.9449 24.147 17.3134L24.7994 19.3211C24.8529 19.4859 25.0065 19.5975 25.1798 19.5975H27.2908C27.6783 19.5975 27.8394 20.0933 27.5259 20.3211L25.8181 21.5619C25.6779 21.6638 25.6192 21.8443 25.6728 22.0091L26.3251 24.0168C26.4448 24.3854 26.0231 24.6918 25.7096 24.4641L24.0017 23.2232C23.8615 23.1214 23.6717 23.1214 23.5315 23.2232L21.8236 24.4641C21.5101 24.6918 21.0884 24.3854 21.2081 24.0168L21.8604 22.0091C21.914 21.8443 21.8553 21.6638 21.7151 21.5619L20.0073 20.3211C19.6938 20.0933 19.8549 19.5975 20.2424 19.5975H22.3534C22.5267 19.5975 22.6803 19.4859 22.7338 19.3211L23.3862 17.3134Z" fill="url(#paint8_linear_131_3074)" shape-rendering="crispEdges"/>
</g>
<defs>
<filter id="filter0_f_131_3074" x="0.766602" y="0.142578" width="45" height="45" filterUnits="userSpaceOnUse" color-interpolation-filters="sRGB">
<feFlood flood-opacity="0" result="BackgroundImageFix"/>
<feBlend mode="normal" in="SourceGraphic" in2="BackgroundImageFix" result="shape"/>
<feGaussianBlur stdDeviation="7" result="effect1_foregroundBlur_131_3074"/>
</filter>
<filter id="filter1_bd_131_3074" x="14.7666" y="29.1426" width="18" height="15" filterUnits="userSpaceOnUse" color-interpolation-filters="sRGB">
<feFlood flood-opacity="0" result="BackgroundImageFix"/>
<feGaussianBlur in="BackgroundImageFix" stdDeviation="2"/>
<feComposite in2="SourceAlpha" operator="in" result="effect1_backgroundBlur_131_3074"/>
<feColorMatrix in="SourceAlpha" type="matrix" values="0 0 0 0 0 0 0 0 0 0 0 0 0 0 0 0 0 0 127 0" result="hardAlpha"/>
<feOffset dy="4"/>
<feGaussianBlur stdDeviation="2"/>
<feComposite in2="hardAlpha" operator="out"/>
<feColorMatrix type="matrix" values="0 0 0 0 0 0 0 0 0 0 0 0 0 0 0 0 0 0 0.25 0"/>
<feBlend mode="normal" in2="effect1_backgroundBlur_131_3074" result="effect2_dropShadow_131_3074"/>
<feBlend mode="normal" in="SourceGraphic" in2="effect2_dropShadow_131_3074" result="shape"/>
</filter>
<filter id="filter2_bd_131_3074" x="11.7666" y="9.14258" width="24" height="30" filterUnits="userSpaceOnUse" color-interpolation-filters="sRGB">
<feFlood flood-opacity="0" result="BackgroundImageFix"/>
<feGaussianBlur in="BackgroundImageFix" stdDeviation="2"/>
<feComposite in2="SourceAlpha" operator="in" result="effect1_backgroundBlur_131_3074"/>
<feColorMatrix in="SourceAlpha" type="matrix" values="0 0 0 0 0 0 0 0 0 0 0 0 0 0 0 0 0 0 127 0" result="hardAlpha"/>
<feOffset dy="4"/>
<feGaussianBlur stdDeviation="2"/>
<feComposite in2="hardAlpha" operator="out"/>
<feColorMatrix type="matrix" values="0 0 0 0 0 0 0 0 0 0 0 0 0 0 0 0 0 0 0.25 0"/>
<feBlend mode="normal" in2="effect1_backgroundBlur_131_3074" result="effect2_dropShadow_131_3074"/>
<feBlend mode="normal" in="SourceGraphic" in2="effect2_dropShadow_131_3074" result="shape"/>
</filter>
<filter id="filter3_di_131_3074" x="18.3416" y="16.537" width="10.85" height="12.0053" filterUnits="userSpaceOnUse" color-interpolation-filters="sRGB">
<feFlood flood-opacity="0" result="BackgroundImageFix"/>
<feColorMatrix in="SourceAlpha" type="matrix" values="0 0 0 0 0 0 0 0 0 0 0 0 0 0 0 0 0 0 127 0" result="hardAlpha"/>
<feOffset dy="1"/>
<feGaussianBlur stdDeviation="0.75"/>
<feComposite in2="hardAlpha" operator="out"/>
<feColorMatrix type="matrix" values="0 0 0 0 0 0 0 0 0 0 0 0 0 0 0 0 0 0 0.25 0"/>
<feBlend mode="normal" in2="BackgroundImageFix" result="effect1_dropShadow_131_3074"/>
<feBlend mode="normal" in="SourceGraphic" in2="effect1_dropShadow_131_3074" result="shape"/>
<feColorMatrix in="SourceAlpha" type="matrix" values="0 0 0 0 0 0 0 0 0 0 0 0 0 0 0 0 0 0 127 0" result="hardAlpha"/>
<feOffset dy="8"/>
<feGaussianBlur stdDeviation="2"/>
<feComposite in2="hardAlpha" operator="arithmetic" k2="-1" k3="1"/>
<feColorMatrix type="matrix" values="0 0 0 0 1 0 0 0 0 1 0 0 0 0 1 0 0 0 0.25 0"/>
<feBlend mode="normal" in2="shape" result="effect2_innerShadow_131_3074"/>
</filter>
<linearGradient id="paint0_linear_131_3074" x1="14.7666" y1="14.1426" x2="31.7666" y2="31.1426" gradientUnits="userSpaceOnUse">
<stop offset="0.22" stop-color="#7C0397"/>
<stop offset="0.7" stop-color="#FFE602"/>
</linearGradient>
<linearGradient id="paint1_linear_131_3074" x1="12.7666" y1="21.1426" x2="18.696" y2="14.2249" gradientUnits="userSpaceOnUse">
<stop offset="0.22" stop-color="#7C0397"/>
<stop offset="0.7" stop-color="#FFE602"/>
</linearGradient>
<linearGradient id="paint2_linear_131_3074" x1="34.7666" y1="15.1426" x2="28.8372" y2="22.0602" gradientUnits="userSpaceOnUse">
<stop offset="0.22" stop-color="#7C0397"/>
<stop offset="0.7" stop-color="#FFE602"/>
</linearGradient>
<linearGradient id="paint3_linear_131_3074" x1="21.7666" y1="24.1426" x2="28.8323" y2="26.7119" gradientUnits="userSpaceOnUse">
<stop offset="0.22" stop-color="#7C0397"/>
<stop offset="0.7" stop-color="#FFE602"/>
</linearGradient>
<linearGradient id="paint4_linear_131_3074" x1="17.2666" y1="36.4426" x2="19.2388" y2="30.1543" gradientUnits="userSpaceOnUse">
<stop stop-color="white" stop-opacity="0.2"/>
<stop offset="1" stop-color="white" stop-opacity="0.5"/>
</linearGradient>
<linearGradient id="paint5_linear_131_3074" x1="27.7666" y1="36.4426" x2="26.4706" y2="31.2826" gradientUnits="userSpaceOnUse">
<stop stop-color="white" stop-opacity="0"/>
<stop offset="1" stop-color="white"/>
</linearGradient>
<linearGradient id="paint6_linear_131_3074" x1="18.8777" y1="32.6426" x2="33.7807" y2="14.8275" gradientUnits="userSpaceOnUse">
<stop stop-color="white" stop-opacity="0.2"/>
<stop offset="1" stop-color="white" stop-opacity="0.5"/>
</linearGradient>
<linearGradient id="paint7_linear_131_3074" x1="30.1666" y1="32.9426" x2="13.7397" y2="15.5017" gradientUnits="userSpaceOnUse">
<stop stop-color="white" stop-opacity="0"/>
<stop offset="1" stop-color="white"/>
</linearGradient>
<linearGradient id="paint8_linear_131_3074" x1="17.2666" y1="27.1426" x2="28.7666" y2="16.1426" gradientUnits="userSpaceOnUse">
<stop stop-color="white" stop-opacity="0.2"/>
<stop offset="1" stop-color="white" stop-opacity="0.5"/>
</linearGradient>
</defs>
</svg>
