<svg width="24" height="24" viewBox="0 0 24 24" fill="none" xmlns="http://www.w3.org/2000/svg">
<g clip-path="url(#clip0_110_994)">
<path d="M18.5213 18.7828C18.3829 18.7828 18.2502 18.7278 18.1524 18.6299L9.8046 10.2821C9.70956 10.1837 9.65697 10.0519 9.65816 9.91512C9.65935 9.77833 9.71422 9.64747 9.81096 9.55073C9.90769 9.454 10.0385 9.39913 10.1753 9.39794C10.3121 9.39675 10.4439 9.44934 10.5423 9.54438L18.8902 17.8922C18.9631 17.9652 19.0128 18.0581 19.0329 18.1593C19.053 18.2605 19.0427 18.3654 19.0032 18.4607C18.9637 18.556 18.8969 18.6375 18.8111 18.6948C18.7253 18.7522 18.6245 18.7828 18.5213 18.7828Z" fill="url(#paint0_linear_110_994)"/>
<path d="M13.3042 24C14.4568 24 15.3912 23.0656 15.3912 21.913C15.3912 20.7604 14.4568 19.8261 13.3042 19.8261C12.1516 19.8261 11.2173 20.7604 11.2173 21.913C11.2173 23.0656 12.1516 24 13.3042 24Z" fill="url(#paint1_linear_110_994)"/>
<path d="M21.6521 24C22.8046 24 23.739 23.0656 23.739 21.913C23.739 20.7604 22.8046 19.8261 21.6521 19.8261C20.4995 19.8261 19.5651 20.7604 19.5651 21.913C19.5651 23.0656 20.4995 24 21.6521 24Z" fill="url(#paint2_linear_110_994)"/>
<path d="M20.6086 8.34783C21.7612 8.34783 22.6955 7.41347 22.6955 6.26088C22.6955 5.10828 21.7612 4.17392 20.6086 4.17392C19.456 4.17392 18.5216 5.10828 18.5216 6.26088C18.5216 7.41347 19.456 8.34783 20.6086 8.34783Z" fill="url(#paint3_linear_110_994)"/>
<g filter="url(#filter0_i_110_994)">
<path d="M17.4781 9.91325H12.7825C12.6441 9.91325 12.5114 9.85828 12.4136 9.76044C12.3157 9.66259 12.2607 9.52988 12.2607 9.39151C12.2607 9.25314 12.3157 9.12043 12.4136 9.02258C12.5114 8.92474 12.6441 8.86977 12.7825 8.86977H17.2621L19.718 6.41394C19.8164 6.31891 19.9482 6.26632 20.085 6.26751C20.2217 6.2687 20.3526 6.32357 20.4493 6.4203C20.5461 6.51703 20.6009 6.64789 20.6021 6.78469C20.6033 6.92149 20.5507 7.05328 20.4557 7.15168L17.847 9.76038C17.7492 9.85823 17.6165 9.91322 17.4781 9.91325Z" fill="url(#paint4_linear_110_994)" fill-opacity="0.2"/>
</g>
<path d="M17.2621 9.01977H17.3243L17.3682 8.97584L19.823 6.521C19.8931 6.45381 19.9866 6.41666 20.0836 6.4175C20.1811 6.41835 20.2744 6.45744 20.3433 6.52637L20.4493 6.4203L20.3433 6.52637C20.4122 6.59529 20.4513 6.68853 20.4521 6.786C20.453 6.88307 20.4158 6.9766 20.3486 7.04662L17.7409 9.65431L17.7409 9.65433C17.6712 9.72404 17.5767 9.76322 17.4781 9.76325C17.4781 9.76325 17.4781 9.76325 17.4781 9.76325H12.7825C12.6839 9.76325 12.5893 9.72408 12.5196 9.65437C12.4499 9.58465 12.4107 9.4901 12.4107 9.39151C12.4107 9.29292 12.4499 9.19836 12.5196 9.12865C12.5893 9.05894 12.6839 9.01977 12.7825 9.01977H17.2621Z" stroke="url(#paint5_linear_110_994)" stroke-opacity="0.1" stroke-width="0.3"/>
<g filter="url(#filter1_i_110_994)">
<path d="M21.6521 20.8696C21.5137 20.8696 21.381 20.8146 21.2831 20.7168C21.1853 20.6189 21.1303 20.4862 21.1303 20.3478V18.4769L18.3056 15.6522H16.9564C16.818 15.6522 16.6853 15.5972 16.5875 15.4994C16.4896 15.4015 16.4347 15.2688 16.4347 15.1304C16.4347 14.9921 16.4896 14.8594 16.5875 14.7615C16.6853 14.6637 16.818 14.6087 16.9564 14.6087H18.5216C18.66 14.6087 18.7927 14.6637 18.8905 14.7616L22.0209 17.892C22.1188 17.9898 22.1738 18.1225 22.1738 18.2609V20.3478C22.1738 20.4862 22.1188 20.6189 22.021 20.7168C21.9231 20.8146 21.7904 20.8696 21.6521 20.8696Z" fill="url(#paint6_linear_110_994)" fill-opacity="0.2"/>
</g>
<path d="M21.2803 18.4769V18.4147L21.2364 18.3708L18.4117 15.5461L18.3677 15.5022H18.3056H16.9564C16.8578 15.5022 16.7633 15.463 16.6935 15.3933C16.6238 15.3236 16.5847 15.229 16.5847 15.1304C16.5847 15.0319 16.6238 14.9373 16.6935 14.8676C16.7633 14.7979 16.8578 14.7587 16.9564 14.7587H18.5216C18.5216 14.7587 18.5216 14.7587 18.5216 14.7587C18.6202 14.7587 18.7147 14.7979 18.7844 14.8676L18.7844 14.8676L21.9149 17.9981L21.9149 17.9981C21.9846 18.0678 22.0238 18.1623 22.0238 18.2609C22.0238 18.2609 22.0238 18.2609 22.0238 18.2609V20.3478C22.0238 20.4464 21.9846 20.541 21.9149 20.6107C21.8452 20.6804 21.7506 20.7196 21.6521 20.7196C21.5535 20.7196 21.4589 20.6804 21.3892 20.6107C21.3195 20.541 21.2803 20.4464 21.2803 20.3478V18.4769Z" stroke="url(#paint7_linear_110_994)" stroke-opacity="0.1" stroke-width="0.3"/>
<g filter="url(#filter2_i_110_994)">
<path d="M12.1976 21.3282C12.0593 21.3281 11.9266 21.2732 11.8287 21.1753L9.28318 18.6297C9.18533 18.5319 9.13034 18.3992 9.13031 18.2609V12.5217C9.13031 12.3834 9.18528 12.2507 9.28312 12.1528C9.38097 12.055 9.51368 12 9.65205 12C9.79042 12 9.92313 12.055 10.021 12.1528C10.1188 12.2507 10.1738 12.3834 10.1738 12.5217V18.0449L12.5665 20.4376C12.6394 20.5105 12.6891 20.6035 12.7092 20.7047C12.7293 20.8059 12.719 20.9108 12.6795 21.0061C12.6401 21.1014 12.5732 21.1829 12.4874 21.2402C12.4016 21.2975 12.3008 21.3282 12.1976 21.3282Z" fill="url(#paint8_linear_110_994)" fill-opacity="0.2"/>
</g>
<path d="M11.9348 21.0692L11.9348 21.0693C12.0045 21.139 12.099 21.1781 12.1976 21.1782L11.9348 21.0692ZM11.9348 21.0692L9.38925 18.5237L9.38923 18.5237M11.9348 21.0692L9.38923 18.5237M9.38923 18.5237C9.31952 18.454 9.28034 18.3594 9.28031 18.2609C9.28031 18.2609 9.28031 18.2608 9.28031 18.2608V12.5217C9.28031 12.4231 9.31948 12.3286 9.38919 12.2589C9.4589 12.1892 9.55346 12.15 9.65205 12.15C9.75064 12.15 9.84519 12.1892 9.91491 12.2589C9.98462 12.3286 10.0238 12.4231 10.0238 12.5217V18.0449V18.107M9.38923 18.5237L10.0238 18.107M10.0238 18.107L10.0677 18.1509M10.0238 18.107L10.0677 18.1509M10.0677 18.1509L12.4604 20.5436M10.0677 18.1509L12.4604 20.5436M12.4604 20.5436C12.5124 20.5956 12.5478 20.6618 12.5621 20.7339C12.5764 20.806 12.5691 20.8808 12.5409 20.9487C12.5128 21.0166 12.4652 21.0747 12.4041 21.1155C12.343 21.1563 12.2711 21.1781 12.1976 21.1782L12.4604 20.5436Z" stroke="url(#paint9_linear_110_994)" stroke-opacity="0.1" stroke-width="0.3"/>
<g filter="url(#filter3_bi_110_994)">
<path d="M18.8905 14.7616L17.847 13.7181C17.7492 13.6202 17.6165 13.5652 17.4781 13.5652H16.4347C16.2963 13.5652 16.1636 13.5103 16.0657 13.4124C15.9679 13.3146 15.9129 13.1819 15.9129 13.0435V12C15.9129 11.8616 15.8579 11.729 15.76 11.6311L11.498 7.36905C11.6573 6.8404 11.7386 6.29128 11.739 5.73913C11.739 4.60404 11.4024 3.49444 10.7718 2.55064C10.1412 1.60685 9.24483 0.871249 8.19614 0.436868C7.14746 0.0024867 5.99351 -0.111167 4.88023 0.110278C3.76694 0.331724 2.74433 0.878323 1.9417 1.68096C1.13907 2.48359 0.592466 3.5062 0.371021 4.61948C0.149575 5.73277 0.263229 6.88671 0.69761 7.9354C1.13199 8.98409 1.86759 9.88042 2.81138 10.511C3.75518 11.1417 4.86478 11.4783 5.99987 11.4783C6.55202 11.4778 7.10114 11.3966 7.62979 11.2372L9.43605 13.0435H10.6955C10.8339 13.0435 10.9666 13.0984 11.0645 13.1963C11.1623 13.2941 11.2173 13.4268 11.2173 13.5652V14.8247L11.8919 15.4993C11.9897 15.5972 12.1224 15.6521 12.2607 15.6522H13.3042C13.4426 15.6522 13.5753 15.7071 13.6731 15.805C13.771 15.9028 13.826 16.0355 13.826 16.1739V17.2174C13.826 17.3558 13.881 17.4884 13.9788 17.5863L15.0223 18.6297C15.1201 18.7276 15.2528 18.7826 15.3912 18.7826H18.5216C18.66 18.7826 18.7927 18.7276 18.8905 18.6298C18.9884 18.532 19.0434 18.3992 19.0434 18.2609V15.1304C19.0433 14.9921 18.9883 14.8594 18.8905 14.7616ZM4.69553 6.26087C4.33436 6.26087 3.98131 6.15377 3.68101 5.95312C3.38071 5.75247 3.14665 5.46727 3.00844 5.1336C2.87023 4.79992 2.83407 4.43276 2.90453 4.07853C2.97499 3.72431 3.14891 3.39893 3.40429 3.14355C3.65967 2.88816 3.98505 2.71425 4.33927 2.64379C4.6935 2.57333 5.06067 2.60949 5.39434 2.7477C5.72801 2.88591 6.01321 3.11997 6.21386 3.42027C6.41452 3.72056 6.52161 4.07362 6.52161 4.43478C6.52161 4.91909 6.32922 5.38357 5.98676 5.72602C5.64431 6.06848 5.17983 6.26087 4.69553 6.26087Z" fill="url(#paint10_linear_110_994)" fill-opacity="0.2"/>
<path d="M18.7844 14.8676L18.7844 14.8677C18.8541 14.9373 18.8933 15.0319 18.8934 15.1304C18.8934 15.1304 18.8934 15.1305 18.8934 15.1305V18.2609C18.8934 18.3595 18.8542 18.454 18.7845 18.5237C18.7148 18.5934 18.6202 18.6326 18.5216 18.6326H15.3912C15.3912 18.6326 15.3912 18.6326 15.3912 18.6326C15.2926 18.6326 15.1981 18.5934 15.1284 18.5237L15.1284 18.5237L14.0849 17.4802L14.0849 17.4802C14.0152 17.4105 13.976 17.316 13.976 17.2174C13.976 17.2174 13.976 17.2174 13.976 17.2174V16.1739C13.976 15.9958 13.9052 15.8249 13.7792 15.6989C13.6532 15.5729 13.4824 15.5022 13.3042 15.5022H12.2608C12.2608 15.5022 12.2608 15.5022 12.2607 15.5022C12.1622 15.5021 12.0676 15.463 11.998 15.3933L11.9979 15.3932L11.3673 14.7626V13.5652C11.3673 13.3871 11.2965 13.2162 11.1705 13.0902C11.0445 12.9643 10.8737 12.8935 10.6955 12.8935H9.49818L7.73585 11.1312L7.6724 11.0677L7.58649 11.0936C7.07185 11.2488 6.53728 11.3278 5.99975 11.3283C4.89437 11.3282 3.81381 11.0004 2.89472 10.3863C1.97559 9.77218 1.25922 8.89928 0.836192 7.878C0.413164 6.85672 0.302481 5.73293 0.518138 4.64875C0.733796 3.56456 1.26611 2.56868 2.04776 1.78702C2.82942 1.00537 3.8253 0.473054 4.90949 0.257396C5.99367 0.0417383 7.11746 0.152422 8.13874 0.57545C9.16002 0.998478 10.0329 1.71485 10.6471 2.63398C11.2612 3.55307 11.589 4.63363 11.589 5.73901C11.5886 6.27653 11.5095 6.8111 11.3543 7.32575L11.3284 7.41166L11.3919 7.47511L15.654 11.7372L15.654 11.7372C15.7237 11.8069 15.7629 11.9014 15.7629 12C15.7629 12 15.7629 12 15.7629 12V13.0435C15.7629 13.2216 15.8337 13.3925 15.9597 13.5185C16.0856 13.6444 16.2565 13.7152 16.4347 13.7152H17.4781C17.4781 13.7152 17.4781 13.7152 17.4781 13.7152C17.5767 13.7152 17.6712 13.7544 17.7409 13.8241L17.7409 13.8242L18.7844 14.8676ZM3.59767 6.07784C3.92264 6.29498 4.30469 6.41087 4.69553 6.41087C5.21962 6.41087 5.72224 6.20268 6.09283 5.83209C6.46342 5.4615 6.67161 4.95888 6.67161 4.43478C6.67161 4.04395 6.55572 3.6619 6.33858 3.33693C6.12145 3.01196 5.81283 2.75868 5.45174 2.60912C5.09066 2.45955 4.69333 2.42042 4.31001 2.49667C3.92669 2.57292 3.57458 2.76112 3.29822 3.03748C3.02186 3.31384 2.83366 3.66595 2.75741 4.04927C2.68116 4.43259 2.7203 4.82992 2.86986 5.191C3.01943 5.55208 3.27271 5.86071 3.59767 6.07784Z" stroke="url(#paint11_linear_110_994)" stroke-opacity="0.1" stroke-width="0.3"/>
</g>
<g filter="url(#filter4_i_110_994)">
<path d="M18.5214 18.7828C18.383 18.7828 18.2503 18.7278 18.1525 18.63L9.80466 10.2821C9.70962 10.1837 9.65703 10.052 9.65822 9.91516C9.65941 9.77836 9.71428 9.6475 9.81102 9.55076C9.90775 9.45403 10.0386 9.39916 10.1754 9.39797C10.3122 9.39678 10.444 9.44937 10.5424 9.54441L18.8902 17.8922C18.9632 17.9652 19.0128 18.0582 19.033 18.1593C19.0531 18.2605 19.0428 18.3654 19.0033 18.4607C18.9638 18.5561 18.8969 18.6375 18.8112 18.6949C18.7254 18.7522 18.6245 18.7828 18.5214 18.7828Z" fill="white" fill-opacity="0.16"/>
</g>
</g>
<defs>
<filter id="filter0_i_110_994" x="12.2607" y="6.26749" width="8.3414" height="5.64575" filterUnits="userSpaceOnUse" color-interpolation-filters="sRGB">
<feFlood flood-opacity="0" result="BackgroundImageFix"/>
<feBlend mode="normal" in="SourceGraphic" in2="BackgroundImageFix" result="shape"/>
<feColorMatrix in="SourceAlpha" type="matrix" values="0 0 0 0 0 0 0 0 0 0 0 0 0 0 0 0 0 0 127 0" result="hardAlpha"/>
<feOffset dy="2"/>
<feGaussianBlur stdDeviation="1"/>
<feComposite in2="hardAlpha" operator="arithmetic" k2="-1" k3="1"/>
<feColorMatrix type="matrix" values="0 0 0 0 1 0 0 0 0 1 0 0 0 0 1 0 0 0 0.4 0"/>
<feBlend mode="normal" in2="shape" result="effect1_innerShadow_110_994"/>
</filter>
<filter id="filter1_i_110_994" x="16.4347" y="14.6087" width="5.73914" height="8.26086" filterUnits="userSpaceOnUse" color-interpolation-filters="sRGB">
<feFlood flood-opacity="0" result="BackgroundImageFix"/>
<feBlend mode="normal" in="SourceGraphic" in2="BackgroundImageFix" result="shape"/>
<feColorMatrix in="SourceAlpha" type="matrix" values="0 0 0 0 0 0 0 0 0 0 0 0 0 0 0 0 0 0 127 0" result="hardAlpha"/>
<feOffset dy="2"/>
<feGaussianBlur stdDeviation="1"/>
<feComposite in2="hardAlpha" operator="arithmetic" k2="-1" k3="1"/>
<feColorMatrix type="matrix" values="0 0 0 0 1 0 0 0 0 1 0 0 0 0 1 0 0 0 0.4 0"/>
<feBlend mode="normal" in2="shape" result="effect1_innerShadow_110_994"/>
</filter>
<filter id="filter2_i_110_994" x="9.13031" y="12" width="3.58893" height="11.3282" filterUnits="userSpaceOnUse" color-interpolation-filters="sRGB">
<feFlood flood-opacity="0" result="BackgroundImageFix"/>
<feBlend mode="normal" in="SourceGraphic" in2="BackgroundImageFix" result="shape"/>
<feColorMatrix in="SourceAlpha" type="matrix" values="0 0 0 0 0 0 0 0 0 0 0 0 0 0 0 0 0 0 127 0" result="hardAlpha"/>
<feOffset dy="2"/>
<feGaussianBlur stdDeviation="1"/>
<feComposite in2="hardAlpha" operator="arithmetic" k2="-1" k3="1"/>
<feColorMatrix type="matrix" values="0 0 0 0 1 0 0 0 0 1 0 0 0 0 1 0 0 0 0.4 0"/>
<feBlend mode="normal" in2="shape" result="effect1_innerShadow_110_994"/>
</filter>
<filter id="filter3_bi_110_994" x="-5.73926" y="-6" width="30.7826" height="30.7826" filterUnits="userSpaceOnUse" color-interpolation-filters="sRGB">
<feFlood flood-opacity="0" result="BackgroundImageFix"/>
<feGaussianBlur in="BackgroundImageFix" stdDeviation="3"/>
<feComposite in2="SourceAlpha" operator="in" result="effect1_backgroundBlur_110_994"/>
<feBlend mode="normal" in="SourceGraphic" in2="effect1_backgroundBlur_110_994" result="shape"/>
<feColorMatrix in="SourceAlpha" type="matrix" values="0 0 0 0 0 0 0 0 0 0 0 0 0 0 0 0 0 0 127 0" result="hardAlpha"/>
<feOffset dy="1"/>
<feGaussianBlur stdDeviation="1.5"/>
<feComposite in2="hardAlpha" operator="arithmetic" k2="-1" k3="1"/>
<feColorMatrix type="matrix" values="0 0 0 0 1 0 0 0 0 1 0 0 0 0 1 0 0 0 0.4 0"/>
<feBlend mode="normal" in2="shape" result="effect2_innerShadow_110_994"/>
</filter>
<filter id="filter4_i_110_994" x="9.6582" y="9.39795" width="9.3848" height="11.3849" filterUnits="userSpaceOnUse" color-interpolation-filters="sRGB">
<feFlood flood-opacity="0" result="BackgroundImageFix"/>
<feBlend mode="normal" in="SourceGraphic" in2="BackgroundImageFix" result="shape"/>
<feColorMatrix in="SourceAlpha" type="matrix" values="0 0 0 0 0 0 0 0 0 0 0 0 0 0 0 0 0 0 127 0" result="hardAlpha"/>
<feOffset dy="2"/>
<feGaussianBlur stdDeviation="1"/>
<feComposite in2="hardAlpha" operator="arithmetic" k2="-1" k3="1"/>
<feColorMatrix type="matrix" values="0 0 0 0 1 0 0 0 0 1 0 0 0 0 1 0 0 0 0.4 0"/>
<feBlend mode="normal" in2="shape" result="effect1_innerShadow_110_994"/>
</filter>
<linearGradient id="paint0_linear_110_994" x1="9.65814" y1="9.39792" x2="20.7131" y2="12.205" gradientUnits="userSpaceOnUse">
<stop stop-color="#75A5FF"/>
<stop offset="0.703125" stop-color="#2339FF"/>
</linearGradient>
<linearGradient id="paint1_linear_110_994" x1="11.2173" y1="19.8261" x2="16.134" y2="21.0745" gradientUnits="userSpaceOnUse">
<stop stop-color="#75A5FF"/>
<stop offset="0.703125" stop-color="#2339FF"/>
</linearGradient>
<linearGradient id="paint2_linear_110_994" x1="19.5651" y1="19.8261" x2="24.4818" y2="21.0745" gradientUnits="userSpaceOnUse">
<stop stop-color="#75A5FF"/>
<stop offset="0.703125" stop-color="#2339FF"/>
</linearGradient>
<linearGradient id="paint3_linear_110_994" x1="18.5216" y1="4.17392" x2="23.4383" y2="5.42237" gradientUnits="userSpaceOnUse">
<stop stop-color="#75A5FF"/>
<stop offset="0.703125" stop-color="#2339FF"/>
</linearGradient>
<linearGradient id="paint4_linear_110_994" x1="12.2607" y1="6.26749" x2="20.0808" y2="10.8106" gradientUnits="userSpaceOnUse">
<stop stop-color="#83E9FF"/>
<stop offset="0.453125" stop-color="#85A0FF"/>
</linearGradient>
<linearGradient id="paint5_linear_110_994" x1="12.5214" y1="6.4332" x2="20.6022" y2="6.4332" gradientUnits="userSpaceOnUse">
<stop stop-color="#3CDEB6"/>
<stop offset="0.65625" stop-color="#364AFF"/>
</linearGradient>
<linearGradient id="paint6_linear_110_994" x1="16.4347" y1="14.6087" x2="23.2612" y2="16.1976" gradientUnits="userSpaceOnUse">
<stop stop-color="#83E9FF"/>
<stop offset="0.453125" stop-color="#85A0FF"/>
</linearGradient>
<linearGradient id="paint7_linear_110_994" x1="16.614" y1="14.8933" x2="22.1738" y2="14.8933" gradientUnits="userSpaceOnUse">
<stop stop-color="#3CDEB6"/>
<stop offset="0.65625" stop-color="#364AFF"/>
</linearGradient>
<linearGradient id="paint8_linear_110_994" x1="9.13031" y1="12" x2="13.588" y2="12.4355" gradientUnits="userSpaceOnUse">
<stop stop-color="#83E9FF"/>
<stop offset="0.453125" stop-color="#85A0FF"/>
</linearGradient>
<linearGradient id="paint9_linear_110_994" x1="9.24246" y1="12.424" x2="12.7192" y2="12.424" gradientUnits="userSpaceOnUse">
<stop stop-color="#3CDEB6"/>
<stop offset="0.65625" stop-color="#364AFF"/>
</linearGradient>
<linearGradient id="paint10_linear_110_994" x1="0.260742" y1="0" x2="22.3861" y2="5.61803" gradientUnits="userSpaceOnUse">
<stop stop-color="#83E9FF"/>
<stop offset="0.453125" stop-color="#85A0FF"/>
</linearGradient>
<linearGradient id="paint11_linear_110_994" x1="0.847699" y1="0.853755" x2="19.0434" y2="0.853755" gradientUnits="userSpaceOnUse">
<stop stop-color="#3CDEB6"/>
<stop offset="0.65625" stop-color="#364AFF"/>
</linearGradient>
<clipPath id="clip0_110_994">
<rect width="24" height="24" fill="white"/>
</clipPath>
</defs>
</svg>
