<svg width="24" height="24" viewBox="0 0 24 24" fill="none" xmlns="http://www.w3.org/2000/svg">
<g clip-path="url(#clip0_110_1228)">
<path d="M20.9362 19.6596C22.3462 19.6596 23.4893 18.5165 23.4893 17.1064C23.4893 15.6963 22.3462 14.5532 20.9362 14.5532C19.5261 14.5532 18.383 15.6963 18.383 17.1064C18.383 18.5165 19.5261 19.6596 20.9362 19.6596Z" fill="url(#paint0_linear_110_1228)"/>
<path d="M2.55319 19.6596C3.96328 19.6596 5.10638 18.5165 5.10638 17.1064C5.10638 15.6963 3.96328 14.5532 2.55319 14.5532C1.1431 14.5532 0 15.6963 0 17.1064C0 18.5165 1.1431 19.6596 2.55319 19.6596Z" fill="url(#paint1_linear_110_1228)"/>
<path fill-rule="evenodd" clip-rule="evenodd" d="M7.65958 5.74399C7.0652 5.53319 6.63831 4.96526 6.63831 4.29962C6.63831 3.45502 7.32562 2.7677 8.17022 2.7677C9.01482 2.7677 9.70214 3.45502 9.70214 4.29962C9.70214 4.96526 9.27524 5.53319 8.68086 5.74399V10.4681H7.65958V5.74399Z" fill="url(#paint2_linear_110_1228)"/>
<path d="M7.65958 16.0851C8.22363 16.0851 8.68086 15.6279 8.68086 15.0638C8.68086 14.4998 8.22363 14.0426 7.65958 14.0426C7.09553 14.0426 6.63831 14.4998 6.63831 15.0638C6.63831 15.6279 7.09553 16.0851 7.65958 16.0851Z" fill="url(#paint3_linear_110_1228)"/>
<path d="M13.7872 18.6383H9.70212C9.13807 18.6383 8.68085 19.0955 8.68085 19.6596C8.68085 20.2236 9.13807 20.6809 9.70212 20.6809H13.7872C14.3513 20.6809 14.8085 20.2236 14.8085 19.6596C14.8085 19.0955 14.3513 18.6383 13.7872 18.6383Z" fill="url(#paint4_linear_110_1228)"/>
<path d="M15.8298 16.0851C16.3938 16.0851 16.8511 15.6279 16.8511 15.0638C16.8511 14.4998 16.3938 14.0426 15.8298 14.0426C15.2657 14.0426 14.8085 14.4998 14.8085 15.0638C14.8085 15.6279 15.2657 16.0851 15.8298 16.0851Z" fill="url(#paint5_linear_110_1228)"/>
<g filter="url(#filter0_bi_110_1228)">
<path d="M2.55319 13.0213C2.55319 11.6114 3.69651 10.4681 5.10638 10.4681H18.383C19.7929 10.4681 20.9362 11.6114 20.9362 13.0213V21.1915C20.9362 22.6014 19.7929 23.7447 18.383 23.7447H5.10638C3.69651 23.7447 2.55319 22.6014 2.55319 21.1915V13.0213Z" fill="url(#paint6_linear_110_1228)" fill-opacity="0.2"/>
<path d="M2.70319 13.0213C2.70319 11.6942 3.77935 10.6181 5.10638 10.6181H18.383C19.71 10.6181 20.7862 11.6942 20.7862 13.0213V21.1915C20.7862 22.5185 19.71 23.5947 18.383 23.5947H5.10638C3.77935 23.5947 2.70319 22.5185 2.70319 21.1915V13.0213Z" stroke="url(#paint7_linear_110_1228)" stroke-opacity="0.1" stroke-width="0.3"/>
</g>
<path d="M22.7599 1.20364H14.0061C13.6032 1.20364 13.2766 2.83667 13.2766 4.85106C13.2766 6.86546 13.6032 8.49848 14.0061 8.49848H22.7599C23.1628 8.49848 23.4894 6.86546 23.4894 4.85106C23.4894 2.83667 23.1628 1.20364 22.7599 1.20364Z" fill="url(#paint8_linear_110_1228)"/>
<g filter="url(#filter1_bi_110_1228)">
<path d="M22.2128 0.25531H14.5532C13.5661 0.25531 12.766 1.05548 12.766 2.04254V10.4272C12.766 10.61 12.8635 10.7785 13.0223 10.8699C13.1009 10.9154 13.1888 10.9379 13.2766 10.9379C13.3655 10.9379 13.4548 10.9144 13.534 10.8679L15.9682 9.4468H22.2128C23.1998 9.4468 24 8.64663 24 7.65957V2.04254C24 1.05548 23.1998 0.25531 22.2128 0.25531Z" fill="url(#paint9_linear_110_1228)" fill-opacity="0.2"/>
<path d="M13.0974 10.7401L13.0971 10.7399C12.9847 10.6752 12.916 10.5562 12.916 10.4272V2.04254C12.916 1.13832 13.649 0.40531 14.5532 0.40531H22.2128C23.117 0.40531 23.85 1.13832 23.85 2.04254V7.65957C23.85 8.56379 23.117 9.2968 22.2128 9.2968H15.9682H15.9276L15.8925 9.31726L13.4583 10.7384L13.458 10.7386C13.4023 10.7713 13.3392 10.7879 13.2766 10.7879C13.2143 10.7879 13.1525 10.772 13.0974 10.7401Z" stroke="url(#paint10_linear_110_1228)" stroke-opacity="0.1" stroke-width="0.3"/>
</g>
<path d="M7.65958 16.0851C8.22363 16.0851 8.68086 15.6279 8.68086 15.0638C8.68086 14.4998 8.22363 14.0426 7.65958 14.0426C7.09553 14.0426 6.63831 14.4998 6.63831 15.0638C6.63831 15.6279 7.09553 16.0851 7.65958 16.0851Z" fill="url(#paint11_linear_110_1228)"/>
<path d="M13.7872 18.6383H9.70212C9.13807 18.6383 8.68085 19.0955 8.68085 19.6596C8.68085 20.2236 9.13807 20.6809 9.70212 20.6809H13.7872C14.3513 20.6809 14.8085 20.2236 14.8085 19.6596C14.8085 19.0955 14.3513 18.6383 13.7872 18.6383Z" fill="url(#paint12_linear_110_1228)"/>
<path d="M15.8298 16.0851C16.3938 16.0851 16.8511 15.6279 16.8511 15.0638C16.8511 14.4998 16.3938 14.0426 15.8298 14.0426C15.2657 14.0426 14.8085 14.4998 14.8085 15.0638C14.8085 15.6279 15.2657 16.0851 15.8298 16.0851Z" fill="url(#paint13_linear_110_1228)"/>
<g filter="url(#filter2_i_110_1228)">
<path d="M18.383 6.383H15.3191C15.0371 6.383 14.8085 6.61161 14.8085 6.89363C14.8085 7.17566 15.0371 7.40427 15.3191 7.40427H18.383C18.665 7.40427 18.8936 7.17566 18.8936 6.89363C18.8936 6.61161 18.665 6.383 18.383 6.383Z" fill="white" fill-opacity="0.16"/>
</g>
<g filter="url(#filter3_i_110_1228)">
<path d="M21.4468 2.29788H15.3191C15.0371 2.29788 14.8085 2.52651 14.8085 2.80852C14.8085 3.09054 15.0371 3.31916 15.3191 3.31916H21.4468C21.7288 3.31916 21.9574 3.09054 21.9574 2.80852C21.9574 2.52651 21.7288 2.29788 21.4468 2.29788Z" fill="white" fill-opacity="0.16"/>
</g>
<g filter="url(#filter4_i_110_1228)">
<path d="M21.4468 4.34042H15.3191C15.0371 4.34042 14.8085 4.56905 14.8085 4.85106C14.8085 5.13309 15.0371 5.3617 15.3191 5.3617H21.4468C21.7288 5.3617 21.9574 5.13309 21.9574 4.85106C21.9574 4.56905 21.7288 4.34042 21.4468 4.34042Z" fill="white" fill-opacity="0.16"/>
</g>
</g>
<defs>
<filter id="filter0_bi_110_1228" x="-3.44681" y="4.46808" width="30.383" height="25.2766" filterUnits="userSpaceOnUse" color-interpolation-filters="sRGB">
<feFlood flood-opacity="0" result="BackgroundImageFix"/>
<feGaussianBlur in="BackgroundImageFix" stdDeviation="3"/>
<feComposite in2="SourceAlpha" operator="in" result="effect1_backgroundBlur_110_1228"/>
<feBlend mode="normal" in="SourceGraphic" in2="effect1_backgroundBlur_110_1228" result="shape"/>
<feColorMatrix in="SourceAlpha" type="matrix" values="0 0 0 0 0 0 0 0 0 0 0 0 0 0 0 0 0 0 127 0" result="hardAlpha"/>
<feOffset dy="1"/>
<feGaussianBlur stdDeviation="1.5"/>
<feComposite in2="hardAlpha" operator="arithmetic" k2="-1" k3="1"/>
<feColorMatrix type="matrix" values="0 0 0 0 1 0 0 0 0 1 0 0 0 0 1 0 0 0 0.4 0"/>
<feBlend mode="normal" in2="shape" result="effect2_innerShadow_110_1228"/>
</filter>
<filter id="filter1_bi_110_1228" x="6.76596" y="-5.74469" width="23.234" height="22.6826" filterUnits="userSpaceOnUse" color-interpolation-filters="sRGB">
<feFlood flood-opacity="0" result="BackgroundImageFix"/>
<feGaussianBlur in="BackgroundImageFix" stdDeviation="3"/>
<feComposite in2="SourceAlpha" operator="in" result="effect1_backgroundBlur_110_1228"/>
<feBlend mode="normal" in="SourceGraphic" in2="effect1_backgroundBlur_110_1228" result="shape"/>
<feColorMatrix in="SourceAlpha" type="matrix" values="0 0 0 0 0 0 0 0 0 0 0 0 0 0 0 0 0 0 127 0" result="hardAlpha"/>
<feOffset dy="1"/>
<feGaussianBlur stdDeviation="1.5"/>
<feComposite in2="hardAlpha" operator="arithmetic" k2="-1" k3="1"/>
<feColorMatrix type="matrix" values="0 0 0 0 1 0 0 0 0 1 0 0 0 0 1 0 0 0 0.4 0"/>
<feBlend mode="normal" in2="shape" result="effect2_innerShadow_110_1228"/>
</filter>
<filter id="filter2_i_110_1228" x="14.8085" y="6.383" width="4.08511" height="3.02127" filterUnits="userSpaceOnUse" color-interpolation-filters="sRGB">
<feFlood flood-opacity="0" result="BackgroundImageFix"/>
<feBlend mode="normal" in="SourceGraphic" in2="BackgroundImageFix" result="shape"/>
<feColorMatrix in="SourceAlpha" type="matrix" values="0 0 0 0 0 0 0 0 0 0 0 0 0 0 0 0 0 0 127 0" result="hardAlpha"/>
<feOffset dy="2"/>
<feGaussianBlur stdDeviation="1"/>
<feComposite in2="hardAlpha" operator="arithmetic" k2="-1" k3="1"/>
<feColorMatrix type="matrix" values="0 0 0 0 1 0 0 0 0 1 0 0 0 0 1 0 0 0 0.4 0"/>
<feBlend mode="normal" in2="shape" result="effect1_innerShadow_110_1228"/>
</filter>
<filter id="filter3_i_110_1228" x="14.8085" y="2.29788" width="7.14893" height="3.02127" filterUnits="userSpaceOnUse" color-interpolation-filters="sRGB">
<feFlood flood-opacity="0" result="BackgroundImageFix"/>
<feBlend mode="normal" in="SourceGraphic" in2="BackgroundImageFix" result="shape"/>
<feColorMatrix in="SourceAlpha" type="matrix" values="0 0 0 0 0 0 0 0 0 0 0 0 0 0 0 0 0 0 127 0" result="hardAlpha"/>
<feOffset dy="2"/>
<feGaussianBlur stdDeviation="1"/>
<feComposite in2="hardAlpha" operator="arithmetic" k2="-1" k3="1"/>
<feColorMatrix type="matrix" values="0 0 0 0 1 0 0 0 0 1 0 0 0 0 1 0 0 0 0.4 0"/>
<feBlend mode="normal" in2="shape" result="effect1_innerShadow_110_1228"/>
</filter>
<filter id="filter4_i_110_1228" x="14.8085" y="4.34042" width="7.14893" height="3.02127" filterUnits="userSpaceOnUse" color-interpolation-filters="sRGB">
<feFlood flood-opacity="0" result="BackgroundImageFix"/>
<feBlend mode="normal" in="SourceGraphic" in2="BackgroundImageFix" result="shape"/>
<feColorMatrix in="SourceAlpha" type="matrix" values="0 0 0 0 0 0 0 0 0 0 0 0 0 0 0 0 0 0 127 0" result="hardAlpha"/>
<feOffset dy="2"/>
<feGaussianBlur stdDeviation="1"/>
<feComposite in2="hardAlpha" operator="arithmetic" k2="-1" k3="1"/>
<feColorMatrix type="matrix" values="0 0 0 0 1 0 0 0 0 1 0 0 0 0 1 0 0 0 0.4 0"/>
<feBlend mode="normal" in2="shape" result="effect1_innerShadow_110_1228"/>
</filter>
<linearGradient id="paint0_linear_110_1228" x1="18.383" y1="14.5532" x2="24.3981" y2="16.0806" gradientUnits="userSpaceOnUse">
<stop stop-color="#75A5FF"/>
<stop offset="0.703125" stop-color="#2339FF"/>
</linearGradient>
<linearGradient id="paint1_linear_110_1228" x1="0" y1="14.5532" x2="6.01516" y2="16.0806" gradientUnits="userSpaceOnUse">
<stop stop-color="#75A5FF"/>
<stop offset="0.703125" stop-color="#2339FF"/>
</linearGradient>
<linearGradient id="paint2_linear_110_1228" x1="6.63831" y1="2.7677" x2="10.4413" y2="3.15191" gradientUnits="userSpaceOnUse">
<stop stop-color="#75A5FF"/>
<stop offset="0.703125" stop-color="#2339FF"/>
</linearGradient>
<linearGradient id="paint3_linear_110_1228" x1="6.63831" y1="14.0426" x2="9.04437" y2="14.6535" gradientUnits="userSpaceOnUse">
<stop stop-color="#75A5FF"/>
<stop offset="0.703125" stop-color="#2339FF"/>
</linearGradient>
<linearGradient id="paint4_linear_110_1228" x1="8.68085" y1="18.6383" x2="13.543" y2="22.3421" gradientUnits="userSpaceOnUse">
<stop stop-color="#75A5FF"/>
<stop offset="0.703125" stop-color="#2339FF"/>
</linearGradient>
<linearGradient id="paint5_linear_110_1228" x1="14.8085" y1="14.0426" x2="17.2146" y2="14.6535" gradientUnits="userSpaceOnUse">
<stop stop-color="#75A5FF"/>
<stop offset="0.703125" stop-color="#2339FF"/>
</linearGradient>
<linearGradient id="paint6_linear_110_1228" x1="2.55319" y1="10.4681" x2="23.0681" y2="17.6807" gradientUnits="userSpaceOnUse">
<stop stop-color="#83E9FF"/>
<stop offset="0.453125" stop-color="#85A0FF"/>
</linearGradient>
<linearGradient id="paint7_linear_110_1228" x1="3.12766" y1="11.0716" x2="20.9362" y2="11.0716" gradientUnits="userSpaceOnUse">
<stop stop-color="#3CDEB6"/>
<stop offset="0.65625" stop-color="#364AFF"/>
</linearGradient>
<linearGradient id="paint8_linear_110_1228" x1="13.2766" y1="1.20364" x2="24.6458" y2="5.24525" gradientUnits="userSpaceOnUse">
<stop stop-color="#75A5FF"/>
<stop offset="0.703125" stop-color="#2339FF"/>
</linearGradient>
<linearGradient id="paint9_linear_110_1228" x1="12.766" y1="0.25531" x2="25.915" y2="3.76645" gradientUnits="userSpaceOnUse">
<stop stop-color="#83E9FF"/>
<stop offset="0.453125" stop-color="#85A0FF"/>
</linearGradient>
<linearGradient id="paint10_linear_110_1228" x1="13.117" y1="0.740881" x2="24" y2="0.740881" gradientUnits="userSpaceOnUse">
<stop stop-color="#3CDEB6"/>
<stop offset="0.65625" stop-color="#364AFF"/>
</linearGradient>
<linearGradient id="paint11_linear_110_1228" x1="6.63831" y1="14.0426" x2="9.04437" y2="14.6535" gradientUnits="userSpaceOnUse">
<stop stop-color="#75A5FF"/>
<stop offset="0.703125" stop-color="#2339FF"/>
</linearGradient>
<linearGradient id="paint12_linear_110_1228" x1="8.68085" y1="18.6383" x2="13.543" y2="22.3421" gradientUnits="userSpaceOnUse">
<stop stop-color="#75A5FF"/>
<stop offset="0.703125" stop-color="#2339FF"/>
</linearGradient>
<linearGradient id="paint13_linear_110_1228" x1="14.8085" y1="14.0426" x2="17.2146" y2="14.6535" gradientUnits="userSpaceOnUse">
<stop stop-color="#75A5FF"/>
<stop offset="0.703125" stop-color="#2339FF"/>
</linearGradient>
<clipPath id="clip0_110_1228">
<rect width="24" height="24" fill="white"/>
</clipPath>
</defs>
</svg>
