<svg width="24" height="24" viewBox="0 0 24 24" fill="none" xmlns="http://www.w3.org/2000/svg">
<g clip-path="url(#clip0_110_1158)">
<path d="M15.0511 12.0004C15.9156 12.0004 16.6163 11.2996 16.6163 10.4352C16.6163 9.57073 15.9156 8.86996 15.0511 8.86996C14.1867 8.86996 13.4859 9.57073 13.4859 10.4352C13.4859 11.2996 14.1867 12.0004 15.0511 12.0004Z" fill="url(#paint0_linear_110_1158)"/>
<path d="M11.7317 13.7551C11.7815 13.8032 11.8212 13.8608 11.8486 13.9244C11.8759 13.9881 11.8903 14.0565 11.8909 14.1258C11.8915 14.1951 11.8783 14.2638 11.8521 14.3279C11.8259 14.392 11.7871 14.4503 11.7381 14.4993C11.6892 14.5483 11.6309 14.587 11.5668 14.6132C11.5027 14.6395 11.434 14.6527 11.3647 14.6521C11.2954 14.6515 11.2269 14.6371 11.1633 14.6097C11.0996 14.5824 11.0421 14.5426 10.9939 14.4928C9.91772 13.4165 9.3131 11.9568 9.3131 10.4348C9.3131 8.91273 9.91772 7.45302 10.9939 6.37675C11.0421 6.32692 11.0996 6.28717 11.1633 6.25983C11.2269 6.23248 11.2954 6.21809 11.3647 6.21749C11.434 6.21689 11.5027 6.23009 11.5668 6.25632C11.6309 6.28255 11.6892 6.32129 11.7381 6.37028C11.7871 6.41927 11.8259 6.47752 11.8521 6.54164C11.8783 6.60576 11.8915 6.67446 11.8909 6.74373C11.8903 6.81301 11.8759 6.88147 11.8486 6.94512C11.8212 7.00878 11.7815 7.06635 11.7317 7.11448C11.2956 7.5505 10.9498 8.06814 10.7138 8.63784C10.4778 9.20754 10.3563 9.81814 10.3563 10.4348C10.3563 11.0514 10.4778 11.662 10.7138 12.2317C10.9498 12.8014 11.2956 13.3191 11.7317 13.7551ZM19.11 14.4928C19.0116 14.5878 18.8798 14.6404 18.743 14.6392C18.6062 14.6381 18.4754 14.5832 18.3786 14.4865C18.2819 14.3897 18.227 14.2589 18.2258 14.1221C18.2247 13.9853 18.2772 13.8535 18.3723 13.7551C18.8083 13.3191 19.1542 12.8014 19.3902 12.2317C19.6261 11.662 19.7476 11.0514 19.7476 10.4348C19.7476 9.81814 19.6261 9.20754 19.3902 8.63784C19.1542 8.06814 18.8083 7.5505 18.3723 7.11448C18.3224 7.06635 18.2827 7.00878 18.2554 6.94512C18.228 6.88147 18.2136 6.81301 18.213 6.74373C18.2124 6.67446 18.2256 6.60576 18.2519 6.54164C18.2781 6.47752 18.3168 6.41927 18.3658 6.37028C18.4148 6.32129 18.473 6.28255 18.5372 6.25632C18.6013 6.23009 18.67 6.21689 18.7393 6.21749C18.8085 6.21809 18.877 6.23248 18.9407 6.25983C19.0043 6.28717 19.0619 6.32692 19.11 6.37675C20.1862 7.45302 20.7908 8.91273 20.7908 10.4348C20.7908 11.9568 20.1862 13.4165 19.11 14.4928Z" fill="url(#paint1_linear_110_1158)"/>
<path d="M8.79035 24.0002H15.7028L15.5729 12.9916C16.2063 12.8623 16.7691 12.5024 17.1523 11.9818C17.5354 11.4611 17.7116 10.8167 17.6466 10.1735C17.5816 9.53027 17.2801 8.93411 16.8006 8.50057C16.321 8.06703 15.6976 7.827 15.0511 7.827C14.4047 7.827 13.7812 8.06703 13.3017 8.50057C12.8221 8.93411 12.5207 9.53027 12.4557 10.1735C12.3907 10.8167 12.5669 11.4611 12.95 11.9818C13.3332 12.5024 13.896 12.8623 14.5294 12.9916V18.2611C14.5276 19.7826 13.9224 21.2414 12.8465 22.3172C11.7706 23.3931 10.3119 23.9984 8.79035 24.0002Z" fill="url(#paint2_linear_110_1158)"/>
<g filter="url(#filter0_bi_110_1158)">
<path d="M18.1819 24C18.4587 24 18.7241 23.8901 18.9198 23.6944C19.1154 23.4987 19.2254 23.2333 19.2254 22.9565V18.7686C21.005 17.4352 22.3117 15.5678 22.9546 13.439C23.5974 11.3102 23.5427 9.0316 22.7985 6.93611C22.0542 4.84061 20.6594 3.03799 18.8178 1.79157C16.9762 0.545156 14.7843 -0.0797467 12.5623 0.00815067C6.91563 0.221017 2.52995 5.04026 2.52995 10.6911V11.3694L0.690325 15.5067C0.581431 15.752 0.571253 16.0299 0.661907 16.2825C0.752562 16.5351 0.937075 16.7431 1.1771 16.8632L2.52995 17.5399V21.3913C2.52995 22.0832 2.80479 22.7467 3.29401 23.2359C3.78323 23.7252 4.44675 24 5.13861 24H18.1819Z" fill="url(#paint3_linear_110_1158)" fill-opacity="0.2"/>
<path d="M19.1354 18.6485L19.0754 18.6935V18.7686V22.9565C19.0754 23.1935 18.9812 23.4208 18.8137 23.5883C18.6461 23.7559 18.4189 23.85 18.1819 23.85H5.13861C4.48654 23.85 3.86117 23.591 3.40008 23.1299C2.93899 22.6688 2.67995 22.0434 2.67995 21.3913V17.5399V17.4472L2.59705 17.4058L1.24423 16.7291C1.24422 16.7291 1.24421 16.7291 1.2442 16.7291C1.03869 16.6262 0.880712 16.4482 0.803092 16.2318C0.72547 16.0155 0.734184 15.7776 0.827425 15.5676L2.66701 11.4303L2.67995 11.4012V11.3694V10.6911C2.67995 5.11603 7.00665 0.367693 12.568 0.158044L12.5683 0.158033C14.7583 0.0714008 16.9187 0.687312 18.7337 1.91579C20.5488 3.14428 21.9236 4.92096 22.6571 6.98631C23.3906 9.05166 23.4446 11.2974 22.811 13.3956C22.1774 15.4938 20.8895 17.3344 19.1354 18.6485Z" stroke="url(#paint4_linear_110_1158)" stroke-opacity="0.1" stroke-width="0.3"/>
</g>
<g filter="url(#filter1_i_110_1158)">
<path d="M11.732 13.7549C11.7819 13.803 11.8216 13.8606 11.849 13.9243C11.8763 13.9879 11.8907 14.0564 11.8913 14.1256C11.8919 14.1949 11.8787 14.2636 11.8525 14.3277C11.8262 14.3919 11.7875 14.4501 11.7385 14.4991C11.6895 14.5481 11.6313 14.5868 11.5672 14.6131C11.503 14.6393 11.4343 14.6525 11.3651 14.6519C11.2958 14.6513 11.2273 14.6369 11.1637 14.6095C11.1 14.5822 11.0424 14.5425 10.9943 14.4926C9.91809 13.4164 9.31348 11.9566 9.31348 10.4346C9.31348 8.91255 9.91809 7.45284 10.9943 6.37656C11.0424 6.32673 11.1 6.28699 11.1637 6.25964C11.2273 6.2323 11.2958 6.21791 11.3651 6.2173C11.4343 6.2167 11.503 6.2299 11.5672 6.25614C11.6313 6.28237 11.6895 6.32111 11.7385 6.3701C11.7875 6.41908 11.8262 6.47734 11.8525 6.54145C11.8787 6.60557 11.8919 6.67428 11.8913 6.74355C11.8907 6.81283 11.8763 6.88129 11.849 6.94494C11.8216 7.00859 11.7819 7.06616 11.732 7.11429C11.296 7.55032 10.9501 8.06796 10.7142 8.63766C10.4782 9.20736 10.3567 9.81796 10.3567 10.4346C10.3567 11.0512 10.4782 11.6618 10.7142 12.2315C10.9501 12.8012 11.296 13.3189 11.732 13.7549ZM19.1104 14.4926C19.012 14.5877 18.8802 14.6403 18.7434 14.6391C18.6066 14.6379 18.4757 14.583 18.379 14.4863C18.2823 14.3895 18.2274 14.2587 18.2262 14.1219C18.225 13.9851 18.2776 13.8533 18.3727 13.7549C18.8087 13.3189 19.1546 12.8012 19.3905 12.2315C19.6265 11.6618 19.748 11.0512 19.748 10.4346C19.748 9.81796 19.6265 9.20736 19.3905 8.63766C19.1546 8.06796 18.8087 7.55032 18.3727 7.11429C18.3228 7.06616 18.2831 7.00859 18.2557 6.94494C18.2284 6.88129 18.214 6.81283 18.2134 6.74355C18.2128 6.67428 18.226 6.60557 18.2522 6.54145C18.2785 6.47734 18.3172 6.41908 18.3662 6.3701C18.4152 6.32111 18.4734 6.28237 18.5375 6.25614C18.6017 6.2299 18.6704 6.2167 18.7396 6.2173C18.8089 6.21791 18.8774 6.2323 18.941 6.25964C19.0047 6.28699 19.0623 6.32673 19.1104 6.37656C20.1866 7.45284 20.7912 8.91255 20.7912 10.4346C20.7912 11.9566 20.1866 13.4164 19.1104 14.4926Z" fill="white" fill-opacity="0.16"/>
</g>
<g filter="url(#filter2_i_110_1158)">
<path d="M8.79004 24.0003H15.7025L15.5726 12.9918C16.206 12.8625 16.7688 12.5026 17.1519 11.9819C17.5351 11.4612 17.7113 10.8168 17.6463 10.1736C17.5813 9.53042 17.2798 8.93427 16.8003 8.50073C16.3207 8.06719 15.6973 7.82715 15.0508 7.82715C14.4044 7.82715 13.7809 8.06719 13.3014 8.50073C12.8218 8.93427 12.5203 9.53042 12.4554 10.1736C12.3904 10.8168 12.5666 11.4612 12.9497 11.9819C13.3329 12.5026 13.8957 12.8625 14.5291 12.9918V18.2613C14.5273 19.7828 13.9221 21.2415 12.8462 22.3174C11.7703 23.3933 10.3116 23.9985 8.79004 24.0003Z" fill="white" fill-opacity="0.16"/>
</g>
</g>
<defs>
<filter id="filter0_bi_110_1158" x="-5.39941" y="-6" width="34.7991" height="36" filterUnits="userSpaceOnUse" color-interpolation-filters="sRGB">
<feFlood flood-opacity="0" result="BackgroundImageFix"/>
<feGaussianBlur in="BackgroundImageFix" stdDeviation="3"/>
<feComposite in2="SourceAlpha" operator="in" result="effect1_backgroundBlur_110_1158"/>
<feBlend mode="normal" in="SourceGraphic" in2="effect1_backgroundBlur_110_1158" result="shape"/>
<feColorMatrix in="SourceAlpha" type="matrix" values="0 0 0 0 0 0 0 0 0 0 0 0 0 0 0 0 0 0 127 0" result="hardAlpha"/>
<feOffset dy="1"/>
<feGaussianBlur stdDeviation="1.5"/>
<feComposite in2="hardAlpha" operator="arithmetic" k2="-1" k3="1"/>
<feColorMatrix type="matrix" values="0 0 0 0 1 0 0 0 0 1 0 0 0 0 1 0 0 0 0.4 0"/>
<feBlend mode="normal" in2="shape" result="effect2_innerShadow_110_1158"/>
</filter>
<filter id="filter1_i_110_1158" x="9.31348" y="6.21729" width="11.4777" height="10.4346" filterUnits="userSpaceOnUse" color-interpolation-filters="sRGB">
<feFlood flood-opacity="0" result="BackgroundImageFix"/>
<feBlend mode="normal" in="SourceGraphic" in2="BackgroundImageFix" result="shape"/>
<feColorMatrix in="SourceAlpha" type="matrix" values="0 0 0 0 0 0 0 0 0 0 0 0 0 0 0 0 0 0 127 0" result="hardAlpha"/>
<feOffset dy="2"/>
<feGaussianBlur stdDeviation="1"/>
<feComposite in2="hardAlpha" operator="arithmetic" k2="-1" k3="1"/>
<feColorMatrix type="matrix" values="0 0 0 0 1 0 0 0 0 1 0 0 0 0 1 0 0 0 0.4 0"/>
<feBlend mode="normal" in2="shape" result="effect1_innerShadow_110_1158"/>
</filter>
<filter id="filter2_i_110_1158" x="8.79004" y="7.82715" width="8.86945" height="18.1732" filterUnits="userSpaceOnUse" color-interpolation-filters="sRGB">
<feFlood flood-opacity="0" result="BackgroundImageFix"/>
<feBlend mode="normal" in="SourceGraphic" in2="BackgroundImageFix" result="shape"/>
<feColorMatrix in="SourceAlpha" type="matrix" values="0 0 0 0 0 0 0 0 0 0 0 0 0 0 0 0 0 0 127 0" result="hardAlpha"/>
<feOffset dy="2"/>
<feGaussianBlur stdDeviation="1"/>
<feComposite in2="hardAlpha" operator="arithmetic" k2="-1" k3="1"/>
<feColorMatrix type="matrix" values="0 0 0 0 1 0 0 0 0 1 0 0 0 0 1 0 0 0 0.4 0"/>
<feBlend mode="normal" in2="shape" result="effect1_innerShadow_110_1158"/>
</filter>
<linearGradient id="paint0_linear_110_1158" x1="13.4859" y1="8.86996" x2="17.1734" y2="9.80629" gradientUnits="userSpaceOnUse">
<stop stop-color="#75A5FF"/>
<stop offset="0.703125" stop-color="#2339FF"/>
</linearGradient>
<linearGradient id="paint1_linear_110_1158" x1="9.3131" y1="6.21747" x2="22.1702" y2="10.66" gradientUnits="userSpaceOnUse">
<stop stop-color="#75A5FF"/>
<stop offset="0.703125" stop-color="#2339FF"/>
</linearGradient>
<linearGradient id="paint2_linear_110_1158" x1="8.79035" y1="7.827" x2="19.7004" y2="9.34622" gradientUnits="userSpaceOnUse">
<stop stop-color="#75A5FF"/>
<stop offset="0.703125" stop-color="#2339FF"/>
</linearGradient>
<linearGradient id="paint3_linear_110_1158" x1="0.600586" y1="0" x2="27.6169" y2="6.51667" gradientUnits="userSpaceOnUse">
<stop stop-color="#83E9FF"/>
<stop offset="0.453125" stop-color="#85A0FF"/>
</linearGradient>
<linearGradient id="paint4_linear_110_1158" x1="1.31306" y1="1.09091" x2="23.3997" y2="1.09091" gradientUnits="userSpaceOnUse">
<stop stop-color="#3CDEB6"/>
<stop offset="0.65625" stop-color="#364AFF"/>
</linearGradient>
<clipPath id="clip0_110_1158">
<rect width="24" height="24" fill="white"/>
</clipPath>
</defs>
</svg>
