<svg width="64" height="64" viewBox="0 0 64 64" fill="none" xmlns="http://www.w3.org/2000/svg">
<path d="M24.5788 7.99226C24.2203 7.37782 23.5625 7 22.8512 7H13.482C11.9384 7 10.9767 8.67443 11.7545 10.0077L23.4211 30.0077C23.7795 30.6222 24.4373 31 25.1487 31H34.5179C36.0614 31 37.0232 29.3256 36.2454 27.9923L24.5788 7.99226Z" fill="url(#paint0_linear_7_261)"/>
<path d="M39.4211 7.99226C39.7795 7.37782 40.4373 7 41.1487 7H50.5179C52.0614 7 53.0232 8.67443 52.2454 10.0077L40.5788 30.0077C40.2203 30.6222 39.5625 31 38.8512 31H29.482C27.9384 31 26.9767 29.3256 27.7545 27.9923L39.4211 7.99226Z" fill="url(#paint1_linear_7_261)"/>
<path d="M50 38C50 47.9411 41.9411 56 32 56C22.0589 56 14 47.9411 14 38C14 28.0589 22.0589 20 32 20C41.9411 20 50 28.0589 50 38Z" fill="url(#paint2_linear_7_261)"/>
<path d="M46 38C46 45.732 39.732 52 32 52C24.268 52 18 45.732 18 38C18 30.268 24.268 24 32 24C39.732 24 46 30.268 46 38Z" fill="url(#paint3_linear_7_261)"/>
<defs>
<linearGradient id="paint0_linear_7_261" x1="25.473" y1="7" x2="25.473" y2="31" gradientUnits="userSpaceOnUse">
<stop stop-color="white" stop-opacity="0.8"/>
<stop offset="1" stop-color="white" stop-opacity="0"/>
</linearGradient>
<linearGradient id="paint1_linear_7_261" x1="39.9999" y1="7" x2="39.9999" y2="31" gradientUnits="userSpaceOnUse">
<stop stop-color="white" stop-opacity="0.5"/>
<stop offset="1" stop-color="white" stop-opacity="0"/>
</linearGradient>
<linearGradient id="paint2_linear_7_261" x1="32" y1="20" x2="32" y2="56" gradientUnits="userSpaceOnUse">
<stop stop-color="white" stop-opacity="0.5"/>
<stop offset="1" stop-color="white" stop-opacity="0"/>
</linearGradient>
<linearGradient id="paint3_linear_7_261" x1="30.3529" y1="24" x2="30.3529" y2="52" gradientUnits="userSpaceOnUse">
<stop stop-color="white" stop-opacity="0.8"/>
<stop offset="1" stop-color="white" stop-opacity="0"/>
</linearGradient>
</defs>
</svg>
