<svg width="92" height="109" viewBox="0 0 92 109" fill="none" xmlns="http://www.w3.org/2000/svg">
<g clip-path="url(#clip0_26_19)">
<path d="M3.91963 50.9527C4.91598 45.8286 5.41415 43.2665 6.60304 41.2684C8.18822 38.6042 10.6508 36.5744 13.5685 35.5269C15.7568 34.7412 18.3669 34.7412 23.5869 34.7412L68.4732 34.7412C73.6932 34.7412 76.3033 34.7412 78.4916 35.5269C81.4093 36.5744 83.8719 38.6042 85.4571 41.2684C86.6459 43.2665 87.1441 45.8286 88.1405 50.9527C89.5522 58.2128 90.258 61.8429 89.5217 64.7427C88.5399 68.6092 85.8813 71.8345 82.2733 73.5362C79.5673 74.8125 75.8693 74.8125 68.4732 74.8125H23.5869C16.1908 74.8125 12.4928 74.8125 9.78677 73.5362C6.17876 71.8345 3.5202 68.6092 2.53842 64.7427C1.80209 61.8429 2.50794 58.2128 3.91963 50.9527Z" fill="url(#paint0_linear_26_19)"/>
<g filter="url(#filter0_b_26_19)">
<circle cx="46.6053" cy="26.682" r="25.2969" fill="#BFB5FF" fill-opacity="0.6"/>
<circle cx="46.6053" cy="26.682" r="24.991" stroke="url(#paint1_linear_26_19)" stroke-width="0.611895"/>
</g>
<g filter="url(#filter1_b_26_19)">
<path d="M4.52521 84.6222C4.52521 96.1014 13.8309 105.407 25.3101 105.407L66.88 105.407C78.3592 105.407 87.665 96.1014 87.665 84.6222C87.665 69.3166 75.2492 56.9089 59.9436 56.9089C50.0673 56.9089 42.1229 56.9089 32.2466 56.9089C16.941 56.9089 4.52521 69.3166 4.52521 84.6222Z" fill="#BFB5FF" fill-opacity="0.6"/>
<path d="M4.83116 84.6222C4.83116 95.9324 13.9999 105.101 25.3101 105.101L66.88 105.101C78.1902 105.101 87.359 95.9324 87.359 84.6222C87.359 69.4857 75.0803 57.2149 59.9436 57.2149L59.8857 57.2149L59.8279 57.2149L59.7702 57.2149L59.7125 57.2149L59.6548 57.2149L59.5972 57.2149L59.5396 57.2149L59.482 57.2149L59.4245 57.2149L59.3671 57.2149L59.3097 57.2149L59.2523 57.2149L59.195 57.2149L59.1377 57.2149L59.0804 57.2149L59.0232 57.2149L58.9661 57.2149L58.9089 57.2149L58.8519 57.2149L58.7948 57.2149L58.7378 57.2149L58.6809 57.2149L58.6239 57.2149L58.5671 57.2149L58.5102 57.2149L58.4534 57.2149L58.3967 57.2149L58.34 57.2149L58.2833 57.2149L58.2266 57.2149L58.17 57.2149L58.1135 57.2149L58.057 57.2149L58.0005 57.2149L57.944 57.2149L57.8876 57.2149L57.8312 57.2149L57.7749 57.2149L57.7186 57.2149L57.6624 57.2149L57.6061 57.2149L57.55 57.2149L57.4938 57.2149L57.4377 57.2149L57.3816 57.2149L57.3256 57.2149L57.2696 57.2149L57.2136 57.2149L57.1577 57.2149L57.1018 57.2149L57.046 57.2149L56.9901 57.2149L56.9343 57.2149L56.8786 57.2149L56.8229 57.2149L56.7672 57.2149L56.7116 57.2149L56.6559 57.2149L56.6004 57.2149L56.5448 57.2149L56.4893 57.2149L56.4338 57.2149L56.3784 57.2149L56.323 57.2149L56.2676 57.2149L56.2123 57.2149L56.157 57.2149L56.1017 57.2149L56.0464 57.2149L55.9912 57.2149L55.936 57.2149L55.8809 57.2149L55.8258 57.2149L55.7707 57.2149L55.7156 57.2149L55.6606 57.2149L55.6056 57.2149L55.5507 57.2149L55.4957 57.2149L55.4408 57.2149L55.386 57.2149L55.3311 57.2149L55.2763 57.2149L55.2215 57.2149L55.1668 57.2149L55.1121 57.2149L55.0574 57.2149L55.0027 57.2149L54.9481 57.2149L54.8935 57.2149L54.8389 57.2149L54.7844 57.2149L54.7298 57.2149L54.6753 57.2149L54.6209 57.2149L54.5665 57.2149L54.512 57.2149L54.4577 57.2149L54.4033 57.2149L54.349 57.2149L54.2947 57.2149L54.2404 57.2149L54.1862 57.2149L54.132 57.2149L54.0778 57.2149L54.0236 57.2149L53.9695 57.2149L53.9154 57.2149L53.8613 57.2149L53.8072 57.2149L53.7532 57.2149L53.6992 57.2149L53.6452 57.2149L53.5912 57.2149L53.5373 57.2149L53.4833 57.2149L53.4295 57.2149L53.3756 57.2149L53.3218 57.2149L53.2679 57.2149L53.2141 57.2149L53.1604 57.2149L53.1066 57.2149L53.0529 57.2149L52.9992 57.2149L52.9455 57.2149L52.8919 57.2149L52.8382 57.2149L52.7846 57.2149L52.731 57.2149L52.6774 57.2149L52.6239 57.2149L52.5704 57.2149L52.5169 57.2149L52.4634 57.2149L52.4099 57.2149L52.3565 57.2149L52.3031 57.2149L52.2497 57.2149L52.1963 57.2149L52.1429 57.2149L52.0896 57.2149L52.0363 57.2149L51.9829 57.2149L51.9297 57.2149L51.8764 57.2149L51.8232 57.2149L51.7699 57.2149L51.7167 57.2149L51.6635 57.2149L51.6104 57.2149L51.5572 57.2149L51.5041 57.2149L51.451 57.2149L51.3979 57.2149L51.3448 57.2149L51.2917 57.2149L51.2387 57.2149L51.1856 57.2149L51.1326 57.2149L51.0796 57.2149L51.0267 57.2149L50.9737 57.2149L50.9207 57.2149L50.8678 57.2149L50.8149 57.2149L50.762 57.2149L50.7091 57.2149L50.6562 57.2149L50.6034 57.2149L50.5505 57.2149L50.4977 57.2149L50.4449 57.2149L50.3921 57.2149L50.3393 57.2149L50.2866 57.2149L50.2338 57.2149L50.1811 57.2149L50.1283 57.2149L50.0756 57.2149L50.0229 57.2149L49.9702 57.2149L49.9176 57.2149L49.8649 57.2149L49.8122 57.2149L49.7596 57.2149L49.707 57.2149L49.6544 57.2149L49.6018 57.2149L49.5492 57.2149L49.4966 57.2149L49.444 57.2149L49.3915 57.2149L49.3389 57.2149L49.2864 57.2149L49.2339 57.2149L49.1813 57.2149L49.1288 57.2149L49.0763 57.2149L49.0239 57.2149L48.9714 57.2149L48.9189 57.2149L48.8665 57.2149L48.814 57.2149L48.7616 57.2149L48.7091 57.2149L48.6567 57.2149L48.6043 57.2149L48.5519 57.2149L48.4995 57.2149L48.4471 57.2149L48.3947 57.2149L48.3424 57.2149L48.29 57.2149L48.2376 57.2149L48.1853 57.2149L48.133 57.2149L48.0806 57.2149L48.0283 57.2149L47.976 57.2149L47.9236 57.2149L47.8713 57.2149L47.819 57.2149L47.7667 57.2149L47.7144 57.2149L47.6621 57.2149L47.6099 57.2149L47.5576 57.2149L47.5053 57.2149L47.453 57.2149L47.4008 57.2149L47.3485 57.2149L47.2963 57.2149L47.244 57.2149L47.1918 57.2149L47.1395 57.2149L47.0873 57.2149L47.035 57.2149L46.9828 57.2149L46.9306 57.2149L46.8783 57.2149L46.8261 57.2149L46.7739 57.2149L46.7217 57.2149L46.6694 57.2149L46.6172 57.2149L46.565 57.2149L46.5128 57.2149L46.4606 57.2149L46.4084 57.2149L46.3561 57.2149L46.3039 57.2149L46.2517 57.2149L46.1995 57.2149L46.1473 57.2149L46.0951 57.2149L46.0429 57.2149L45.9907 57.2149L45.9385 57.2149L45.8863 57.2149L45.8341 57.2149L45.7818 57.2149L45.7296 57.2149L45.6774 57.2149L45.6252 57.2149L45.573 57.2149L45.5208 57.2149L45.4685 57.2149L45.4163 57.2149L45.3641 57.2149L45.3119 57.2149L45.2596 57.2149L45.2074 57.2149L45.1552 57.2149L45.1029 57.2149L45.0507 57.2149L44.9984 57.2149L44.9462 57.2149L44.8939 57.2149L44.8417 57.2149L44.7894 57.2149L44.7372 57.2149L44.6849 57.2149L44.6326 57.2149L44.5803 57.2149L44.5281 57.2149L44.4758 57.2149L44.4235 57.2149L44.3712 57.2149L44.3189 57.2149L44.2665 57.2149L44.2142 57.2149L44.1619 57.2149L44.1096 57.2149L44.0572 57.2149L44.0049 57.2149L43.9525 57.2149L43.9002 57.2149L43.8478 57.2149L43.7954 57.2149L43.7431 57.2149L43.6907 57.2149L43.6383 57.2149L43.5859 57.2149L43.5335 57.2149L43.481 57.2149L43.4286 57.2149L43.3762 57.2149L43.3237 57.2149L43.2713 57.2149L43.2188 57.2149L43.1663 57.2149L43.1139 57.2149L43.0614 57.2149L43.0089 57.2149L42.9563 57.2149L42.9038 57.2149L42.8513 57.2149L42.7987 57.2149L42.7462 57.2149L42.6936 57.2149L42.641 57.2149L42.5884 57.2149L42.5358 57.2149L42.4832 57.2149L42.4306 57.2149L42.378 57.2149L42.3253 57.2149L42.2726 57.2149L42.22 57.2149L42.1673 57.2149L42.1146 57.2149L42.0619 57.2149L42.0091 57.2149L41.9564 57.2149L41.9036 57.2149L41.8509 57.2149L41.7981 57.2149L41.7453 57.2149L41.6925 57.2149L41.6397 57.2149L41.5868 57.2149L41.534 57.2149L41.4811 57.2149L41.4282 57.2149L41.3753 57.2149L41.3224 57.2149L41.2695 57.2149L41.2165 57.2149L41.1635 57.2149L41.1106 57.2149L41.0576 57.2149L41.0046 57.2149L40.9515 57.2149L40.8985 57.2149L40.8454 57.2149L40.7923 57.2149L40.7392 57.2149L40.6861 57.2149L40.633 57.2149L40.5798 57.2149L40.5267 57.2149L40.4735 57.2149L40.4203 57.2149L40.367 57.2149L40.3138 57.2149L40.2605 57.2149L40.2072 57.2149L40.1539 57.2149L40.1006 57.2149L40.0473 57.2149L39.9939 57.2149L39.9405 57.2149L39.8871 57.2149L39.8337 57.2149L39.7803 57.2149L39.7268 57.2149L39.6733 57.2149L39.6198 57.2149L39.5663 57.2149L39.5127 57.2149L39.4592 57.2149L39.4056 57.2149L39.352 57.2149L39.2983 57.2149L39.2447 57.2149L39.191 57.2149L39.1373 57.2149L39.0836 57.2149L39.0298 57.2149L38.9761 57.2149L38.9223 57.2149L38.8684 57.2149L38.8146 57.2149L38.7607 57.2149L38.7068 57.2149L38.6529 57.2149L38.599 57.2149L38.545 57.2149L38.491 57.2149L38.437 57.2149L38.383 57.2149L38.3289 57.2149L38.2748 57.2149L38.2207 57.2149L38.1666 57.2149L38.1124 57.2149L38.0582 57.2149L38.004 57.2149L37.9498 57.2149L37.8955 57.2149L37.8412 57.2149L37.7869 57.2149L37.7325 57.2149L37.6782 57.2149L37.6237 57.2149L37.5693 57.2149L37.5148 57.2149L37.4604 57.2149L37.4058 57.2149L37.3513 57.2149L37.2967 57.2149L37.2421 57.2149L37.1875 57.2149L37.1328 57.2149L37.0781 57.2149L37.0234 57.2149L36.9687 57.2149L36.9139 57.2149L36.8591 57.2149L36.8042 57.2149L36.7494 57.2149L36.6945 57.2149L36.6395 57.2149L36.5846 57.2149L36.5296 57.2149L36.4746 57.2149L36.4195 57.2149L36.3644 57.2149L36.3093 57.2149L36.2542 57.2149L36.199 57.2149L36.1438 57.2149L36.0885 57.2149L36.0332 57.2149L35.9779 57.2149L35.9226 57.2149L35.8672 57.2149L35.8118 57.2149L35.7564 57.2149L35.7009 57.2149L35.6454 57.2149L35.5898 57.2149L35.5343 57.2149L35.4786 57.2149L35.423 57.2149L35.3673 57.2149L35.3116 57.2149L35.2559 57.2149L35.2001 57.2149L35.1442 57.2149L35.0884 57.2149L35.0325 57.2149L34.9766 57.2149L34.9206 57.2149L34.8646 57.2149L34.8086 57.2149L34.7525 57.2149L34.6964 57.2149L34.6402 57.2149L34.5841 57.2149L34.5278 57.2149L34.4716 57.2149L34.4153 57.2149L34.359 57.2149L34.3026 57.2149L34.2462 57.2149L34.1897 57.2149L34.1332 57.2149L34.0767 57.2149L34.0202 57.2149L33.9636 57.2149L33.9069 57.2149L33.8502 57.2149L33.7935 57.2149L33.7368 57.2149L33.68 57.2149L33.6231 57.2149L33.5663 57.2149L33.5093 57.2149L33.4524 57.2149L33.3954 57.2149L33.3383 57.2149L33.2813 57.2149L33.2241 57.2149L33.167 57.2149L33.1098 57.2149L33.0525 57.2149L32.9952 57.2149L32.9379 57.2149L32.8805 57.2149L32.8231 57.2149L32.7657 57.2149L32.7082 57.2149L32.6506 57.2149L32.593 57.2149L32.5354 57.2149L32.4777 57.2149L32.42 57.2149L32.3623 57.2149L32.3045 57.2149L32.2466 57.2149C17.1099 57.2149 4.83116 69.4856 4.83116 84.6222Z" stroke="url(#paint2_linear_26_19)" stroke-width="0.611895"/>
</g>
</g>
<defs>
<filter id="filter0_b_26_19" x="8.65996" y="-11.2634" width="75.8907" height="75.8907" filterUnits="userSpaceOnUse" color-interpolation-filters="sRGB">
<feFlood flood-opacity="0" result="BackgroundImageFix"/>
<feGaussianBlur in="BackgroundImageFix" stdDeviation="6.32423"/>
<feComposite in2="SourceAlpha" operator="in" result="effect1_backgroundBlur_26_19"/>
<feBlend mode="normal" in="SourceGraphic" in2="effect1_backgroundBlur_26_19" result="shape"/>
</filter>
<filter id="filter1_b_26_19" x="-9.33142" y="43.0523" width="110.853" height="76.2115" filterUnits="userSpaceOnUse" color-interpolation-filters="sRGB">
<feFlood flood-opacity="0" result="BackgroundImageFix"/>
<feGaussianBlur in="BackgroundImageFix" stdDeviation="6.92831"/>
<feComposite in2="SourceAlpha" operator="in" result="effect1_backgroundBlur_26_19"/>
<feBlend mode="normal" in="SourceGraphic" in2="effect1_backgroundBlur_26_19" result="shape"/>
</filter>
<linearGradient id="paint0_linear_26_19" x1="26.2513" y1="43.5068" x2="75.0543" y2="82.667" gradientUnits="userSpaceOnUse">
<stop stop-color="#917FFB"/>
<stop offset="1" stop-color="#3F2DAF"/>
</linearGradient>
<linearGradient id="paint1_linear_26_19" x1="21.3084" y1="10.8714" x2="45.6172" y2="50.7956" gradientUnits="userSpaceOnUse">
<stop stop-color="white"/>
<stop offset="0.99715" stop-color="white" stop-opacity="0"/>
</linearGradient>
<linearGradient id="paint2_linear_26_19" x1="8.42301" y1="61.221" x2="90.4028" y2="99.1108" gradientUnits="userSpaceOnUse">
<stop stop-color="white"/>
<stop offset="1" stop-color="white" stop-opacity="0"/>
</linearGradient>
<clipPath id="clip0_26_19">
<rect width="92" height="109" fill="white"/>
</clipPath>
</defs>
</svg>
