<svg width="95" height="99" viewBox="0 0 95 99" fill="none" xmlns="http://www.w3.org/2000/svg">
<g filter="url(#filter0_b_26_693)">
<path fill-rule="evenodd" clip-rule="evenodd" d="M24.2171 19.7205V19.7097C24.2171 10.037 32.0584 2.19568 41.7311 2.19568H54.4686C64.1414 2.19568 71.9827 10.037 71.9827 19.7097V19.7205C80.8796 19.7854 85.7513 20.2411 88.9507 23.4405C92.6814 27.1712 92.6814 33.1757 92.6814 45.1847V57.9222H3.51901V45.1847C3.51901 33.1757 3.51901 27.1712 7.24973 23.4405C10.4491 20.2412 15.3206 19.7855 24.2171 19.7205ZM33.7702 19.7097C33.7702 15.313 37.3344 11.7488 41.7311 11.7488H54.4686C58.8653 11.7488 62.4295 15.313 62.4295 19.7097L33.7702 19.7097Z" fill="url(#paint0_linear_26_693)"/>
</g>
<g filter="url(#filter1_b_26_693)">
<mask id="path-2-inside-1_26_693" fill="white">
<path d="M3.51891 57.9222C3.51891 45.9132 3.51891 39.9087 7.24963 36.178C7.24963 36.178 7.24963 36.178 7.24963 36.178C10.9804 32.4473 16.9849 32.4473 28.9939 32.4473H67.2063C79.2153 32.4473 85.2198 32.4473 88.9506 36.178C88.9506 36.178 88.9506 36.178 88.9506 36.178C92.6813 39.9087 92.6813 45.9132 92.6813 57.9222C92.6813 75.9358 92.6813 84.9425 87.0852 90.5386V90.5386C81.4891 96.1347 72.4824 96.1347 54.4689 96.1347H41.7314C23.7178 96.1347 14.7111 96.1347 9.11499 90.5386C9.11499 90.5386 9.11499 90.5386 9.11499 90.5386C3.51891 84.9425 3.51891 75.9358 3.51891 57.9222Z"/>
</mask>
<path d="M3.51891 57.9222C3.51891 45.9132 3.51891 39.9087 7.24963 36.178C7.24963 36.178 7.24963 36.178 7.24963 36.178C10.9804 32.4473 16.9849 32.4473 28.9939 32.4473H67.2063C79.2153 32.4473 85.2198 32.4473 88.9506 36.178C88.9506 36.178 88.9506 36.178 88.9506 36.178C92.6813 39.9087 92.6813 45.9132 92.6813 57.9222C92.6813 75.9358 92.6813 84.9425 87.0852 90.5386V90.5386C81.4891 96.1347 72.4824 96.1347 54.4689 96.1347H41.7314C23.7178 96.1347 14.7111 96.1347 9.11499 90.5386C9.11499 90.5386 9.11499 90.5386 9.11499 90.5386C3.51891 84.9425 3.51891 75.9358 3.51891 57.9222Z" fill="#F8B77B" fill-opacity="0.6"/>
<path d="M9.11499 90.5386L9.54767 90.1059L9.11499 90.5386ZM9.11499 90.5386L9.54766 90.1059L9.11499 90.5386ZM87.0852 90.5386L86.6525 90.1059L87.0852 90.5386ZM87.0852 90.5386L86.6525 90.1059L87.0852 90.5386ZM88.9506 36.178L89.3832 35.7453L88.9506 36.178ZM88.9506 36.178L89.3832 35.7453L88.9506 36.178ZM7.24963 36.178L6.81695 35.7453L7.24963 36.178ZM7.24963 36.178L6.81695 35.7453L7.24963 36.178ZM28.9939 33.0592H67.2063V31.8354H28.9939V33.0592ZM54.4689 95.5228H41.7314V96.7466H54.4689V95.5228ZM41.7314 95.5228C32.7073 95.5228 26.0008 95.5215 20.8482 94.8287C15.7131 94.1383 12.2131 92.7713 9.54767 90.1059L8.68231 90.9713C11.613 93.902 15.4144 95.333 20.6851 96.0416C25.9382 96.7479 32.7419 96.7466 41.7314 96.7466V95.5228ZM2.90701 57.9222C2.90701 66.9117 2.90571 73.7154 3.61198 78.9685C4.32061 84.2392 5.75163 88.0406 8.68231 90.9713L9.54766 90.1059C6.88226 87.4405 5.51524 83.9405 4.82485 78.8054C4.1321 73.6528 4.1308 66.9463 4.1308 57.9222H2.90701ZM9.54767 90.1059C9.54766 90.1059 9.54766 90.1059 9.54766 90.1059L8.68231 90.9713C8.68231 90.9713 8.68231 90.9713 8.68231 90.9713L9.54767 90.1059ZM92.0694 57.9222C92.0694 66.9463 92.0681 73.6528 91.3754 78.8054C90.685 83.9405 89.3179 87.4405 86.6525 90.1059L87.5179 90.9713C90.4486 88.0406 91.8796 84.2392 92.5882 78.9685C93.2945 73.7154 93.2932 66.9117 93.2932 57.9222H92.0694ZM54.4689 96.7466C63.4583 96.7466 70.262 96.7479 75.5151 96.0416C80.7859 95.333 84.5872 93.902 87.5179 90.9713L86.6525 90.1059C83.9871 92.7713 80.4871 94.1383 75.352 94.8287C70.1994 95.5215 63.4929 95.5228 54.4689 95.5228V96.7466ZM86.6525 90.1059C86.6525 90.1059 86.6525 90.1059 86.6525 90.1059L87.5179 90.9713C87.5179 90.9713 87.5179 90.9713 87.5179 90.9713L86.6525 90.1059ZM67.2063 33.0592C73.2281 33.0592 77.6829 33.0605 81.1013 33.52C84.502 33.9773 86.7852 34.8779 88.5179 36.6107L89.3832 35.7453C87.3852 33.7473 84.8008 32.7826 81.2643 32.3072C77.7455 31.8341 73.1935 31.8354 67.2063 31.8354V33.0592ZM93.2932 57.9222C93.2932 51.935 93.2945 47.3831 92.8214 43.8642C92.3459 40.3278 91.3812 37.7433 89.3832 35.7453L88.5179 36.6107C90.2506 38.3434 91.1513 40.6265 91.6085 44.0273C92.0681 47.4456 92.0694 51.9004 92.0694 57.9222H93.2932ZM88.5179 36.6107C88.5179 36.6107 88.5179 36.6107 88.5179 36.6107L89.3832 35.7453C89.3832 35.7453 89.3832 35.7453 89.3832 35.7453L88.5179 36.6107ZM28.9939 31.8354C23.0067 31.8354 18.4547 31.8341 14.9359 32.3072C11.3994 32.7826 8.81495 33.7473 6.81695 35.7453L7.6823 36.6107C9.41503 34.8779 11.6982 33.9773 15.0989 33.52C18.5173 33.0605 22.9721 33.0592 28.9939 33.0592V31.8354ZM4.1308 57.9222C4.1308 51.9004 4.1321 47.4456 4.59168 44.0273C5.0489 40.6265 5.94958 38.3434 7.6823 36.6107L6.81695 35.7453C4.81895 37.7433 3.85427 40.3278 3.37881 43.8642C2.90571 47.3831 2.90701 51.935 2.90701 57.9222H4.1308ZM6.81695 35.7453C6.81695 35.7453 6.81695 35.7453 6.81695 35.7453L7.6823 36.6107C7.6823 36.6107 7.6823 36.6107 7.6823 36.6107L6.81695 35.7453Z" fill="url(#paint1_linear_26_693)" mask="url(#path-2-inside-1_26_693)"/>
</g>
<g filter="url(#filter2_b_26_693)">
<rect x="61.1436" y="44.7355" width="6.11896" height="25.6996" rx="3.05948" transform="rotate(90 61.1436 44.7355)" fill="url(#paint2_linear_26_693)" fill-opacity="0.9"/>
<rect x="60.8988" y="44.9802" width="5.62944" height="25.2101" rx="2.81472" transform="rotate(90 60.8988 44.9802)" stroke="url(#paint3_linear_26_693)" stroke-width="0.489516"/>
</g>
<defs>
<filter id="filter0_b_26_693" x="-9.21847" y="-10.5418" width="114.637" height="81.2015" filterUnits="userSpaceOnUse" color-interpolation-filters="sRGB">
<feFlood flood-opacity="0" result="BackgroundImageFix"/>
<feGaussianBlur in="BackgroundImageFix" stdDeviation="6.36874"/>
<feComposite in2="SourceAlpha" operator="in" result="effect1_backgroundBlur_26_693"/>
<feBlend mode="normal" in="SourceGraphic" in2="effect1_backgroundBlur_26_693" result="shape"/>
</filter>
<filter id="filter1_b_26_693" x="-9.21858" y="19.7098" width="114.637" height="89.1624" filterUnits="userSpaceOnUse" color-interpolation-filters="sRGB">
<feFlood flood-opacity="0" result="BackgroundImageFix"/>
<feGaussianBlur in="BackgroundImageFix" stdDeviation="6.36874"/>
<feComposite in2="SourceAlpha" operator="in" result="effect1_backgroundBlur_26_693"/>
<feBlend mode="normal" in="SourceGraphic" in2="effect1_backgroundBlur_26_693" result="shape"/>
</filter>
<filter id="filter2_b_26_693" x="22.1387" y="31.4302" width="52.3101" height="32.7295" filterUnits="userSpaceOnUse" color-interpolation-filters="sRGB">
<feFlood flood-opacity="0" result="BackgroundImageFix"/>
<feGaussianBlur in="BackgroundImageFix" stdDeviation="6.65263"/>
<feComposite in2="SourceAlpha" operator="in" result="effect1_backgroundBlur_26_693"/>
<feBlend mode="normal" in="SourceGraphic" in2="effect1_backgroundBlur_26_693" result="shape"/>
</filter>
<linearGradient id="paint0_linear_26_693" x1="29.2389" y1="14.3859" x2="87.9641" y2="46.698" gradientUnits="userSpaceOnUse">
<stop stop-color="#FBA47F"/>
<stop offset="1" stop-color="#DF6B00"/>
</linearGradient>
<linearGradient id="paint1_linear_26_693" x1="-2.84984" y1="38.237" x2="101.965" y2="114.003" gradientUnits="userSpaceOnUse">
<stop stop-color="white"/>
<stop offset="1" stop-color="white" stop-opacity="0"/>
</linearGradient>
<linearGradient id="paint2_linear_26_693" x1="71.8497" y1="41.7021" x2="67.8909" y2="66.7477" gradientUnits="userSpaceOnUse">
<stop stop-color="white" stop-opacity="0"/>
<stop offset="0.979167" stop-color="white"/>
</linearGradient>
<linearGradient id="paint3_linear_26_693" x1="64.203" y1="44.7355" x2="64.203" y2="70.4351" gradientUnits="userSpaceOnUse">
<stop stop-color="white" stop-opacity="0"/>
<stop offset="1" stop-color="white"/>
</linearGradient>
</defs>
</svg>
