<svg width="94" height="94" viewBox="0 0 94 94" fill="none" xmlns="http://www.w3.org/2000/svg">
<path d="M28.6353 24.4384C31.6741 15.361 33.1935 10.8224 36.1742 7.92929C38.7962 5.38445 42.1809 3.71058 45.8432 3.14758C50.0068 2.50754 54.683 3.98224 64.0354 6.93165L68.912 8.46955C78.2644 11.419 82.9406 12.8937 85.9213 15.7867C88.5433 18.3316 90.2679 21.6167 90.8479 25.1714C91.5074 29.2124 89.988 33.7511 86.9492 42.8284L85.3647 47.5616C82.3259 56.639 80.8065 61.1776 77.8258 64.0707C75.2038 66.6155 71.8191 68.2894 68.1568 68.8524C63.9932 69.4925 59.317 68.0178 49.9646 65.0684L45.088 63.5305C35.7356 60.581 31.0594 59.1063 28.0787 56.2133C25.4567 53.6684 23.7321 50.3833 23.1521 46.8286C22.4926 42.7876 24.012 38.2489 27.0508 29.1716L28.6353 24.4384Z" fill="url(#paint0_linear_109_133)"/>
<g filter="url(#filter0_b_109_133)">
<rect x="3" y="23" width="68" height="68" rx="20" fill="#39C2FD" fill-opacity="0.32"/>
<rect x="3.25" y="23.25" width="67.5" height="67.5" rx="19.75" stroke="url(#paint1_linear_109_133)" stroke-width="0.5"/>
</g>
<g filter="url(#filter1_bdii_109_133)">
<path d="M49 51.2573C49 58.0267 43.6274 63.5145 37 63.5145C30.3726 63.5145 25 58.0267 25 51.2573C25 44.4878 30.3726 39 37 39C43.6274 39 49 44.4878 49 51.2573Z" fill="url(#paint2_linear_109_133)"/>
<path d="M51.8313 71.7023C51.906 71.9549 51.9433 72.0813 51.8967 72.3211C51.8644 72.4871 51.714 72.755 51.5891 72.8689C51.4086 73.0337 51.2321 73.0807 50.8789 73.1748C48.6351 73.7727 43.2663 75 37 75C30.7337 75 25.3649 73.7727 23.1211 73.1748C22.7679 73.0807 22.5914 73.0337 22.4109 72.8689C22.286 72.755 22.1356 72.4871 22.1033 72.3211C22.0567 72.0813 22.094 71.9549 22.1687 71.7023C23.2572 68.0182 29.4829 65.1942 37 65.1942C44.5171 65.1942 50.7428 68.0182 51.8313 71.7023Z" fill="url(#paint3_linear_109_133)"/>
</g>
<defs>
<filter id="filter0_b_109_133" x="-21" y="-1" width="116" height="116" filterUnits="userSpaceOnUse" color-interpolation-filters="sRGB">
<feFlood flood-opacity="0" result="BackgroundImageFix"/>
<feGaussianBlur in="BackgroundImageFix" stdDeviation="12"/>
<feComposite in2="SourceAlpha" operator="in" result="effect1_backgroundBlur_109_133"/>
<feBlend mode="normal" in="SourceGraphic" in2="effect1_backgroundBlur_109_133" result="shape"/>
</filter>
<filter id="filter1_bdii_109_133" x="8.08276" y="25" width="58.8345" height="65" filterUnits="userSpaceOnUse" color-interpolation-filters="sRGB">
<feFlood flood-opacity="0" result="BackgroundImageFix"/>
<feGaussianBlur in="BackgroundImageFix" stdDeviation="7"/>
<feComposite in2="SourceAlpha" operator="in" result="effect1_backgroundBlur_109_133"/>
<feColorMatrix in="SourceAlpha" type="matrix" values="0 0 0 0 0 0 0 0 0 0 0 0 0 0 0 0 0 0 127 0" result="hardAlpha"/>
<feOffset dx="5" dy="5"/>
<feGaussianBlur stdDeviation="5"/>
<feColorMatrix type="matrix" values="0 0 0 0 0.164706 0 0 0 0 0.580392 0 0 0 0 0.756863 0 0 0 0.32 0"/>
<feBlend mode="normal" in2="effect1_backgroundBlur_109_133" result="effect2_dropShadow_109_133"/>
<feBlend mode="normal" in="SourceGraphic" in2="effect2_dropShadow_109_133" result="shape"/>
<feColorMatrix in="SourceAlpha" type="matrix" values="0 0 0 0 0 0 0 0 0 0 0 0 0 0 0 0 0 0 127 0" result="hardAlpha"/>
<feOffset dy="0.2"/>
<feComposite in2="hardAlpha" operator="arithmetic" k2="-1" k3="1"/>
<feColorMatrix type="matrix" values="0 0 0 0 1 0 0 0 0 1 0 0 0 0 1 0 0 0 0.25 0"/>
<feBlend mode="normal" in2="shape" result="effect3_innerShadow_109_133"/>
<feColorMatrix in="SourceAlpha" type="matrix" values="0 0 0 0 0 0 0 0 0 0 0 0 0 0 0 0 0 0 127 0" result="hardAlpha"/>
<feOffset dy="-0.2"/>
<feComposite in2="hardAlpha" operator="arithmetic" k2="-1" k3="1"/>
<feColorMatrix type="matrix" values="0 0 0 0 0.270588 0 0 0 0 0.705882 0 0 0 0 0.984314 0 0 0 0.43 0"/>
<feBlend mode="normal" in2="effect3_innerShadow_109_133" result="effect4_innerShadow_109_133"/>
</filter>
<linearGradient id="paint0_linear_109_133" x1="91" y1="3" x2="-8.24804" y2="60.1195" gradientUnits="userSpaceOnUse">
<stop stop-color="#39C2FD"/>
<stop offset="0.0666667" stop-color="#39C2FD"/>
<stop offset="0.133333" stop-color="#39C0FD"/>
<stop offset="0.2" stop-color="#3ABEFD"/>
<stop offset="0.266667" stop-color="#3BBBFD"/>
<stop offset="0.333333" stop-color="#3CB7FD"/>
<stop offset="0.4" stop-color="#3EB2FE"/>
<stop offset="0.466667" stop-color="#3FACFE"/>
<stop offset="0.533333" stop-color="#41A7FE"/>
<stop offset="0.6" stop-color="#42A1FE"/>
<stop offset="0.666667" stop-color="#449CFF"/>
<stop offset="0.733333" stop-color="#4598FF"/>
<stop offset="0.8" stop-color="#4695FF"/>
<stop offset="0.866667" stop-color="#4792FF"/>
<stop offset="0.933333" stop-color="#4791FF"/>
<stop offset="1" stop-color="#4791FF"/>
</linearGradient>
<linearGradient id="paint1_linear_109_133" x1="6.63303" y1="27.923" x2="58.9662" y2="92.7564" gradientUnits="userSpaceOnUse">
<stop stop-color="white" stop-opacity="0.25"/>
<stop offset="1" stop-color="white" stop-opacity="0"/>
</linearGradient>
<linearGradient id="paint2_linear_109_133" x1="41.5" y1="18" x2="10.7082" y2="136.507" gradientUnits="userSpaceOnUse">
<stop stop-color="white" stop-opacity="0.88"/>
<stop offset="1" stop-color="white" stop-opacity="0"/>
</linearGradient>
<linearGradient id="paint3_linear_109_133" x1="41.5" y1="18" x2="10.7082" y2="136.507" gradientUnits="userSpaceOnUse">
<stop stop-color="white" stop-opacity="0.88"/>
<stop offset="1" stop-color="white" stop-opacity="0"/>
</linearGradient>
</defs>
</svg>
